<svg width="206" height="51" viewBox="0 0 206 51" fill="none" xmlns="http://www.w3.org/2000/svg">
<g clip-path="url(#clip0_331_864)">
<mask id="mask0_331_864" style="mask-type:luminance" maskUnits="userSpaceOnUse" x="0" y="0" width="205" height="51">
<path d="M204.817 0H0.287109V51H204.817V0Z" fill="white"/>
</mask>
<g mask="url(#mask0_331_864)">
<path d="M76.3232 6.56927L70.1191 22.9644H82.7404L76.5364 6.56927H76.3232ZM59.3535 37.1775L73.6724 0.832031H79.1878L93.5061 37.1775C90.2628 37.1775 87.3702 35.2236 86.2839 32.2985L84.438 27.3296H68.4749L66.5992 32.3062C65.4974 35.2296 62.5996 37.1775 59.3535 37.1775Z" fill="black"/>
<path d="M119.916 37.1773H115.249V33.7252H115.036C114.294 34.9432 113.155 35.9583 111.616 36.7704C110.078 37.5826 108.478 37.9895 106.816 37.9895C103.635 37.9895 101.186 37.1187 99.4722 35.3748C97.7575 33.6326 96.9004 31.1538 96.9004 27.9387V12.3047H101.779V27.6338C101.884 31.6951 104.023 33.7252 108.195 33.7252C110.14 33.7252 111.766 32.9734 113.075 31.4664C114.382 29.9606 115.036 28.1597 115.036 26.0604V12.3047H119.916V37.1773Z" fill="black"/>
<path d="M132.06 37.1782H127.18V12.3056H131.847V16.3658H132.06C132.554 15.0458 133.571 13.9211 135.109 12.991C136.646 12.0599 138.157 11.5938 139.643 11.5938C141.056 11.5938 142.258 11.7983 143.249 12.2036L141.764 16.7217C141.162 16.4848 140.207 16.3658 138.901 16.3658C137.061 16.3658 135.461 17.076 134.102 18.4979C132.739 19.9199 132.06 21.5782 132.06 23.4724V37.1782Z" fill="black"/>
<path d="M153.059 37.177H148.179V12.3044H153.059V37.177ZM154.066 3.72487C154.066 4.63903 153.73 5.41775 153.059 6.06101C152.387 6.70317 151.574 7.02507 150.619 7.02507C149.665 7.02507 148.85 6.70317 148.179 6.06101C147.508 5.41775 147.172 4.63903 147.172 3.72487C147.172 2.81181 147.508 2.03365 148.179 1.38985C148.85 0.747684 149.665 0.425781 150.619 0.425781C151.574 0.425781 152.387 0.747684 153.059 1.38985C153.73 2.03365 154.066 2.81181 154.066 3.72487Z" fill="black"/>
<path d="M172.733 0.425781C174.499 0.425781 175.949 0.713682 177.081 1.28894L175.755 5.4002C174.907 4.99494 173.953 4.79094 172.892 4.79094C171.69 4.79094 170.708 5.18962 169.949 5.98367C169.188 6.77883 168.808 7.83722 168.808 9.15719V12.3044H175.597V16.567H168.808V37.177H163.929V16.567H159.051V12.3044H163.929V8.69928C163.929 6.22935 164.752 4.23378 166.396 2.70981C168.04 1.18694 170.151 0.425781 172.733 0.425781Z" fill="black"/>
<path d="M204.817 12.3047L188.536 49.2857C186.027 49.2857 184.348 46.8152 185.366 44.62L189.543 35.6035L180.967 16.9512C179.961 14.762 181.635 12.3047 184.134 12.3047L191.877 30.1711H191.982L197.529 17.0126C198.728 14.1676 201.612 12.3047 204.817 12.3047Z" fill="black"/>
</g>
<path d="M61.1387 43.5654V42.957H65.5765V43.5654H63.7156V48.6204H62.9995V43.5654H61.1387Z" fill="black"/>
<path d="M71.0332 48.6197V42.9563H74.6042V43.5647H71.7499V45.4783H74.4191V46.0867H71.7499V48.0113H74.6506V48.6197H71.0332ZM85.4873 44.7261H84.7705C84.7281 44.5289 84.6542 44.3556 84.5482 44.2063C84.444 44.0569 84.3168 43.9316 84.1667 43.8302C84.0183 43.7269 83.8539 43.6496 83.6728 43.5979C83.4918 43.5463 83.3027 43.5205 83.1068 43.5205C82.7482 43.5205 82.4239 43.6071 82.1328 43.7804C81.8441 43.9537 81.6138 44.209 81.4425 44.5464C81.2729 44.8838 81.1881 45.2976 81.1881 45.788C81.1881 46.2784 81.2729 46.6923 81.4425 47.0296C81.6138 47.367 81.8441 47.6223 82.1328 47.7956C82.4239 47.9689 82.7482 48.0556 83.1068 48.0556C83.3027 48.0556 83.4918 48.0298 83.6728 47.9781C83.8539 47.9265 84.0183 47.85 84.1667 47.7486C84.3168 47.6454 84.444 47.5191 84.5482 47.3698C84.6542 47.2186 84.7281 47.0453 84.7705 46.8499H85.4873C85.4328 47.1393 85.3349 47.3984 85.1922 47.6269C85.0501 47.8556 84.8725 48.05 84.6605 48.2104C84.4491 48.369 84.2108 48.4897 83.9473 48.5727C83.6854 48.6557 83.4053 48.6971 83.1068 48.6971C82.6021 48.6971 82.1529 48.5792 81.7604 48.3431C81.3674 48.1072 81.0581 47.7717 80.8329 47.3366C80.6077 46.9015 80.4949 46.3853 80.4949 45.788C80.4949 45.1907 80.6077 44.6745 80.8329 44.2395C81.0581 43.8044 81.3674 43.4689 81.7604 43.2329C82.1529 42.9969 82.6021 42.8789 83.1068 42.8789C83.4053 42.8789 83.6854 42.9204 83.9473 43.0034C84.2108 43.0863 84.4491 43.208 84.6605 43.3684C84.8725 43.5269 85.0501 43.7205 85.1922 43.9491C85.3349 44.1758 85.4328 44.4349 85.4873 44.7261Z" fill="black"/>
<path d="M91.6113 48.6204V42.957H92.3275V45.479H95.4825V42.957H96.1992V48.6204H95.4825V46.0874H92.3275V48.6204H91.6113Z" fill="black"/>
<path d="M107.1 42.9563V48.6197H106.407L103.182 44.1731H103.125V48.6197H102.408V42.9563H103.101L106.337 47.414H106.395V42.9563H107.1ZM118.737 45.788C118.737 46.3853 118.625 46.9015 118.399 47.3366C118.174 47.7717 117.865 48.1072 117.472 48.3431C117.079 48.5792 116.63 48.6971 116.126 48.6971C115.621 48.6971 115.173 48.5792 114.78 48.3431C114.387 48.1072 114.077 47.7717 113.852 47.3366C113.627 46.9015 113.514 46.3853 113.514 45.788C113.514 45.1907 113.627 44.6745 113.852 44.2395C114.077 43.8044 114.387 43.4689 114.78 43.2329C115.173 42.9969 115.621 42.8789 116.126 42.8789C116.63 42.8789 117.079 42.9969 117.472 43.2329C117.865 43.4689 118.174 43.8044 118.399 44.2395C118.625 44.6745 118.737 45.1907 118.737 45.788ZM118.044 45.788C118.044 45.2976 117.958 44.8838 117.787 44.5464C117.617 44.209 117.388 43.9537 117.097 43.7804C116.808 43.6071 116.484 43.5205 116.126 43.5205C115.767 43.5205 115.443 43.6071 115.152 43.7804C114.863 43.9537 114.633 44.209 114.462 44.5464C114.292 44.8838 114.207 45.2976 114.207 45.788C114.207 46.2784 114.292 46.6923 114.462 47.0296C114.633 47.367 114.863 47.6223 115.152 47.7956C115.443 47.9689 115.767 48.0556 116.126 48.0556C116.484 48.0556 116.808 47.9689 117.097 47.7956C117.388 47.6223 117.617 47.367 117.787 47.0296C117.958 46.6923 118.044 46.2784 118.044 45.788ZM125.154 48.6197V42.9563H125.87V48.0113H128.621V48.6197H125.154ZM139.934 45.788C139.934 46.3853 139.821 46.9015 139.596 47.3366C139.371 47.7717 139.062 48.1072 138.669 48.3431C138.276 48.5792 137.827 48.6971 137.322 48.6971C136.818 48.6971 136.369 48.5792 135.976 48.3431C135.583 48.1072 135.274 47.7717 135.049 47.3366C134.823 46.9015 134.711 46.3853 134.711 45.788C134.711 45.1907 134.823 44.6745 135.049 44.2395C135.274 43.8044 135.583 43.4689 135.976 43.2329C136.369 42.9969 136.818 42.8789 137.322 42.8789C137.827 42.8789 138.276 42.9969 138.669 43.2329C139.062 43.4689 139.371 43.8044 139.596 44.2395C139.821 44.6745 139.934 45.1907 139.934 45.788ZM139.241 45.788C139.241 45.2976 139.155 44.8838 138.984 44.5464C138.814 44.209 138.584 43.9537 138.293 43.7804C138.004 43.6071 137.681 43.5205 137.322 43.5205C136.964 43.5205 136.64 43.6071 136.349 43.7804C136.06 43.9537 135.83 44.209 135.658 44.5464C135.489 44.8838 135.404 45.2976 135.404 45.788C135.404 46.2784 135.489 46.6923 135.658 47.0296C135.83 47.367 136.06 47.6223 136.349 47.7956C136.64 47.9689 136.964 48.0556 137.322 48.0556C137.681 48.0556 138.004 47.9689 138.293 47.7956C138.584 47.6223 138.814 47.367 138.984 47.0296C139.155 46.6923 139.241 46.2784 139.241 45.788ZM150.395 44.7261C150.331 44.54 150.248 44.3731 150.143 44.2256C150.041 44.0763 149.919 43.9491 149.777 43.844C149.636 43.7389 149.477 43.6588 149.297 43.6034C149.118 43.5482 148.921 43.5205 148.708 43.5205C148.357 43.5205 148.039 43.6071 147.751 43.7804C147.464 43.9537 147.236 44.209 147.067 44.5464C146.897 44.8838 146.812 45.2976 146.812 45.788C146.812 46.2784 146.898 46.6923 147.07 47.0296C147.241 47.367 147.473 47.6223 147.766 47.7956C148.059 47.9689 148.388 48.0556 148.754 48.0556C149.093 48.0556 149.392 47.9865 149.65 47.8482C149.91 47.7081 150.112 47.5108 150.256 47.2564C150.403 47.0001 150.476 46.6987 150.476 46.3522L150.696 46.3964H148.916V45.788H151.17V46.3964C151.17 46.8628 151.065 47.2684 150.857 47.6131C150.651 47.9578 150.366 48.2252 150.002 48.4151C149.64 48.6031 149.224 48.6971 148.754 48.6971C148.23 48.6971 147.77 48.5792 147.373 48.3431C146.978 48.1072 146.67 47.7717 146.449 47.3366C146.229 46.9015 146.119 46.3853 146.119 45.788C146.119 45.3401 146.182 44.9372 146.307 44.5796C146.434 44.2201 146.613 43.9141 146.845 43.6615C147.075 43.4089 147.349 43.2154 147.665 43.0808C147.981 42.9462 148.328 42.8789 148.708 42.8789C149.02 42.8789 149.31 42.9241 149.58 43.0144C149.852 43.1029 150.094 43.2292 150.306 43.3933C150.519 43.5555 150.697 43.75 150.84 43.9768C150.982 44.2017 151.081 44.4515 151.135 44.7261H150.395Z" fill="black"/>
<path d="M158.355 42.957V48.6204H157.639V42.957H158.355ZM164.622 48.6204V42.957H168.193V43.5654H165.339V45.479H168.008V46.0874H165.339V48.012H168.239V48.6204H164.622Z" fill="black"/>
<path d="M177.472 44.3722C177.438 44.092 177.297 43.8744 177.05 43.7196C176.804 43.5647 176.502 43.4873 176.143 43.4873C175.882 43.4873 175.652 43.5279 175.456 43.609C175.261 43.6901 175.109 43.8016 174.999 43.9435C174.892 44.0855 174.837 44.2469 174.837 44.4275C174.837 44.5787 174.875 44.7087 174.95 44.8174C175.027 44.9243 175.125 45.0137 175.245 45.0856C175.364 45.1557 175.489 45.2138 175.62 45.2598C175.752 45.3041 175.872 45.3401 175.981 45.3677L176.582 45.5226C176.736 45.5613 176.908 45.6148 177.097 45.683C177.288 45.7511 177.469 45.8443 177.643 45.9623C177.818 46.0784 177.962 46.2277 178.076 46.4102C178.19 46.5927 178.247 46.8167 178.247 47.0822C178.247 47.3882 178.163 47.6647 177.995 47.9118C177.83 48.1588 177.587 48.3552 177.267 48.5008C176.95 48.6465 176.563 48.7192 176.109 48.7192C175.685 48.7192 175.318 48.6538 175.008 48.5229C174.7 48.392 174.457 48.2095 174.28 47.9754C174.104 47.7412 174.005 47.4693 173.982 47.1596H174.722C174.741 47.3735 174.816 47.5504 174.947 47.6906C175.08 47.8288 175.248 47.9321 175.45 48.0003C175.654 48.0666 175.874 48.0998 176.109 48.0998C176.382 48.0998 176.628 48.0574 176.845 47.9726C177.063 47.886 177.235 47.7661 177.363 47.6131C177.49 47.4583 177.553 47.2776 177.553 47.0711C177.553 46.8831 177.498 46.7301 177.388 46.6121C177.278 46.4941 177.134 46.3982 176.955 46.3245C176.776 46.2508 176.582 46.1862 176.374 46.131L175.646 45.9318C175.184 45.8046 174.818 45.623 174.548 45.3871C174.279 45.1511 174.144 44.8423 174.144 44.4607C174.144 44.1436 174.234 43.867 174.413 43.6311C174.594 43.3933 174.837 43.2089 175.141 43.078C175.447 42.9453 175.789 42.8789 176.166 42.8789C176.548 42.8789 176.887 42.9444 177.183 43.0753C177.48 43.2043 177.715 43.3813 177.888 43.6062C178.063 43.8311 178.156 44.0865 178.166 44.3722H177.472Z" fill="black"/>
<mask id="mask1_331_864" style="mask-type:luminance" maskUnits="userSpaceOnUse" x="9" y="0" width="23" height="14">
<path d="M9.50977 5.48387L24.7493 13.8742C26.4107 11.4613 28.7597 9.54194 31.3951 8.11613L18.0462 0.767736C17.1295 0.219352 16.1556 0 15.1816 0C12.2598 0 9.50977 2.30323 9.50977 5.48387Z" fill="white"/>
</mask>
<g mask="url(#mask1_331_864)">
<path d="M-69.4375 -107.484V354.198H271.605L271.605 -107.484L-69.4375 -107.484Z" fill="url(#paint0_linear_331_864)"/>
</g>
<mask id="mask2_331_864" style="mask-type:luminance" maskUnits="userSpaceOnUse" x="25" y="8" width="22" height="33">
<path d="M25.7812 14.4217L44.1145 24.5668L40.1614 26.7604C40.1614 26.7604 33.3437 30.7636 26.1823 34.9314C27.901 37.2346 30.25 39.0443 32.9427 40.2507L45.0885 33.5055C46.0624 30.8184 46.578 27.912 46.578 24.841C46.578 21.6055 45.9478 18.4249 44.8593 15.5733L32.6562 8.82812C29.9062 10.0894 27.5573 12.0636 25.7812 14.4217Z" fill="white"/>
</mask>
<g mask="url(#mask2_331_864)">
<path d="M-69.4375 354.197H271.605V-107.484H-69.4375V354.197Z" fill="url(#paint1_linear_331_864)"/>
</g>
<mask id="mask3_331_864" style="mask-type:luminance" maskUnits="userSpaceOnUse" x="0" y="10" width="23" height="29">
<path d="M0 14.4793L18.3333 24.5697L14.3801 26.7632C14.3801 26.7632 7.56247 30.7664 0.401043 34.9342L0.458333 34.989C3.26561 38.6084 8.53642 39.5406 12.6041 37.2922L22.7447 31.6439C21.828 29.4503 21.3124 27.1471 21.3124 24.6245C21.3124 22.1568 21.828 19.7439 22.7447 17.6051L12.3749 11.8471C10.8854 11.0245 9.28121 10.6406 7.67705 10.6406C4.75519 10.6406 1.83333 12.0116 0 14.4793Z" fill="white"/>
</mask>
<g mask="url(#mask3_331_864)">
<path d="M-69.4369 -107.48L-69.4375 354.202H271.605V-107.48L-69.4369 -107.48Z" fill="url(#paint2_linear_331_864)"/>
</g>
<mask id="mask4_331_864" style="mask-type:luminance" maskUnits="userSpaceOnUse" x="9" y="35" width="23" height="15">
<path d="M9.625 44.6384C9.625 48.4223 13.9791 50.8352 17.4166 48.9158L31.6822 40.9642C29.1041 39.7029 26.8124 37.8384 25.151 35.5352C17.8177 39.8126 10.4271 44.1448 9.625 44.6384Z" fill="white"/>
</mask>
<g mask="url(#mask4_331_864)">
<path d="M-69.4369 -107.484L-69.4375 354.198H271.605V-107.484L-69.4369 -107.484Z" fill="url(#paint3_linear_331_864)"/>
</g>
</g>
<defs>
<linearGradient id="paint0_linear_331_864" x1="20.4453" y1="0.00872362" x2="20.4453" y2="13.8638" gradientUnits="userSpaceOnUse">
<stop stop-color="#306EBB"/>
<stop offset="0.205952" stop-color="#3070BC"/>
<stop offset="0.571429" stop-color="#3A96D2"/>
<stop offset="0.792857" stop-color="#42BCE9"/>
<stop offset="1" stop-color="#53CABB"/>
</linearGradient>
<linearGradient id="paint1_linear_331_864" x1="25.7978" y1="24.5417" x2="46.6015" y2="24.5417" gradientUnits="userSpaceOnUse">
<stop stop-color="#306EBB"/>
<stop offset="0.205952" stop-color="#3070BC"/>
<stop offset="0.571429" stop-color="#3A96D2"/>
<stop offset="0.792857" stop-color="#42BCE9"/>
<stop offset="1" stop-color="#53CABB"/>
</linearGradient>
<linearGradient id="paint2_linear_331_864" x1="11.3972" y1="10.647" x2="11.3972" y2="38.5068" gradientUnits="userSpaceOnUse">
<stop stop-color="#306EBB"/>
<stop offset="0.205952" stop-color="#3070BC"/>
<stop offset="0.571429" stop-color="#3A96D2"/>
<stop offset="0.792857" stop-color="#42BCE9"/>
<stop offset="1" stop-color="#53CABB"/>
</linearGradient>
<linearGradient id="paint3_linear_331_864" x1="20.6725" y1="35.553" x2="20.6724" y2="49.5842" gradientUnits="userSpaceOnUse">
<stop stop-color="#306EBB"/>
<stop offset="0.205952" stop-color="#3070BC"/>
<stop offset="0.571429" stop-color="#3A96D2"/>
<stop offset="0.792857" stop-color="#42BCE9"/>
<stop offset="1" stop-color="#53CABB"/>
</linearGradient>
<clipPath id="clip0_331_864">
<rect width="205.103" height="51" fill="white"/>
</clipPath>
</defs>
</svg>
