<svg width="206" height="51" viewBox="0 0 206 51" fill="none" xmlns="http://www.w3.org/2000/svg">
<g clip-path="url(#clip0_335_1276)">
<mask id="mask0_335_1276" style="mask-type:luminance" maskUnits="userSpaceOnUse" x="0" y="0" width="205" height="51">
<path d="M204.817 0H0.286133V51H204.817V0Z" fill="white"/>
</mask>
<g mask="url(#mask0_335_1276)">
<path d="M76.3223 6.56927L70.1182 22.9644H82.7395L76.5354 6.56927H76.3223ZM59.3525 37.1775L73.6714 0.832031H79.1868L93.5051 37.1775C90.2618 37.1775 87.3692 35.2236 86.2829 32.2985L84.437 27.3296H68.4739L66.5982 32.3062C65.4965 35.2296 62.5987 37.1775 59.3525 37.1775Z" fill="white"/>
<path d="M119.915 37.1773H115.248V33.7252H115.035C114.293 34.9432 113.154 35.9583 111.615 36.7704C110.077 37.5826 108.477 37.9895 106.815 37.9895C103.634 37.9895 101.185 37.1187 99.4712 35.3748C97.7565 33.6326 96.8994 31.1538 96.8994 27.9387V12.3047H101.778V27.6338C101.883 31.6951 104.022 33.7252 108.194 33.7252C110.139 33.7252 111.765 32.9734 113.074 31.4664C114.381 29.9606 115.035 28.1597 115.035 26.0604V12.3047H119.915V37.1773Z" fill="white"/>
<path d="M132.059 37.1782H127.179V12.3056H131.846V16.3658H132.059C132.553 15.0458 133.57 13.9211 135.108 12.991C136.645 12.0599 138.156 11.5938 139.642 11.5938C141.055 11.5938 142.257 11.7983 143.248 12.2036L141.763 16.7217C141.161 16.4848 140.206 16.3658 138.9 16.3658C137.06 16.3658 135.46 17.076 134.101 18.4979C132.738 19.9199 132.059 21.5782 132.059 23.4724V37.1782Z" fill="white"/>
<path d="M153.059 37.177H148.179V12.3044H153.059V37.177ZM154.066 3.72487C154.066 4.63903 153.73 5.41775 153.059 6.06101C152.387 6.70317 151.574 7.02507 150.619 7.02507C149.665 7.02507 148.85 6.70317 148.179 6.06101C147.508 5.41775 147.172 4.63903 147.172 3.72487C147.172 2.81181 147.508 2.03365 148.179 1.38985C148.85 0.747684 149.665 0.425781 150.619 0.425781C151.574 0.425781 152.387 0.747684 153.059 1.38985C153.73 2.03365 154.066 2.81181 154.066 3.72487Z" fill="white"/>
<path d="M172.732 0.425781C174.498 0.425781 175.948 0.713682 177.08 1.28894L175.754 5.4002C174.906 4.99494 173.952 4.79094 172.891 4.79094C171.689 4.79094 170.707 5.18962 169.948 5.98367C169.187 6.77883 168.807 7.83722 168.807 9.15719V12.3044H175.596V16.567H168.807V37.177H163.928V16.567H159.05V12.3044H163.928V8.69928C163.928 6.22935 164.751 4.23378 166.395 2.70981C168.039 1.18694 170.15 0.425781 172.732 0.425781Z" fill="white"/>
<path d="M204.816 12.3047L188.535 49.2857C186.026 49.2857 184.347 46.8152 185.365 44.62L189.542 35.6035L180.966 16.9512C179.96 14.762 181.634 12.3047 184.133 12.3047L191.876 30.1711H191.981L197.528 17.0126C198.727 14.1676 201.611 12.3047 204.816 12.3047Z" fill="white"/>
</g>
<path d="M61.1377 43.5654V42.957H65.5755V43.5654H63.7147V48.6204H62.9985V43.5654H61.1377Z" fill="white"/>
<path d="M71.0332 48.6197V42.9563H74.6042V43.5647H71.7499V45.4783H74.4191V46.0867H71.7499V48.0113H74.6506V48.6197H71.0332ZM85.4873 44.7261H84.7705C84.7281 44.5289 84.6542 44.3556 84.5482 44.2063C84.444 44.0569 84.3168 43.9316 84.1667 43.8302C84.0183 43.7269 83.8539 43.6496 83.6728 43.5979C83.4918 43.5463 83.3027 43.5205 83.1068 43.5205C82.7482 43.5205 82.4239 43.6071 82.1328 43.7804C81.8441 43.9537 81.6138 44.209 81.4425 44.5464C81.2729 44.8838 81.1881 45.2976 81.1881 45.788C81.1881 46.2784 81.2729 46.6923 81.4425 47.0296C81.6138 47.367 81.8441 47.6223 82.1328 47.7956C82.4239 47.9689 82.7482 48.0556 83.1068 48.0556C83.3027 48.0556 83.4918 48.0298 83.6728 47.9781C83.8539 47.9265 84.0183 47.85 84.1667 47.7486C84.3168 47.6454 84.444 47.5191 84.5482 47.3698C84.6542 47.2186 84.7281 47.0453 84.7705 46.8499H85.4873C85.4328 47.1393 85.3349 47.3984 85.1922 47.6269C85.0501 47.8556 84.8725 48.05 84.6605 48.2104C84.4491 48.369 84.2108 48.4897 83.9473 48.5727C83.6854 48.6557 83.4053 48.6971 83.1068 48.6971C82.6021 48.6971 82.1529 48.5792 81.7604 48.3431C81.3674 48.1072 81.0581 47.7717 80.8329 47.3366C80.6077 46.9015 80.4949 46.3853 80.4949 45.788C80.4949 45.1907 80.6077 44.6745 80.8329 44.2395C81.0581 43.8044 81.3674 43.4689 81.7604 43.2329C82.1529 42.9969 82.6021 42.8789 83.1068 42.8789C83.4053 42.8789 83.6854 42.9204 83.9473 43.0034C84.2108 43.0863 84.4491 43.208 84.6605 43.3684C84.8725 43.5269 85.0501 43.7205 85.1922 43.9491C85.3349 44.1758 85.4328 44.4349 85.4873 44.7261Z" fill="white"/>
<path d="M91.6123 48.6204V42.957H92.3284V45.479H95.4835V42.957H96.2002V48.6204H95.4835V46.0874H92.3284V48.6204H91.6123Z" fill="white"/>
<path d="M107.101 42.9563V48.6197H106.408L103.183 44.1731H103.126V48.6197H102.409V42.9563H103.102L106.338 47.414H106.396V42.9563H107.101ZM118.738 45.788C118.738 46.3853 118.626 46.9015 118.4 47.3366C118.175 47.7717 117.866 48.1072 117.473 48.3431C117.08 48.5792 116.631 48.6971 116.127 48.6971C115.622 48.6971 115.174 48.5792 114.781 48.3431C114.388 48.1072 114.078 47.7717 113.853 47.3366C113.628 46.9015 113.515 46.3853 113.515 45.788C113.515 45.1907 113.628 44.6745 113.853 44.2395C114.078 43.8044 114.388 43.4689 114.781 43.2329C115.174 42.9969 115.622 42.8789 116.127 42.8789C116.631 42.8789 117.08 42.9969 117.473 43.2329C117.866 43.4689 118.175 43.8044 118.4 44.2395C118.626 44.6745 118.738 45.1907 118.738 45.788ZM118.045 45.788C118.045 45.2976 117.959 44.8838 117.788 44.5464C117.618 44.209 117.389 43.9537 117.098 43.7804C116.809 43.6071 116.485 43.5205 116.127 43.5205C115.768 43.5205 115.444 43.6071 115.153 43.7804C114.864 43.9537 114.634 44.209 114.463 44.5464C114.293 44.8838 114.208 45.2976 114.208 45.788C114.208 46.2784 114.293 46.6923 114.463 47.0296C114.634 47.367 114.864 47.6223 115.153 47.7956C115.444 47.9689 115.768 48.0556 116.127 48.0556C116.485 48.0556 116.809 47.9689 117.098 47.7956C117.389 47.6223 117.618 47.367 117.788 47.0296C117.959 46.6923 118.045 46.2784 118.045 45.788ZM125.155 48.6197V42.9563H125.871V48.0113H128.622V48.6197H125.155ZM139.935 45.788C139.935 46.3853 139.822 46.9015 139.597 47.3366C139.372 47.7717 139.063 48.1072 138.669 48.3431C138.276 48.5792 137.828 48.6971 137.323 48.6971C136.819 48.6971 136.37 48.5792 135.977 48.3431C135.584 48.1072 135.275 47.7717 135.05 47.3366C134.824 46.9015 134.712 46.3853 134.712 45.788C134.712 45.1907 134.824 44.6745 135.05 44.2395C135.275 43.8044 135.584 43.4689 135.977 43.2329C136.37 42.9969 136.819 42.8789 137.323 42.8789C137.828 42.8789 138.276 42.9969 138.669 43.2329C139.063 43.4689 139.372 43.8044 139.597 44.2395C139.822 44.6745 139.935 45.1907 139.935 45.788ZM139.242 45.788C139.242 45.2976 139.156 44.8838 138.985 44.5464C138.815 44.209 138.585 43.9537 138.294 43.7804C138.005 43.6071 137.682 43.5205 137.323 43.5205C136.965 43.5205 136.641 43.6071 136.35 43.7804C136.061 43.9537 135.831 44.209 135.659 44.5464C135.49 44.8838 135.405 45.2976 135.405 45.788C135.405 46.2784 135.49 46.6923 135.659 47.0296C135.831 47.367 136.061 47.6223 136.35 47.7956C136.641 47.9689 136.965 48.0556 137.323 48.0556C137.682 48.0556 138.005 47.9689 138.294 47.7956C138.585 47.6223 138.815 47.367 138.985 47.0296C139.156 46.6923 139.242 46.2784 139.242 45.788ZM150.396 44.7261C150.332 44.54 150.249 44.3731 150.144 44.2256C150.042 44.0763 149.92 43.9491 149.778 43.844C149.637 43.7389 149.478 43.6588 149.298 43.6034C149.119 43.5482 148.922 43.5205 148.709 43.5205C148.358 43.5205 148.04 43.6071 147.752 43.7804C147.465 43.9537 147.237 44.209 147.068 44.5464C146.898 44.8838 146.813 45.2976 146.813 45.788C146.813 46.2784 146.899 46.6923 147.071 47.0296C147.242 47.367 147.474 47.6223 147.767 47.7956C148.06 47.9689 148.389 48.0556 148.755 48.0556C149.094 48.0556 149.393 47.9865 149.651 47.8482C149.911 47.7081 150.113 47.5108 150.257 47.2564C150.404 47.0001 150.477 46.6987 150.477 46.3522L150.697 46.3964H148.917V45.788H151.17V46.3964C151.17 46.8628 151.066 47.2684 150.858 47.6131C150.652 47.9578 150.367 48.2252 150.003 48.4151C149.641 48.6031 149.225 48.6971 148.755 48.6971C148.231 48.6971 147.771 48.5792 147.374 48.3431C146.979 48.1072 146.671 47.7717 146.45 47.3366C146.23 46.9015 146.12 46.3853 146.12 45.788C146.12 45.3401 146.183 44.9372 146.308 44.5796C146.435 44.2201 146.614 43.9141 146.846 43.6615C147.076 43.4089 147.35 43.2154 147.666 43.0808C147.982 42.9462 148.329 42.8789 148.709 42.8789C149.021 42.8789 149.311 42.9241 149.581 43.0144C149.853 43.1029 150.095 43.2292 150.307 43.3933C150.52 43.5555 150.698 43.75 150.841 43.9768C150.983 44.2017 151.082 44.4515 151.136 44.7261H150.396Z" fill="white"/>
<path d="M158.354 42.957V48.6204H157.638V42.957H158.354ZM164.622 48.6204V42.957H168.192V43.5654H165.338V45.479H168.007V46.0874H165.338V48.012H168.238V48.6204H164.622Z" fill="white"/>
<path d="M177.473 44.3722C177.439 44.092 177.298 43.8744 177.051 43.7196C176.805 43.5647 176.503 43.4873 176.144 43.4873C175.883 43.4873 175.653 43.5279 175.457 43.609C175.262 43.6901 175.11 43.8016 175 43.9435C174.893 44.0855 174.838 44.2469 174.838 44.4275C174.838 44.5787 174.876 44.7087 174.951 44.8174C175.028 44.9243 175.126 45.0137 175.246 45.0856C175.365 45.1557 175.49 45.2138 175.621 45.2598C175.753 45.3041 175.873 45.3401 175.982 45.3677L176.583 45.5226C176.737 45.5613 176.909 45.6148 177.098 45.683C177.289 45.7511 177.47 45.8443 177.644 45.9623C177.819 46.0784 177.963 46.2277 178.077 46.4102C178.191 46.5927 178.248 46.8167 178.248 47.0822C178.248 47.3882 178.164 47.6647 177.996 47.9118C177.831 48.1588 177.588 48.3552 177.268 48.5008C176.951 48.6465 176.564 48.7192 176.109 48.7192C175.686 48.7192 175.319 48.6538 175.009 48.5229C174.701 48.392 174.458 48.2095 174.281 47.9754C174.105 47.7412 174.006 47.4693 173.983 47.1596H174.723C174.742 47.3735 174.817 47.5504 174.948 47.6906C175.081 47.8288 175.249 47.9321 175.451 48.0003C175.655 48.0666 175.875 48.0998 176.109 48.0998C176.383 48.0998 176.629 48.0574 176.846 47.9726C177.064 47.886 177.236 47.7661 177.364 47.6131C177.491 47.4583 177.554 47.2776 177.554 47.0711C177.554 46.8831 177.499 46.7301 177.389 46.6121C177.279 46.4941 177.135 46.3982 176.956 46.3245C176.777 46.2508 176.583 46.1862 176.375 46.131L175.647 45.9318C175.185 45.8046 174.819 45.623 174.549 45.3871C174.28 45.1511 174.145 44.8423 174.145 44.4607C174.145 44.1436 174.235 43.867 174.414 43.6311C174.595 43.3933 174.838 43.2089 175.142 43.078C175.448 42.9453 175.79 42.8789 176.167 42.8789C176.549 42.8789 176.888 42.9444 177.184 43.0753C177.481 43.2043 177.716 43.3813 177.889 43.6062C178.064 43.8311 178.157 44.0865 178.167 44.3722H177.473Z" fill="white"/>
<mask id="mask1_335_1276" style="mask-type:luminance" maskUnits="userSpaceOnUse" x="9" y="0" width="23" height="14">
<path d="M9.51074 5.48387L24.7503 13.8742C26.4117 11.4613 28.7607 9.54194 31.3961 8.11613L18.0472 0.767736C17.1305 0.219352 16.1565 0 15.1826 0C12.2607 0 9.51074 2.30323 9.51074 5.48387Z" fill="white"/>
</mask>
<g mask="url(#mask1_335_1276)">
<path d="M-69.4365 -107.484V354.198H271.605L271.606 -107.484L-69.4365 -107.484Z" fill="url(#paint0_linear_335_1276)"/>
</g>
<mask id="mask2_335_1276" style="mask-type:luminance" maskUnits="userSpaceOnUse" x="25" y="8" width="22" height="33">
<path d="M25.7812 14.4217L44.1145 24.5668L40.1614 26.7604C40.1614 26.7604 33.3437 30.7636 26.1823 34.9314C27.901 37.2346 30.25 39.0443 32.9427 40.2507L45.0885 33.5055C46.0624 30.8184 46.578 27.912 46.578 24.841C46.578 21.6055 45.9478 18.4249 44.8593 15.5733L32.6562 8.82812C29.9062 10.0894 27.5573 12.0636 25.7812 14.4217Z" fill="white"/>
</mask>
<g mask="url(#mask2_335_1276)">
<path d="M-69.4375 354.197H271.605V-107.484H-69.4375V354.197Z" fill="url(#paint1_linear_335_1276)"/>
</g>
<mask id="mask3_335_1276" style="mask-type:luminance" maskUnits="userSpaceOnUse" x="0" y="10" width="23" height="29">
<path d="M0 14.4793L18.3333 24.5697L14.3801 26.7632C14.3801 26.7632 7.56247 30.7664 0.401043 34.9342L0.458333 34.989C3.26561 38.6084 8.53642 39.5406 12.6041 37.2922L22.7447 31.6439C21.828 29.4503 21.3124 27.1471 21.3124 24.6245C21.3124 22.1568 21.828 19.7439 22.7447 17.6051L12.3749 11.8471C10.8854 11.0245 9.28121 10.6406 7.67705 10.6406C4.75519 10.6406 1.83333 12.0116 0 14.4793Z" fill="white"/>
</mask>
<g mask="url(#mask3_335_1276)">
<path d="M-69.4369 -107.48L-69.4375 354.202H271.605V-107.48L-69.4369 -107.48Z" fill="url(#paint2_linear_335_1276)"/>
</g>
<mask id="mask4_335_1276" style="mask-type:luminance" maskUnits="userSpaceOnUse" x="9" y="35" width="23" height="15">
<path d="M9.625 44.6384C9.625 48.4223 13.9791 50.8352 17.4166 48.9158L31.6822 40.9642C29.1041 39.7029 26.8124 37.8384 25.151 35.5352C17.8177 39.8126 10.4271 44.1448 9.625 44.6384Z" fill="white"/>
</mask>
<g mask="url(#mask4_335_1276)">
<path d="M-69.4369 -107.484L-69.4375 354.198H271.605V-107.484L-69.4369 -107.484Z" fill="url(#paint3_linear_335_1276)"/>
</g>
</g>
<defs>
<linearGradient id="paint0_linear_335_1276" x1="20.4463" y1="0.00872362" x2="20.4463" y2="13.8638" gradientUnits="userSpaceOnUse">
<stop stop-color="#306EBB"/>
<stop offset="0.205952" stop-color="#3070BC"/>
<stop offset="0.571429" stop-color="#3A96D2"/>
<stop offset="0.792857" stop-color="#42BCE9"/>
<stop offset="1" stop-color="#53CABB"/>
</linearGradient>
<linearGradient id="paint1_linear_335_1276" x1="25.7978" y1="24.5417" x2="46.6015" y2="24.5417" gradientUnits="userSpaceOnUse">
<stop stop-color="#306EBB"/>
<stop offset="0.205952" stop-color="#3070BC"/>
<stop offset="0.571429" stop-color="#3A96D2"/>
<stop offset="0.792857" stop-color="#42BCE9"/>
<stop offset="1" stop-color="#53CABB"/>
</linearGradient>
<linearGradient id="paint2_linear_335_1276" x1="11.3972" y1="10.647" x2="11.3972" y2="38.5068" gradientUnits="userSpaceOnUse">
<stop stop-color="#306EBB"/>
<stop offset="0.205952" stop-color="#3070BC"/>
<stop offset="0.571429" stop-color="#3A96D2"/>
<stop offset="0.792857" stop-color="#42BCE9"/>
<stop offset="1" stop-color="#53CABB"/>
</linearGradient>
<linearGradient id="paint3_linear_335_1276" x1="20.6725" y1="35.553" x2="20.6724" y2="49.5842" gradientUnits="userSpaceOnUse">
<stop stop-color="#306EBB"/>
<stop offset="0.205952" stop-color="#3070BC"/>
<stop offset="0.571429" stop-color="#3A96D2"/>
<stop offset="0.792857" stop-color="#42BCE9"/>
<stop offset="1" stop-color="#53CABB"/>
</linearGradient>
<clipPath id="clip0_335_1276">
<rect width="205.103" height="51" fill="white"/>
</clipPath>
</defs>
</svg>
