<svg width="1920" height="1080" viewBox="0 0 1920 1080" fill="none" xmlns="http://www.w3.org/2000/svg">
<g clip-path="url(#clip0_314_530)">
<rect width="1920" height="1080" fill="#001827"/>
<g opacity="0.4">
<g opacity="0.1">
<path fill-rule="evenodd" clip-rule="evenodd" d="M1555.5 43.8444C1553.74 45.7893 1552.35 47.3979 1551.4 48.5333C1522.9 82.6841 1519.59 117.941 1523.72 157.844C1528.01 199.338 1505.94 240.289 1491.7 282.086C1479.58 317.667 1479.25 380.165 1526.54 392.024C1545.09 396.675 1593.12 420.832 1642.38 306.743C1655.67 275.945 1695.12 253.15 1732.31 238.041C1779.53 218.858 1798.09 184.234 1855.19 188.252C1896.72 191.175 1922.78 215.439 1942.5 209.542V32.5694C1942.5 32.5694 1614.63 -1.08529 1614.24 -1.1268C1600.02 -2.57146 1568.29 29.6448 1555.5 43.8444Z" fill="#5E6470"/>
<path fill-rule="evenodd" clip-rule="evenodd" d="M1548.12 37.6178C1546.37 39.5627 1544.97 41.1714 1544.03 42.3068C1515.52 76.4576 1512.22 111.715 1516.34 151.617C1520.64 193.112 1498.57 234.062 1484.33 275.86C1472.21 311.441 1471.88 373.939 1519.17 385.797C1537.72 390.449 1585.75 414.605 1635 300.517C1648.3 269.718 1687.75 246.923 1724.94 231.814C1772.16 212.631 1790.72 178.007 1847.82 182.026C1889.35 184.948 1915.41 209.213 1935.13 203.316V26.3429C1935.13 26.3429 1607.26 -7.31185 1606.87 -7.35337C1592.65 -8.79802 1560.92 23.4183 1548.12 37.6178Z" fill="url(#paint0_radial_314_530)"/>
<path fill-rule="evenodd" clip-rule="evenodd" d="M1550.58 39.6921C1548.83 41.637 1547.43 43.2456 1546.48 44.381C1517.98 78.5318 1514.67 113.789 1518.8 153.691C1523.09 195.186 1501.02 236.137 1486.79 277.934C1474.67 313.515 1474.33 376.013 1521.62 387.871C1540.17 392.523 1588.21 416.679 1637.46 302.591C1650.75 271.792 1690.2 248.997 1727.39 233.889C1774.61 214.705 1793.17 180.081 1850.27 184.1C1891.8 187.022 1917.87 211.287 1937.58 205.39V28.4171C1937.58 28.4171 1609.72 -5.23763 1609.32 -5.27915C1595.1 -6.72381 1563.37 25.4925 1550.58 39.6921Z" fill="#9BA4B8"/>
<path fill-rule="evenodd" clip-rule="evenodd" d="M1593.12 82.084C1562.8 98.27 1535.2 130.989 1563.47 170.571C1595.85 215.893 1532.41 264.094 1574.61 286.237C1617.03 308.493 1652.19 201.76 1701.35 176.352C1722.8 165.264 1755.83 150.502 1778.96 142.807C1799.75 135.889 1819.28 134.808 1838.56 138.685C1872.47 145.502 1901.52 168.029 1941.38 158.904C1941.76 158.817 1942.12 158.705 1942.49 158.614V-1.125H1663.83C1667.18 37.7023 1606.18 75.1119 1593.12 82.084Z" fill="#8892A3"/>
<path fill-rule="evenodd" clip-rule="evenodd" d="M1585.75 75.8574C1555.43 92.0434 1527.83 124.762 1556.1 164.345C1588.48 209.667 1525.04 257.868 1567.24 280.011C1609.65 302.266 1644.82 195.534 1693.98 170.126C1715.43 159.037 1748.46 144.275 1771.59 136.581C1792.38 129.663 1811.91 128.581 1831.19 132.459C1865.1 139.275 1894.15 161.802 1934.01 152.678C1934.39 152.59 1934.74 152.478 1935.12 152.387V-7.35156H1656.46C1659.81 31.4757 1598.81 68.8853 1585.75 75.8574Z" fill="url(#paint1_radial_314_530)"/>
<path fill-rule="evenodd" clip-rule="evenodd" d="M1588.21 77.9317C1557.89 94.1176 1530.29 126.836 1558.56 166.419C1590.93 211.741 1527.5 259.942 1569.7 282.085C1612.11 304.34 1647.28 197.608 1696.44 172.2C1717.89 161.112 1750.92 146.35 1774.05 138.655C1794.84 131.737 1814.37 130.655 1833.65 134.533C1867.56 141.349 1896.61 163.876 1936.47 154.752C1936.85 154.665 1937.2 154.553 1937.58 154.461V-5.27734H1658.92C1662.27 33.5499 1601.27 70.9595 1588.21 77.9317Z" fill="url(#paint2_radial_314_530)"/>
<path fill-rule="evenodd" clip-rule="evenodd" d="M1714.74 17.9194C1704 37.9038 1686.59 69.8296 1698.77 91.8378C1704.63 102.409 1719.29 105.384 1731.94 105.902C1758.61 106.996 1778.89 90.829 1803.2 84.054C1832.66 75.8427 1864.45 78.9811 1894.01 71.4631C1911.43 67.0316 1927.47 59.5903 1942.49 50.9369V-1.12891H1725.69C1721.86 5.14788 1718.19 11.4911 1714.74 17.9194Z" fill="#8892A3"/>
<path fill-rule="evenodd" clip-rule="evenodd" d="M1707.33 9.61667C1696.59 29.6011 1679.18 61.5268 1691.37 83.535C1697.22 94.1064 1711.88 97.0808 1724.54 97.5997C1751.2 98.6936 1771.49 82.5263 1795.79 75.7513C1825.25 67.54 1857.05 70.6784 1886.6 63.1604C1904.02 58.7288 1920.07 51.2876 1935.09 42.6342V-9.43164H1718.29C1714.46 -3.15485 1710.79 3.18836 1707.33 9.61667Z" fill="url(#paint3_radial_314_530)"/>
<path fill-rule="evenodd" clip-rule="evenodd" d="M1709.82 13.769C1699.08 33.7535 1681.67 65.6792 1693.86 87.6874C1699.71 98.2587 1714.37 101.233 1727.03 101.752C1753.69 102.846 1773.98 86.6786 1798.28 79.9036C1827.74 71.6923 1859.53 74.8307 1889.09 67.3127C1906.51 62.8812 1922.56 55.4399 1937.58 46.7865V-5.2793H1720.78C1716.95 0.997494 1713.27 7.3407 1709.82 13.769Z" fill="url(#paint4_radial_314_530)"/>
<path fill-rule="evenodd" clip-rule="evenodd" d="M1842.44 268.185C1771.16 357.439 1790.38 436.563 1662.55 480.154C1598.69 503.034 1572.13 555.012 1568.39 602.001C1564.12 655.806 1580.82 751.932 1519.58 768.018C1418.88 794.475 1425.58 685.887 1355.35 658.135C1282.03 629.167 1257.85 698.868 1167.13 696.636C901.57 690.104 1003.07 852.402 917.039 888.222C853.815 914.547 835.869 870.803 730.132 876.895C626.057 882.892 579.235 996.05 490.469 978.06C400.516 958.585 334.37 1030.48 306.244 1094.3H1955.52V221.971C1948.94 222.108 1942.38 222.301 1935.85 222.521C1894.06 224.596 1864.57 241.202 1842.44 268.185Z" fill="url(#paint5_radial_314_530)"/>
<path fill-rule="evenodd" clip-rule="evenodd" d="M1847.36 272.336C1776.08 361.589 1795.3 440.713 1667.47 484.304C1603.61 507.184 1577.05 559.163 1573.31 606.151C1569.04 659.957 1585.74 756.082 1524.5 772.169C1423.8 798.625 1430.5 690.037 1360.27 662.285C1286.95 633.318 1262.77 703.018 1172.05 700.787C906.489 694.255 1007.99 856.553 921.958 892.372C858.735 918.698 840.788 874.953 735.052 881.045C630.977 887.042 584.154 1000.2 495.389 982.211C405.436 962.735 339.29 1034.63 311.164 1098.45H1960.44V226.121C1953.86 226.258 1947.3 226.451 1940.77 226.671C1898.98 228.747 1869.49 245.352 1847.36 272.336Z" fill="#AAB5CA"/>
<path fill-rule="evenodd" clip-rule="evenodd" d="M1896.45 542.115C1877.45 590.603 1863.1 666.29 1798.91 658.132C1672.26 642.04 1567.17 674.866 1624.71 818.898C1701.91 1012.18 1478.09 1020.03 1433.05 900.739C1409.37 838.019 1317.9 744.486 1205.39 746.921C1052.23 750.236 1057.05 892.705 1009.15 969.695C964.396 1041.64 888.511 979.28 812.456 952.151C771.577 937.57 727.046 963.329 704.244 983.548C508.862 1156.81 547.956 967.956 444.609 1042.68C416.881 1061.36 406.798 1090.42 404.278 1119.48C403.199 1134.58 401.894 1150.74 401.294 1167.22L2057.78 1152.35V368.812C2045.98 369.429 2034.19 370.479 2022.49 371.907C1924.18 384.361 1921.65 477.756 1896.45 542.115Z" fill="url(#paint6_radial_314_530)"/>
<path fill-rule="evenodd" clip-rule="evenodd" d="M1901.36 546.268C1882.36 594.755 1868.02 670.442 1803.83 662.285C1677.18 646.192 1572.09 679.019 1629.63 823.051C1706.83 1016.33 1483 1024.18 1437.97 904.892C1414.29 842.172 1322.82 748.638 1210.3 751.073C1057.14 754.388 1061.96 896.857 1014.07 973.847C969.312 1045.79 893.427 983.433 817.372 956.304C776.493 941.722 731.962 967.481 709.16 987.7C513.778 1160.96 552.872 972.108 449.525 1046.83C421.797 1065.51 411.714 1094.57 409.194 1123.63C408.115 1138.74 406.81 1154.89 406.21 1171.37L2062.69 1156.51V372.965C2050.9 373.581 2039.11 374.632 2027.4 376.06C1929.1 388.514 1926.57 481.908 1901.36 546.268Z" fill="#BFCCE3"/>
<path fill-rule="evenodd" clip-rule="evenodd" d="M1916.76 695.547C1898.23 744.035 1832.81 717.551 1771.01 729.385C1676.64 747.449 1743.35 899.038 1728.35 952.155C1676.81 1134.62 1500.49 1104.59 1407.55 1007.4C1354.73 952.155 1306.63 838.456 1196.91 840.891C1047.55 844.204 1110.36 985.207 1033.71 1042.6C946.338 1108.04 843.861 990.932 766.739 1035.53C542.142 1165.4 592.288 1039 491.505 1113.73C464.465 1132.41 464.099 1243.85 461.641 1272.91C460.589 1288.01 459.318 1304.17 458.73 1320.65L2074.08 1305.79V522.244C2062.58 522.861 2051.09 523.911 2039.67 525.339C1943.81 537.793 1941.34 631.187 1916.76 695.547Z" fill="url(#paint7_radial_314_530)"/>
<path fill-rule="evenodd" clip-rule="evenodd" d="M1921.68 699.697C1903.15 748.185 1837.73 721.702 1775.93 733.535C1681.56 751.599 1748.27 903.189 1733.26 956.305C1681.73 1138.77 1505.41 1108.74 1412.47 1011.55C1359.65 956.305 1311.55 842.607 1201.83 845.041C1052.47 848.354 1115.27 989.358 1038.63 1046.75C951.256 1112.19 848.779 995.082 771.657 1039.68C547.06 1169.55 597.206 1043.15 496.423 1117.88C469.383 1136.56 469.017 1248 466.559 1277.06C465.507 1292.17 464.236 1308.32 463.648 1324.8L2079 1309.94V526.395C2067.5 527.011 2056.01 528.061 2044.59 529.489C1948.72 541.943 1946.26 635.338 1921.68 699.697Z" fill="url(#paint8_radial_314_530)"/>
<path fill-rule="evenodd" clip-rule="evenodd" d="M1879.8 865.306C1878.26 836.809 1892.66 802.503 1855.31 787.546C1834.34 779.147 1798.78 777.497 1785.65 797.322C1764.9 828.654 1784.05 857.709 1792.7 894.043C1798.61 918.872 1797.02 950.317 1818.24 970.459C1822.31 974.317 1828.03 977.248 1834.15 977.196C1837.84 977.165 1841.42 976.063 1844.7 974.62C1872.01 962.611 1884.5 939.969 1885.56 914.754C1886.25 898.11 1880.94 882.621 1879.85 866.163C1879.83 865.879 1879.82 865.592 1879.8 865.306Z" fill="#8892A3"/>
<path fill-rule="evenodd" clip-rule="evenodd" d="M1874.91 856.562C1873.37 828.065 1887.76 793.759 1850.42 778.801C1829.45 770.403 1793.88 768.753 1780.75 788.578C1760.01 819.91 1779.15 848.965 1787.8 885.299C1793.71 910.128 1792.13 941.572 1813.34 961.715C1817.41 965.573 1823.14 968.504 1829.25 968.452C1832.95 968.421 1836.52 967.319 1839.8 965.876C1867.11 953.867 1879.6 931.225 1880.66 906.01C1881.36 889.366 1876.04 873.877 1874.96 857.419C1874.94 857.135 1874.92 856.848 1874.91 856.562Z" fill="white"/>
<path fill-rule="evenodd" clip-rule="evenodd" d="M1878.03 859.345C1876.49 830.848 1890.89 796.544 1853.54 781.585C1832.57 773.186 1797.01 771.536 1783.88 791.361C1763.13 822.693 1782.28 851.748 1790.93 888.082C1796.84 912.911 1795.25 944.356 1816.47 964.498C1820.53 968.356 1826.26 971.287 1832.38 971.235C1836.07 971.204 1839.65 970.102 1842.93 968.66C1870.24 956.65 1882.73 934.009 1883.78 908.793C1884.48 892.149 1879.17 876.66 1878.08 860.202C1878.06 859.916 1878.05 859.631 1878.03 859.345Z" fill="url(#paint9_radial_314_530)"/>
<path fill-rule="evenodd" clip-rule="evenodd" d="M1194.72 914.406C1156.56 929.32 1133 986.695 1150.03 1018.8C1161.69 1040.77 1193.75 1047.09 1222.26 1047.45C1265.93 1048 1314.46 1053.27 1331.04 1026.51C1350.48 995.141 1278.45 931.076 1251.68 919.172C1228.83 909.008 1209.97 908.447 1194.72 914.406Z" fill="#8892A3"/>
<path fill-rule="evenodd" clip-rule="evenodd" d="M1184.88 905.639C1146.72 920.552 1123.17 977.928 1140.2 1010.04C1151.85 1032 1183.92 1038.32 1212.42 1038.68C1256.09 1039.23 1304.63 1044.5 1321.21 1017.74C1340.65 986.374 1268.61 922.308 1241.85 910.405C1218.99 900.24 1200.13 899.68 1184.88 905.639Z" fill="white"/>
<path fill-rule="evenodd" clip-rule="evenodd" d="M1189.8 909.789C1151.64 924.703 1128.09 982.078 1145.12 1014.19C1156.77 1036.16 1188.84 1042.47 1217.34 1042.83C1261.01 1043.38 1309.55 1048.65 1326.13 1021.89C1345.57 990.524 1273.53 926.459 1246.77 914.555C1223.91 904.39 1205.05 903.83 1189.8 909.789Z" fill="url(#paint10_radial_314_530)"/>
<path fill-rule="evenodd" clip-rule="evenodd" d="M-41.6094 764.747C18.5436 767.754 78.2 764.161 128.002 733.936C147.667 721.482 159.958 698.65 157.499 677.893C147.667 574.11 287.707 566.826 376.2 514.935C408.155 496.254 452.697 447.918 517.668 468.953C601.244 498.012 648.408 527.92 736.134 500.858C814.939 476.548 865.029 428.378 898.042 306.255C910.622 259.712 956.97 213.514 1011.05 230.119C1119.21 263.33 1239.32 293.929 1337.41 194.267C1384.9 146.003 1418.52 100.862 1440.65 42.7435C1460.31 -4.99669 1507.02 -42.3585 1568.47 -46.5099C1608.91 -50.6072 1648.56 -52.905 1688.01 -54.8125H-41.6094V764.747Z" fill="#5E6470"/>
<path fill-rule="evenodd" clip-rule="evenodd" d="M-46.5859 761.051C13.5646 764.059 73.2235 760.466 123.025 730.24C142.69 717.786 154.981 694.954 152.523 674.198C142.69 570.415 282.73 563.131 371.223 511.24C403.179 492.559 447.72 444.223 512.691 465.258C596.268 494.317 647.871 523.959 734.341 494.157C802.402 470.698 860.05 424.685 893.065 302.559C905.646 256.017 951.994 209.819 1006.07 226.424C1114.23 259.635 1234.35 290.234 1332.43 190.571C1379.93 142.308 1413.55 97.1666 1435.67 39.0481C1455.34 -8.69201 1502.04 -46.0539 1563.49 -50.2052C1603.94 -54.3025 1643.58 -56.6003 1683.04 -58.5078H-46.5859V761.051Z" fill="#9BA4B8"/>
<path fill-rule="evenodd" clip-rule="evenodd" d="M-4.71709 -164.215C481.285 -200.78 1050.45 -297.41 1479.11 -103.423C1476.1 -104.787 1447.9 37.5328 1358.44 134.999C1325.26 171.145 1281.32 206.265 1226.2 218.103C1159.74 232.373 1074.13 204.457 1010.08 192.439C818.804 156.551 847.132 467.543 643.881 439.604C565.904 428.886 542.181 404.017 485.405 410.89C404.208 420.72 434.664 456.108 334.483 487.861C267.59 509.064 199.76 489.449 181.998 518.992C152.301 568.401 164.582 580.257 128.809 627.443C96.086 670.607 38.0446 697.681 -6.14772 731.38C-21.28 435.015 -20.8547 135.95 -4.71709 -164.215Z" fill="#737B8A"/>
<path fill-rule="evenodd" clip-rule="evenodd" d="M-9.63505 -168.364C476.367 -204.929 1050.45 -294.344 1479.11 -100.357C1476.1 -101.719 1425.86 61.9198 1352.83 131.913C1317.02 166.226 1276.4 202.118 1221.28 213.953C1154.82 228.224 1069.21 200.308 1005.17 188.29C813.886 152.402 842.214 463.394 638.963 435.455C560.986 424.737 537.263 399.868 480.487 406.741C399.29 416.571 429.746 451.959 329.565 483.712C262.672 504.915 194.842 485.3 177.08 514.843C147.383 564.252 159.664 576.108 123.891 623.294C91.1681 666.457 33.1266 693.532 -11.0657 727.231C-26.198 430.866 -25.7727 131.801 -9.63505 -168.364Z" fill="url(#paint11_radial_314_530)"/>
<path fill-rule="evenodd" clip-rule="evenodd" d="M-47.5689 620.401C-51.411 388.625 -45.7032 153.004 -30.6004 -79.9135L-28.2283 -116.509L15.0717 -119.056C96.0131 -123.818 180.229 -130.908 269.388 -138.414C440.181 -152.794 616.791 -167.664 790.49 -167.664C1025.54 -167.664 1248.54 -137.907 1398.72 -78.9006L1436.32 -64.1261L1425.41 -30.3406C1402 42.1311 1353.64 101.198 1285.54 140.474C1232.08 171.314 1167.33 189.001 1107.9 189.001C1089.94 189.001 1073.36 187.348 1058.6 184.089C1025.38 176.692 992.868 170.068 959.204 170.068C916.703 170.068 859.669 162.225 807.753 202.984C793.086 214.502 778.455 230.505 764.266 248.742C740.012 279.91 712.535 315.221 661.703 326.887C645.209 330.855 629.072 332.866 613.728 332.869C544.01 332.871 503.665 293.674 471.247 262.18C439.768 231.597 420.221 214.191 386.623 213.805C333.68 215.33 312.963 247.254 281.482 314.352C264.009 351.593 245.94 390.105 210.884 413.396C191.861 426.037 169.369 432.18 142.125 432.183C131.346 432.183 121.297 431.251 112.431 430.427C112.365 430.42 112.301 430.414 112.234 430.408C102.045 429.474 93.0068 435.925 92.3062 444.56C91.4852 454.668 91.6425 470.148 95.3961 492.074C97.4216 503.905 99.3685 516.158 100.339 528.273C103.899 574.579 78.4989 620.85 32.4064 652.163L-46.1555 705.534L-47.5689 620.401Z" fill="#737B8A"/>
<path fill-rule="evenodd" clip-rule="evenodd" d="M-52.4889 616.251C-56.3309 384.475 -50.6231 148.854 -35.5204 -84.0639L-33.1483 -120.66L10.1518 -123.207C91.0932 -127.968 175.309 -135.059 264.468 -142.564C435.261 -156.944 611.871 -171.814 785.57 -171.814C1020.62 -171.814 1243.62 -142.058 1393.8 -83.051L1431.4 -68.2764L1420.49 -34.4909C1397.08 37.9807 1348.72 97.0477 1280.62 136.323C1227.16 167.163 1162.41 184.85 1102.98 184.85C1085.02 184.85 1068.44 183.198 1053.68 179.939C1020.46 172.541 987.948 165.918 954.284 165.918C911.783 165.918 850.475 156.416 802.833 198.834C789.051 211.105 773.535 226.355 759.347 244.592C735.092 275.76 707.615 311.071 656.783 322.736C640.289 326.705 624.152 328.716 608.808 328.718C539.09 328.72 498.745 289.524 466.327 258.03C434.848 227.447 415.301 210.04 381.704 209.654C328.76 211.18 308.043 243.103 276.562 310.201C259.089 347.443 241.02 385.954 205.964 409.245C186.941 421.886 164.449 428.03 137.205 428.032C126.426 428.032 116.378 427.1 107.511 426.276C107.169 426.245 106.818 426.214 106.457 426.181C96.1987 425.29 87.1036 431.777 86.5088 440.47C85.8598 449.939 86.4252 464.844 90.4737 487.923C92.5484 499.748 94.4461 512.007 95.417 524.123C98.9764 570.429 73.5765 616.699 27.4841 648.013L-51.0779 701.384L-52.4889 616.251Z" fill="#BFCCE3"/>
<path fill-rule="evenodd" clip-rule="evenodd" d="M389.483 199.149C378.34 196.2 370.007 197.74 362.886 201.541C369.299 200.048 376.231 199.176 383.851 198.956C385.859 198.979 387.814 199.071 389.726 199.216C389.645 199.193 389.561 199.17 389.483 199.149Z" fill="#BFCCE3"/>
<path fill-rule="evenodd" clip-rule="evenodd" d="M785.048 173.795C732.156 207.946 713.216 277.715 655.588 290.744C525.594 322.256 517.546 176.614 393.15 176.138C248.855 179.445 255.281 339.617 187.542 384.624C148.443 410.605 93.2381 373.384 64.7164 405.532C34.5551 437.682 54.8519 491.308 58.3474 534.926C61.2701 572.956 36.9346 604.452 8.64881 623.669C4.80921 392.21 10.4211 159.471 25.5485 -73.794C443.497 -98.3739 967.463 -186.558 1344.38 -38.4621C1291.2 126.173 1111.89 163.172 1037.45 146.728C963.769 130.318 879.745 113.443 785.048 173.795Z" fill="#8892A3"/>
<path fill-rule="evenodd" clip-rule="evenodd" d="M780.132 169.644C727.24 203.795 708.3 273.564 650.672 286.593C520.678 318.106 512.63 172.463 388.234 171.988C243.939 175.294 250.365 335.467 182.626 380.473C143.527 406.454 88.3221 369.233 59.8004 401.381C29.6391 433.531 49.9359 487.158 53.4313 530.776C56.3541 568.806 32.0185 600.302 3.7328 619.519C-0.106807 388.06 5.50511 155.32 20.6325 -77.9444C438.581 -102.524 962.547 -190.709 1339.47 -42.6125C1286.29 122.023 1106.97 159.021 1032.53 142.578C958.853 126.168 874.829 109.293 780.132 169.644Z" fill="url(#paint12_radial_314_530)"/>
<path fill-rule="evenodd" clip-rule="evenodd" d="M390.64 384.178C382.518 402.064 365.412 417.15 343.692 422.497C336.539 424.257 328.486 424.626 321.93 421.633C266.927 396.524 372.632 287.658 393.029 344.996C397.604 357.846 396.311 371.693 390.64 384.178Z" fill="url(#paint13_radial_314_530)"/>
<path fill-rule="evenodd" clip-rule="evenodd" d="M385.722 380.024C377.6 397.91 360.494 412.996 338.774 418.343C331.621 420.103 323.568 420.472 317.012 417.479C262.009 392.37 367.714 283.504 388.111 340.842C392.686 353.692 391.393 367.539 385.722 380.024Z" fill="url(#paint14_radial_314_530)"/>
<path fill-rule="evenodd" clip-rule="evenodd" d="M386.407 336.856C364.66 293.301 280.781 375.362 306.051 409.017C289.942 374.611 362.504 304.051 386.407 336.856Z" fill="#5E6470"/>
<path fill-rule="evenodd" clip-rule="evenodd" d="M-155.082 193.24C-155.082 395.905 119.45 439.797 166.995 276.383C207.237 138.067 364.747 74.6908 531.194 175.537C731.618 296.965 708.991 85.8953 958.641 109.751C1208.29 133.606 1334.98 17.3176 1208.29 -63.1889C1081.6 -143.695 -155.082 -108.1 -155.082 -108.1C-155.082 -108.1 -155.082 -9.42523 -155.082 193.24Z" fill="#8892A3"/>
<path fill-rule="evenodd" clip-rule="evenodd" d="M-160 189.306C-160 391.969 114.532 435.863 162.077 272.451C202.319 134.135 359.829 70.7592 526.276 171.605C726.7 293.033 704.073 81.9636 953.724 105.819C1203.37 129.673 1330.06 13.3859 1203.37 -67.1206C1076.68 -147.627 -160 -112.032 -160 -112.032C-160 -112.032 -160 -13.3569 -160 189.306Z" fill="url(#paint15_radial_314_530)"/>
<path fill-rule="evenodd" clip-rule="evenodd" d="M728.912 354.223C737.604 338.471 744.912 318.295 724.686 320.537C696.4 323.673 678.304 346.744 645.47 348.793C621.422 350.291 595.843 347.909 571.304 342.817C554.495 339.33 525.617 342.773 526.283 362.087C526.76 375.886 560.78 391.385 575.212 397.164C598.348 406.426 624.947 414.579 650.824 411.525C680.4 408.034 703.849 389.897 718.688 370.309C720.768 367.565 724.984 361.342 728.912 354.223Z" fill="url(#paint16_radial_314_530)"/>
<path fill-rule="evenodd" clip-rule="evenodd" d="M734.405 358.946C743.019 343.217 750.255 323.085 730.2 325.397C702.155 328.631 684.225 351.686 651.682 353.85C627.85 355.434 602.502 353.157 578.189 348.18C561.537 344.769 532.934 348.308 533.605 367.539C534.085 381.276 567.788 396.588 582.09 402.29C605.017 411.431 631.378 419.456 657.021 416.324C686.337 412.741 709.576 394.585 724.28 375.016C726.335 372.27 730.512 366.053 734.405 358.946Z" fill="#8892A3"/>
<path fill-rule="evenodd" clip-rule="evenodd" d="M730.761 355.964C739.426 340.218 746.712 320.057 726.543 322.326C698.338 325.5 680.298 348.569 647.563 350.659C623.589 352.191 598.086 349.845 573.622 344.795C556.865 341.335 528.081 344.816 528.747 364.103C529.224 377.881 563.138 393.314 577.526 399.063C600.593 408.281 627.111 416.389 652.909 413.304C682.4 409.778 705.777 391.632 720.57 372.049C722.642 369.302 726.845 363.08 730.761 355.964Z" fill="url(#paint17_radial_314_530)"/>
<path fill-rule="evenodd" clip-rule="evenodd" d="M-57.3828 831.958C-57.3828 831.958 23.2243 910.617 167.836 831.958C251.199 786.613 218.575 727.438 287.039 711.752C338.136 700.046 361.955 782.207 481.939 758.706C662.479 723.345 659.925 907.292 499.937 928.283C393.031 942.31 252.386 966.432 255.154 1108.15C257.919 1249.88 11.7743 1151.79 11.7743 1151.79L-57.3828 831.958Z" fill="#5E6470"/>
<path fill-rule="evenodd" clip-rule="evenodd" d="M-67.2148 823.655C-67.2148 823.655 37.0788 846.813 131.139 808.827C204.802 779.078 208.743 719.133 277.206 703.45C328.304 691.743 352.123 773.904 472.107 750.403C652.647 715.042 650.093 898.989 490.105 919.98C383.199 934.008 242.554 958.129 245.322 1099.85C248.087 1241.57 1.94227 1143.49 1.94227 1143.49L-67.2148 823.655Z" fill="url(#paint18_radial_314_530)"/>
<path fill-rule="evenodd" clip-rule="evenodd" d="M-62.2988 827.806C-62.2988 827.806 41.9948 850.964 136.055 812.977C209.718 783.229 213.659 723.284 282.122 707.6C333.22 695.893 357.039 778.054 477.023 754.554C657.563 719.193 655.009 903.14 495.021 924.131C388.115 938.158 247.47 962.279 250.238 1104C253.003 1245.72 6.85828 1147.64 6.85828 1147.64L-62.2988 827.806Z" fill="url(#paint19_radial_314_530)"/>
<path fill-rule="evenodd" clip-rule="evenodd" d="M-17.7979 893.476C-17.7979 893.476 19.3445 896.839 86.5819 893.52C261.943 884.86 250.372 802.651 306.246 787.14C326.508 781.517 369.518 788.213 395.8 793.73C436.136 802.199 496.611 812.394 510.096 848.324C522.114 880.339 484.949 903.74 443.675 906.31C307.035 914.816 201.337 988.603 203.294 1088.86C205.251 1189.12 31.1239 1119.73 31.1239 1119.73L-17.7979 893.476Z" fill="#8892A3"/>
<path fill-rule="evenodd" clip-rule="evenodd" d="M-28.6484 861.889C-28.6484 861.889 10.5612 883.175 76.7563 872.691C237.471 847.237 245.453 798.501 301.324 782.99C321.586 777.367 364.596 784.063 390.879 789.58C431.214 798.048 491.689 808.244 505.174 844.174C517.192 876.189 480.028 899.59 438.753 902.159C302.113 910.665 196.416 984.453 198.372 1084.71C200.329 1184.97 26.2023 1115.58 26.2023 1115.58L-28.6484 861.889Z" fill="url(#paint20_radial_314_530)"/>
<path fill-rule="evenodd" clip-rule="evenodd" d="M144.552 1040.92C153.375 1001.19 182.445 967.294 222.824 946.064C255.837 928.708 307.126 927.715 330.867 898.023C352.075 871.496 335.119 844.054 296.556 846.418C258.772 848.739 239.333 879.67 208.506 894.654C138.619 928.629 108.032 947.727 34.9541 953.661L66.7328 1100.63C66.7328 1100.63 104.854 1115.82 145.221 1121.71C134.403 1096.33 138.692 1067.32 144.552 1040.92Z" fill="#8892A3"/>
<path fill-rule="evenodd" clip-rule="evenodd" d="M141.077 1038.9C149.899 999.168 178.969 965.273 219.349 944.043C252.361 926.686 303.653 925.694 327.391 896.002C348.6 869.475 331.644 842.032 293.08 844.397C255.296 846.717 231.62 869.396 199.512 882.325C128.577 910.89 63.1736 921.262 -8.55469 911.783L63.2572 1098.61C63.2572 1098.61 101.378 1113.8 141.745 1119.7C130.925 1094.31 135.214 1065.29 141.077 1038.9Z" fill="#D6E5FF"/>
</g>
</g>
<g opacity="0.1">
<mask id="mask0_314_530" style="mask-type:luminance" maskUnits="userSpaceOnUse" x="-15" y="-99" width="1950" height="1219">
<path d="M1913.47 1119.88H6.52878C-5.36132 1119.88 -15 1110.24 -15 1098.35V-77.3462C-15 -89.2363 -5.36132 -98.875 6.52878 -98.875H1913.47C1925.36 -98.875 1935 -89.2363 1935 -77.3462V1098.35C1935 1110.24 1925.36 1119.88 1913.47 1119.88Z" fill="white"/>
</mask>
<g mask="url(#mask0_314_530)">
<path d="M970.274 339.785C970.274 339.785 1147.29 481.782 1110.87 615.796C1064.06 788.002 947.569 805.367 865.05 939.71C764.167 1103.95 875.099 1268.23 875.099 1268.23H1638.18V339.785H970.274Z" fill="url(#paint21_linear_314_530)"/>
<path d="M1133.27 456.361C1133.27 456.361 1204.73 572.857 1135.11 732.307C1033.11 965.942 1324.46 936.294 1307.99 1204.32H2028.24V472.09L1133.27 456.361Z" fill="url(#paint22_linear_314_530)"/>
<path d="M553.662 -171.172C553.662 -171.172 485.521 136.318 731.453 259.38C977.384 382.441 1102.24 379.964 1177.46 621.061C1252.68 862.155 1383.86 983.28 1610.81 978.489C1935 971.646 1973.5 1065.17 2039.65 1168.52V-171.172H553.662Z" fill="url(#paint23_linear_314_530)"/>
<path d="M599.148 -115.281C599.148 -115.281 842.654 -91.33 893.978 131.075C929.946 286.939 1019.81 412.69 1284.04 462.971C1533.82 510.501 1542.61 645.271 1620.05 752.576C1697.49 859.878 1772.84 969.031 2094.43 990.871V-106.727L599.148 -115.281Z" fill="url(#paint24_linear_314_530)"/>
<path d="M1277.2 95.1484C1277.2 95.1484 1349.05 598.125 1958.1 618.655V124.232L1277.2 95.1484Z" fill="url(#paint25_linear_314_530)"/>
<path d="M1140.06 -216.793C1140.06 -216.793 1039.29 31.8452 1239.46 206.347C1457.68 396.596 1858.87 235.431 2028.24 550.476V-216.793H1140.06Z" fill="url(#paint26_linear_314_530)"/>
<path d="M1230.93 -142.032C1230.93 -142.032 1444.8 -135.172 1528.69 64.3524C1612.57 263.877 1839.82 291.02 2038.51 181.85V-152.92L1230.93 -142.032Z" fill="url(#paint27_linear_314_530)"/>
</g>
</g>
</g>
<defs>
<radialGradient id="paint0_radial_314_530" cx="0" cy="0" r="1" gradientUnits="userSpaceOnUse" gradientTransform="translate(1706.29 191.854) scale(232.427 196.262)">
<stop stop-color="#E7EEFF"/>
<stop offset="1" stop-color="#DCE5F2"/>
</radialGradient>
<radialGradient id="paint1_radial_314_530" cx="0" cy="0" r="1" gradientTransform="matrix(1676.61 -276.755 0 1377.58 455.492 368.419)" gradientUnits="userSpaceOnUse">
<stop stop-color="#E7EEFF"/>
<stop offset="1" stop-color="#DCE5F2"/>
</radialGradient>
<radialGradient id="paint2_radial_314_530" cx="0" cy="0" r="1" gradientTransform="matrix(1676.61 -276.755 0 1377.58 457.952 370.493)" gradientUnits="userSpaceOnUse">
<stop stop-color="#D6E5FF"/>
<stop offset="1" stop-color="#BFCCE3"/>
</radialGradient>
<radialGradient id="paint3_radial_314_530" cx="0" cy="0" r="1" gradientTransform="matrix(1676.61 -276.755 0 1377.58 455.461 366.339)" gradientUnits="userSpaceOnUse">
<stop stop-color="#F7FBFF"/>
<stop offset="1" stop-color="#F7FBFF"/>
</radialGradient>
<radialGradient id="paint4_radial_314_530" cx="0" cy="0" r="1" gradientTransform="matrix(1676.61 -276.755 0 1377.58 457.948 370.491)" gradientUnits="userSpaceOnUse">
<stop stop-color="#E7EEFF"/>
<stop offset="1" stop-color="#DCE5F2"/>
</radialGradient>
<radialGradient id="paint5_radial_314_530" cx="0" cy="0" r="1" gradientUnits="userSpaceOnUse" gradientTransform="translate(1130.88 658.134) scale(688.052 580.994)">
<stop stop-color="#E7EEFF"/>
<stop offset="1" stop-color="#DCE5F2"/>
</radialGradient>
<radialGradient id="paint6_radial_314_530" cx="0" cy="0" r="1" gradientUnits="userSpaceOnUse" gradientTransform="translate(1229.53 768.016) scale(674.347 569.422)">
<stop stop-color="#E7EEFF"/>
<stop offset="1" stop-color="#DCE5F2"/>
</radialGradient>
<radialGradient id="paint7_radial_314_530" cx="0" cy="0" r="1" gradientUnits="userSpaceOnUse" gradientTransform="translate(1266.41 921.448) scale(661.758 558.791)">
<stop stop-color="#F7FBFF"/>
<stop offset="1" stop-color="#F7FBFF"/>
</radialGradient>
<radialGradient id="paint8_radial_314_530" cx="0" cy="0" r="1" gradientUnits="userSpaceOnUse" gradientTransform="translate(1271.32 925.598) scale(661.758 558.791)">
<stop stop-color="#E7EEFF"/>
<stop offset="1" stop-color="#DCE5F2"/>
</radialGradient>
<radialGradient id="paint9_radial_314_530" cx="0" cy="0" r="1" gradientUnits="userSpaceOnUse" gradientTransform="translate(1829.2 873.449) scale(90.5446 76.4562)">
<stop stop-color="#E7EEFF"/>
<stop offset="1" stop-color="#DCE5F2"/>
</radialGradient>
<radialGradient id="paint10_radial_314_530" cx="0" cy="0" r="1" gradientUnits="userSpaceOnUse" gradientTransform="translate(1129.58 842.882) scale(183.225 154.716)">
<stop stop-color="#E7EEFF"/>
<stop offset="1" stop-color="#DCE5F2"/>
</radialGradient>
<radialGradient id="paint11_radial_314_530" cx="0" cy="0" r="1" gradientUnits="userSpaceOnUse" gradientTransform="translate(728.513 253.115) scale(662.818 559.687)">
<stop stop-color="#AAB5CA"/>
<stop offset="1" stop-color="#AAB5CA"/>
</radialGradient>
<radialGradient id="paint12_radial_314_530" cx="0" cy="0" r="1" gradientUnits="userSpaceOnUse" gradientTransform="translate(244.103 -242.829) scale(966.361 816)">
<stop stop-color="#D6E5FF"/>
<stop offset="1" stop-color="#BFCCE3"/>
</radialGradient>
<radialGradient id="paint13_radial_314_530" cx="0" cy="0" r="1" gradientUnits="userSpaceOnUse" gradientTransform="translate(300.597 132.791) scale(483.086 407.92)">
<stop stop-color="#E7EEFF"/>
<stop offset="1" stop-color="#DCE5F2"/>
</radialGradient>
<radialGradient id="paint14_radial_314_530" cx="0" cy="0" r="1" gradientUnits="userSpaceOnUse" gradientTransform="translate(295.679 128.636) scale(483.086 407.92)">
<stop stop-color="#8C96A7"/>
<stop offset="1" stop-color="#737B8A"/>
</radialGradient>
<radialGradient id="paint15_radial_314_530" cx="0" cy="0" r="1" gradientUnits="userSpaceOnUse" gradientTransform="translate(332.62 99.4284) scale(1045.82 836.907)">
<stop stop-color="#E7EEFF"/>
<stop offset="1" stop-color="#DCE5F2"/>
</radialGradient>
<radialGradient id="paint16_radial_314_530" cx="0" cy="0" r="1" gradientTransform="matrix(82.1707 -6.72708 0.299717 72.4141 632.075 370.612)" gradientUnits="userSpaceOnUse">
<stop stop-color="#F7FBFF"/>
<stop offset="1" stop-color="#F7FBFF"/>
</radialGradient>
<radialGradient id="paint17_radial_314_530" cx="0" cy="0" r="1" gradientTransform="matrix(159.901 -13.0907 0.583237 140.915 691.494 276.988)" gradientUnits="userSpaceOnUse">
<stop stop-color="#D6E5FF"/>
<stop offset="1" stop-color="#BFCCE3"/>
</radialGradient>
<radialGradient id="paint18_radial_314_530" cx="0" cy="0" r="1" gradientUnits="userSpaceOnUse" gradientTransform="translate(270.828 939.426) scale(310.75 262.399)">
<stop stop-color="#E7EEFF"/>
<stop offset="1" stop-color="#DCE5F2"/>
</radialGradient>
<radialGradient id="paint19_radial_314_530" cx="0" cy="0" r="1" gradientUnits="userSpaceOnUse" gradientTransform="translate(275.744 943.576) scale(310.75 262.399)">
<stop stop-color="#AAB5CA"/>
<stop offset="1" stop-color="#AAB5CA"/>
</radialGradient>
<radialGradient id="paint20_radial_314_530" cx="0" cy="0" r="1" gradientUnits="userSpaceOnUse" gradientTransform="translate(239.411 959.915) scale(241.68 204.076)">
<stop stop-color="#D6E5FF"/>
<stop offset="1" stop-color="#BFCCE3"/>
</radialGradient>
<linearGradient id="paint21_linear_314_530" x1="1512.36" y1="603.024" x2="848.566" y2="1244.01" gradientUnits="userSpaceOnUse">
<stop stop-color="#131351"/>
<stop offset="1" stop-color="#01D6C0"/>
</linearGradient>
<linearGradient id="paint22_linear_314_530" x1="1658.84" y1="688.909" x2="1350.9" y2="1246.63" gradientUnits="userSpaceOnUse">
<stop stop-color="#131351"/>
<stop offset="1" stop-color="#01D6C0"/>
</linearGradient>
<linearGradient id="paint23_linear_314_530" x1="1492.38" y1="187.246" x2="1076.55" y2="848.893" gradientUnits="userSpaceOnUse">
<stop stop-color="#131351"/>
<stop offset="1" stop-color="#01D6C0"/>
</linearGradient>
<linearGradient id="paint24_linear_314_530" x1="1558.82" y1="116.169" x2="1254.3" y2="578.087" gradientUnits="userSpaceOnUse">
<stop stop-color="#131351"/>
<stop offset="1" stop-color="#01D6C0"/>
</linearGradient>
<linearGradient id="paint25_linear_314_530" x1="1733.12" y1="110.906" x2="1497.03" y2="613.885" gradientUnits="userSpaceOnUse">
<stop stop-color="#131351"/>
<stop offset="1" stop-color="#01D6C0"/>
</linearGradient>
<linearGradient id="paint26_linear_314_530" x1="1734.99" y1="-105.543" x2="1454.82" y2="400.377" gradientUnits="userSpaceOnUse">
<stop stop-color="#131351"/>
<stop offset="1" stop-color="#01D6C0"/>
</linearGradient>
<linearGradient id="paint27_linear_314_530" x1="1782.09" y1="-255.659" x2="1501.52" y2="268.988" gradientUnits="userSpaceOnUse">
<stop stop-color="#131351"/>
<stop offset="1" stop-color="#01D6C0"/>
</linearGradient>
<clipPath id="clip0_314_530">
<rect width="1920" height="1080" fill="white"/>
</clipPath>
</defs>
</svg>
