<svg width="873" height="890" viewBox="0 0 873 890" fill="none" xmlns="http://www.w3.org/2000/svg">
<g opacity="0.29">
<g clip-path="url(#clip0_335_585)">
<path d="M-38.8755 60.3356C-40.0037 60.3356 -40.906 60.3356 -41.8086 60.3356V81.5453C-40.906 81.5453 -40.0037 81.771 -38.8755 81.771C5.57493 81.771 21.3697 42.059 21.3697 5.05469H14.8261C14.8261 31.6798 0.610927 60.3356 -38.8755 60.3356Z" fill="url(#paint0_linear_335_585)"/>
<path d="M370.882 60.3356C369.98 60.3356 369.077 60.3356 367.949 60.3356V81.5453C369.077 81.5453 369.98 81.771 370.882 81.771C415.558 81.771 431.353 42.059 431.353 5.05469H424.81C424.81 31.6798 410.594 60.3356 370.882 60.3356Z" fill="url(#paint1_linear_335_585)"/>
<path d="M269.572 60.3356C268.67 60.3356 267.767 60.3356 266.639 60.3356V81.5453C267.767 81.5453 268.67 81.771 269.572 81.771C314.022 81.771 330.043 42.059 330.043 5.05469H323.499C323.499 31.6798 309.284 60.3356 269.572 60.3356Z" fill="url(#paint2_linear_335_585)"/>
<path d="M201.882 77.2566C201.882 78.3848 201.882 79.2873 201.656 80.1899H223.091C223.091 79.2873 223.091 78.3848 223.091 77.2566C223.091 32.8063 183.605 17.0117 146.375 17.0117V23.5552C173.226 23.5552 201.882 37.7703 201.882 77.2566Z" fill="url(#paint3_linear_335_585)"/>
<path d="M77.1034 19.945C77.1034 18.8168 77.1034 17.9143 77.1034 17.0117H55.668C55.668 17.9143 55.668 18.8168 55.668 19.945C55.668 64.3953 95.38 80.1899 132.384 80.1899V73.6464C105.534 73.6464 77.1034 59.6569 77.1034 19.945Z" fill="url(#paint4_linear_335_585)"/>
<path d="M780.865 60.3356C779.962 60.3356 779.06 60.3356 777.932 60.3356V81.5453C779.06 81.5453 779.962 81.771 780.865 81.771C825.541 81.771 841.335 42.059 841.335 5.05469H834.792C834.792 31.6798 820.577 60.3356 780.865 60.3356Z" fill="url(#paint5_linear_335_585)"/>
<path d="M679.553 60.3356C678.65 60.3356 677.747 60.3356 676.619 60.3356V81.5453C677.522 81.5453 678.65 81.771 679.553 81.771C724.003 81.771 740.023 42.059 740.023 5.05469H733.48C733.48 31.6798 719.265 60.3356 679.553 60.3356Z" fill="url(#paint6_linear_335_585)"/>
<path d="M611.862 77.2566C611.862 78.3848 611.636 79.2873 611.636 80.1899H633.072C633.072 79.2873 633.072 78.3848 633.072 77.2566C633.072 32.8063 593.586 17.0117 556.355 17.0117V23.5552C583.206 23.5552 611.862 37.7703 611.862 77.2566Z" fill="url(#paint7_linear_335_585)"/>
<path d="M487.084 19.945C487.084 18.8168 487.084 17.9143 487.084 17.0117H465.648C465.648 17.9143 465.648 18.8168 465.648 19.945C465.648 64.3953 505.36 80.1899 542.365 80.1899V73.6464C515.514 73.6464 487.084 59.6569 487.084 19.945Z" fill="url(#paint8_linear_335_585)"/>
<path d="M0.158893 181.275C0.158893 182.178 -0.0666889 183.08 -0.0666889 184.208H21.3688C21.3688 183.08 21.3688 182.178 21.3688 181.275C21.3688 136.599 -18.3433 120.805 -55.3477 120.805V127.348C-28.4969 127.348 0.158893 141.563 0.158893 181.275Z" fill="url(#paint9_linear_335_585)"/>
<path d="M-55.3477 222.113V228.657C-28.4969 228.657 0.158893 242.872 0.158893 282.584C0.158893 283.486 -0.0666889 284.614 -0.0666889 285.517H21.3688C21.3688 284.614 21.3688 283.486 21.3688 282.584C21.3688 238.133 -18.3433 222.113 -55.3477 222.113Z" fill="url(#paint10_linear_335_585)"/>
<path d="M-38.8755 464.453C-40.0037 464.453 -40.906 464.453 -41.8086 464.453V485.663C-40.906 485.888 -40.0037 485.888 -38.8755 485.888C5.57493 485.888 21.3697 446.176 21.3697 409.172H14.8261C14.8261 436.023 0.610927 464.453 -38.8755 464.453Z" fill="url(#paint11_linear_335_585)"/>
<path d="M-41.8086 395.181H-35.2654C-35.2654 368.33 -21.2758 339.675 18.4363 339.675C19.3388 339.675 20.4671 339.675 21.3697 339.9V318.465C20.4671 318.465 19.3388 318.465 18.4363 318.465C-26.0141 318.465 -41.8086 357.951 -41.8086 395.181Z" fill="url(#paint12_linear_335_585)"/>
<path d="M116.139 140.659C117.041 140.659 117.944 140.885 119.072 140.885V119.449C117.944 119.449 117.041 119.449 116.139 119.449C71.4626 119.449 55.668 158.936 55.668 196.166H62.2115C62.2115 169.315 76.4266 140.659 116.139 140.659Z" fill="url(#paint13_linear_335_585)"/>
<path d="M217.451 140.659C218.353 140.659 219.256 140.885 220.384 140.885V119.449C219.256 119.449 218.353 119.449 217.451 119.449C173.001 119.449 156.98 158.936 156.98 196.166H163.524C163.524 169.315 177.739 140.659 217.451 140.659Z" fill="url(#paint14_linear_335_585)"/>
<path d="M159.914 265.667C159.011 265.667 158.109 265.441 156.98 265.441V286.876C158.109 286.876 159.011 286.876 159.914 286.876C204.59 286.876 220.384 247.39 220.384 210.16H213.841C213.841 237.011 199.626 265.667 159.914 265.667Z" fill="url(#paint15_linear_335_585)"/>
<path d="M119.072 210.16H112.528C112.528 237.011 98.3134 265.667 58.6014 265.667C57.6988 265.667 56.5705 265.441 55.668 265.441V286.876C56.5705 286.876 57.6988 286.876 58.6014 286.876C103.052 286.876 119.072 247.39 119.072 210.16Z" fill="url(#paint16_linear_335_585)"/>
<path d="M285.139 225.047C285.139 224.144 285.365 223.241 285.365 222.113H263.93C263.93 223.241 263.93 224.144 263.93 225.047C263.93 269.723 303.416 285.517 340.646 285.517V278.974C313.795 278.974 285.139 264.759 285.139 225.047Z" fill="url(#paint17_linear_335_585)"/>
<path d="M285.139 123.738C285.139 122.835 285.365 121.707 285.365 120.805H263.93C263.93 121.707 263.93 122.835 263.93 123.738C263.93 168.188 303.416 184.208 340.646 184.208V177.665C313.795 177.665 285.139 163.45 285.139 123.738Z" fill="url(#paint18_linear_335_585)"/>
<path d="M409.916 181.275C409.916 182.178 409.916 183.08 409.916 184.208H431.351C431.351 183.08 431.351 182.178 431.351 181.275C431.351 136.599 391.639 120.805 354.635 120.805V127.348C381.486 127.348 409.916 141.563 409.916 181.275Z" fill="url(#paint19_linear_335_585)"/>
<path d="M354.635 222.113V228.657C381.486 228.657 409.916 242.872 409.916 282.584C409.916 283.486 409.916 284.614 409.916 285.517H431.351C431.351 284.614 431.351 283.486 431.351 282.584C431.351 238.133 391.639 222.113 354.635 222.113Z" fill="url(#paint20_linear_335_585)"/>
<path d="M370.882 464.453C369.98 464.453 369.077 464.453 367.949 464.453V485.663C369.077 485.888 369.98 485.888 370.882 485.888C415.558 485.888 431.353 446.176 431.353 409.172H424.81C424.81 436.023 410.594 464.453 370.882 464.453Z" fill="url(#paint21_linear_335_585)"/>
<path d="M269.572 464.453C268.67 464.453 267.767 464.453 266.639 464.453V485.663C267.767 485.888 268.67 485.888 269.572 485.888C314.022 485.888 330.043 446.176 330.043 409.172H323.499C323.499 436.023 309.284 464.453 269.572 464.453Z" fill="url(#paint22_linear_335_585)"/>
<path d="M327.109 339.675C328.012 339.675 328.914 339.675 330.043 339.9V318.465C328.914 318.465 328.012 318.465 327.109 318.465C282.659 318.465 266.639 357.951 266.639 395.181H273.182C273.182 368.33 287.397 339.675 327.109 339.675Z" fill="url(#paint23_linear_335_585)"/>
<path d="M367.949 395.181H374.718C374.718 368.33 388.708 339.675 428.42 339.675C429.322 339.675 430.451 339.675 431.353 339.9V318.465C430.451 318.465 429.322 318.465 428.42 318.465C383.969 318.465 367.949 357.951 367.949 395.181Z" fill="url(#paint24_linear_335_585)"/>
<path d="M201.882 380.061C201.882 381.189 201.882 382.092 201.656 382.995H223.091C223.091 382.092 223.091 381.189 223.091 380.061C223.091 335.611 183.605 319.816 146.375 319.816V326.36C173.226 326.36 201.882 340.575 201.882 380.061Z" fill="url(#paint25_linear_335_585)"/>
<path d="M201.882 481.6C201.882 482.502 201.882 483.405 201.656 484.533H223.091C223.091 483.405 223.091 482.502 223.091 481.6C223.091 436.924 183.605 421.129 146.375 421.129V427.672C173.226 427.672 201.882 441.888 201.882 481.6Z" fill="url(#paint26_linear_335_585)"/>
<path d="M77.1034 424.062C77.1034 423.16 77.1034 422.031 77.1034 421.129H55.668C55.668 422.031 55.668 423.16 55.668 424.062C55.668 468.513 95.38 484.533 132.384 484.533V477.989C105.534 477.989 77.1034 463.774 77.1034 424.062Z" fill="url(#paint27_linear_335_585)"/>
<path d="M132.384 382.995V376.451C105.534 376.451 77.1034 362.462 77.1034 322.75C77.1034 321.621 77.1034 320.719 77.1034 319.816H55.668C55.668 320.719 55.668 321.847 55.668 322.75C55.668 367.2 95.38 382.995 132.384 382.995Z" fill="url(#paint28_linear_335_585)"/>
<path d="M526.119 140.659C527.022 140.659 527.924 140.885 528.827 140.885V119.449C527.924 119.449 527.022 119.449 526.119 119.449C481.443 119.449 465.648 158.936 465.648 196.166H472.192C472.192 169.315 486.407 140.659 526.119 140.659Z" fill="url(#paint29_linear_335_585)"/>
<path d="M627.432 140.659C628.334 140.659 629.237 140.885 630.365 140.885V119.449C629.237 119.449 628.334 119.449 627.432 119.449C582.981 119.449 566.961 158.936 566.961 196.166H573.504C573.504 169.315 587.72 140.659 627.432 140.659Z" fill="url(#paint30_linear_335_585)"/>
<path d="M569.894 265.667C568.992 265.667 568.089 265.441 566.961 265.441V286.876C568.089 286.876 568.992 286.876 569.894 286.876C614.345 286.876 630.365 247.39 630.365 210.16H623.822C623.822 237.011 609.606 265.667 569.894 265.667Z" fill="url(#paint31_linear_335_585)"/>
<path d="M528.827 210.16H522.283C522.283 237.011 508.294 265.667 468.582 265.667C467.679 265.667 466.551 265.441 465.648 265.441V286.876C466.551 286.876 467.679 286.876 468.582 286.876C513.032 286.876 528.827 247.39 528.827 210.16Z" fill="url(#paint32_linear_335_585)"/>
<path d="M695.122 225.047C695.122 224.144 695.122 223.241 695.348 222.113H673.912C673.912 223.241 673.912 224.144 673.912 225.047C673.912 269.723 713.399 285.517 750.629 285.517V278.974C723.778 278.974 695.122 264.759 695.122 225.047Z" fill="url(#paint33_linear_335_585)"/>
<path d="M695.122 123.738C695.122 122.835 695.122 121.707 695.348 120.805H673.912C673.912 121.707 673.912 122.835 673.912 123.738C673.912 168.188 713.399 184.208 750.629 184.208V177.665C723.778 177.665 695.122 163.45 695.122 123.738Z" fill="url(#paint34_linear_335_585)"/>
<path d="M819.9 181.275C819.9 182.178 819.9 183.08 819.9 184.208H841.11C841.336 183.08 841.336 182.178 841.336 181.275C841.336 136.599 801.624 120.805 764.619 120.805V127.348C791.47 127.348 819.9 141.563 819.9 181.275Z" fill="url(#paint35_linear_335_585)"/>
<path d="M764.619 222.113V228.657C791.47 228.657 819.9 242.872 819.9 282.584C819.9 283.486 819.9 284.614 819.9 285.517H841.336C841.336 284.614 841.336 283.486 841.336 282.584C841.336 238.133 801.624 222.113 764.619 222.113Z" fill="url(#paint36_linear_335_585)"/>
<path d="M780.865 464.453C779.962 464.453 779.06 464.453 777.932 464.453V485.663C779.06 485.888 779.962 485.888 780.865 485.888C825.541 485.888 841.335 446.176 841.335 409.172H834.792C834.792 436.023 820.577 464.453 780.865 464.453Z" fill="url(#paint37_linear_335_585)"/>
<path d="M679.553 464.453C678.65 464.453 677.747 464.453 676.619 464.453V485.663C677.522 485.888 678.65 485.888 679.553 485.888C724.003 485.888 740.023 446.176 740.023 409.172H733.48C733.48 436.023 719.265 464.453 679.553 464.453Z" fill="url(#paint38_linear_335_585)"/>
<path d="M737.09 339.675C737.992 339.675 738.895 339.675 740.023 339.9V318.465C738.895 318.465 737.992 318.465 737.09 318.465C692.414 318.465 676.619 357.951 676.619 395.181H683.163C683.163 368.33 697.378 339.675 737.09 339.675Z" fill="url(#paint39_linear_335_585)"/>
<path d="M777.932 395.181H784.475C784.475 368.33 798.69 339.675 838.402 339.675C839.305 339.675 840.433 339.675 841.335 339.9V318.465C840.433 318.465 839.305 318.465 838.402 318.465C793.952 318.465 777.932 357.951 777.932 395.181Z" fill="url(#paint40_linear_335_585)"/>
<path d="M611.862 380.061C611.862 381.189 611.636 382.092 611.636 382.995H633.072C633.072 382.092 633.072 381.189 633.072 380.061C633.072 335.611 593.586 319.816 556.355 319.816V326.36C583.206 326.36 611.862 340.575 611.862 380.061Z" fill="url(#paint41_linear_335_585)"/>
<path d="M611.862 481.6C611.862 482.502 611.636 483.405 611.636 484.533H633.072C633.072 483.405 633.072 482.502 633.072 481.6C633.072 436.924 593.586 421.129 556.355 421.129V427.672C583.206 427.672 611.862 441.888 611.862 481.6Z" fill="url(#paint42_linear_335_585)"/>
<path d="M487.084 424.062C487.084 423.16 487.084 422.031 487.084 421.129H465.648C465.648 422.031 465.648 423.16 465.648 424.062C465.648 468.513 505.36 484.533 542.365 484.533V477.989C515.514 477.989 487.084 463.774 487.084 424.062Z" fill="url(#paint43_linear_335_585)"/>
<path d="M542.365 382.995V376.451C515.514 376.451 487.084 362.462 487.084 322.75C487.084 321.621 487.084 320.719 487.084 319.816H465.648C465.648 320.719 465.648 321.847 465.648 322.75C465.648 367.2 505.36 382.995 542.365 382.995Z" fill="url(#paint44_linear_335_585)"/>
<path d="M0.158893 585.389C0.158893 586.292 -0.0666889 587.42 -0.0666889 588.323H21.3688C21.3688 587.42 21.3688 586.292 21.3688 585.389C21.3688 540.939 -18.3433 525.145 -55.3477 525.145V531.688C-28.4969 531.688 0.158893 545.677 0.158893 585.389Z" fill="url(#paint45_linear_335_585)"/>
<path d="M-55.3477 626.457V633.001C-28.4969 633.001 0.158893 646.99 0.158893 686.702C0.158893 687.83 -0.0666889 688.733 -0.0666889 689.635H21.3688C21.3688 688.733 21.3688 687.83 21.3688 686.702C21.3688 642.252 -18.3433 626.457 -55.3477 626.457Z" fill="url(#paint46_linear_335_585)"/>
<path d="M-38.8755 868.788C-40.0037 868.788 -40.906 868.788 -41.8086 868.562V889.998C-40.906 889.998 -40.0037 889.998 -38.8755 889.998C5.57493 889.998 21.3697 850.511 21.3697 813.281H14.8261C14.8261 840.132 0.610927 868.788 -38.8755 868.788Z" fill="url(#paint47_linear_335_585)"/>
<path d="M-41.8086 799.294H-35.2654C-35.2654 772.444 -21.2758 744.014 18.4363 744.014C19.3388 744.014 20.4671 744.014 21.3697 744.014V722.578C20.4671 722.578 19.3388 722.578 18.4363 722.578C-26.0141 722.578 -41.8086 762.29 -41.8086 799.294Z" fill="url(#paint48_linear_335_585)"/>
<path d="M116.139 545.002C117.041 545.002 117.944 545.002 119.072 545.002V523.792C117.944 523.792 117.041 523.566 116.139 523.566C71.4626 523.566 55.668 563.278 55.668 600.283H62.2115C62.2115 573.658 76.4266 545.002 116.139 545.002Z" fill="url(#paint49_linear_335_585)"/>
<path d="M217.451 545.002C218.353 545.002 219.256 545.002 220.384 545.002V523.792C219.256 523.792 218.353 523.566 217.451 523.566C173.001 523.566 156.98 563.278 156.98 600.283H163.524C163.524 573.658 177.739 545.002 217.451 545.002Z" fill="url(#paint50_linear_335_585)"/>
<path d="M159.914 669.777C159.011 669.777 158.109 669.777 156.98 669.777V690.987C158.109 690.987 159.011 691.212 159.914 691.212C204.59 691.212 220.384 651.5 220.384 614.496H213.841C213.841 641.121 199.626 669.777 159.914 669.777Z" fill="url(#paint51_linear_335_585)"/>
<path d="M119.072 614.496H112.528C112.528 641.121 98.3134 669.777 58.6014 669.777C57.6988 669.777 56.5705 669.777 55.668 669.777V690.987C56.5705 690.987 57.6988 691.212 58.6014 691.212C103.052 691.212 119.072 651.5 119.072 614.496Z" fill="url(#paint52_linear_335_585)"/>
<path d="M285.139 629.39C285.139 628.262 285.365 627.36 285.365 626.457H263.93C263.93 627.36 263.93 628.262 263.93 629.39C263.93 673.841 303.416 689.635 340.646 689.635V683.092C313.795 683.092 285.139 669.102 285.139 629.39Z" fill="url(#paint53_linear_335_585)"/>
<path d="M285.139 528.078C285.139 526.95 285.365 526.047 285.365 525.145H263.93C263.93 526.047 263.93 526.95 263.93 528.078C263.93 572.528 303.416 588.323 340.646 588.323V581.779C313.795 581.779 285.139 567.564 285.139 528.078Z" fill="url(#paint54_linear_335_585)"/>
<path d="M409.916 585.389C409.916 586.292 409.916 587.42 409.916 588.323H431.351C431.351 587.42 431.351 586.292 431.351 585.389C431.351 540.939 391.639 525.145 354.635 525.145V531.688C381.486 531.688 409.916 545.677 409.916 585.389Z" fill="url(#paint55_linear_335_585)"/>
<path d="M354.635 626.457V633.001C381.486 633.001 409.916 646.99 409.916 686.702C409.916 687.83 409.916 688.733 409.916 689.635H431.351C431.351 688.733 431.351 687.83 431.351 686.702C431.351 642.252 391.639 626.457 354.635 626.457Z" fill="url(#paint56_linear_335_585)"/>
<path d="M370.882 868.788C369.98 868.788 369.077 868.788 367.949 868.562V889.998C369.077 889.998 369.98 889.998 370.882 889.998C415.558 889.998 431.353 850.511 431.353 813.281H424.81C424.81 840.132 410.594 868.788 370.882 868.788Z" fill="url(#paint57_linear_335_585)"/>
<path d="M269.572 868.788C268.67 868.788 267.767 868.788 266.639 868.562V889.998C267.767 889.998 268.67 889.998 269.572 889.998C314.022 889.998 330.043 850.511 330.043 813.281H323.499C323.499 840.132 309.284 868.788 269.572 868.788Z" fill="url(#paint58_linear_335_585)"/>
<path d="M327.109 744.014C328.012 744.014 328.914 744.014 330.043 744.014V722.578C328.914 722.578 328.012 722.578 327.109 722.578C282.659 722.578 266.639 762.29 266.639 799.294H273.182C273.182 772.444 287.397 744.014 327.109 744.014Z" fill="url(#paint59_linear_335_585)"/>
<path d="M367.949 799.294H374.718C374.718 772.444 388.708 744.014 428.42 744.014C429.322 744.014 430.451 744.014 431.353 744.014V722.578C430.451 722.578 429.322 722.578 428.42 722.578C383.969 722.578 367.949 762.29 367.949 799.294Z" fill="url(#paint60_linear_335_585)"/>
<path d="M201.882 784.404C201.882 785.307 201.882 786.209 201.656 787.337H223.091C223.091 786.209 223.091 785.307 223.091 784.404C223.091 739.954 183.605 723.934 146.375 723.934V730.477C173.226 730.477 201.882 744.692 201.882 784.404Z" fill="url(#paint61_linear_335_585)"/>
<path d="M201.882 885.714C201.882 886.616 201.882 887.744 201.656 888.647H223.091C223.091 887.744 223.091 886.616 223.091 885.714C223.091 841.263 183.605 825.469 146.375 825.469V832.012C173.226 832.012 201.882 846.002 201.882 885.714Z" fill="url(#paint62_linear_335_585)"/>
<path d="M77.1034 828.402C77.1034 827.274 77.1034 826.371 77.1034 825.469H55.668C55.668 826.371 55.668 827.274 55.668 828.402C55.668 872.852 95.38 888.647 132.384 888.647V882.104C105.534 882.104 77.1034 867.888 77.1034 828.402Z" fill="url(#paint63_linear_335_585)"/>
<path d="M132.384 787.337V780.794C105.534 780.794 77.1034 766.579 77.1034 726.867C77.1034 725.964 77.1034 725.062 77.1034 723.934H55.668C55.668 725.062 55.668 725.964 55.668 726.867C55.668 771.543 95.38 787.337 132.384 787.337Z" fill="url(#paint64_linear_335_585)"/>
<path d="M526.119 545.002C527.022 545.002 527.924 545.002 528.827 545.002V523.792C527.924 523.792 527.022 523.566 526.119 523.566C481.443 523.566 465.648 563.278 465.648 600.283H472.192C472.192 573.658 486.407 545.002 526.119 545.002Z" fill="url(#paint65_linear_335_585)"/>
<path d="M627.432 545.002C628.334 545.002 629.237 545.002 630.365 545.002V523.792C629.237 523.792 628.334 523.566 627.432 523.566C582.981 523.566 566.961 563.278 566.961 600.283H573.504C573.504 573.658 587.72 545.002 627.432 545.002Z" fill="url(#paint66_linear_335_585)"/>
<path d="M569.894 669.777C568.992 669.777 568.089 669.777 566.961 669.777V690.987C568.089 690.987 568.992 691.212 569.894 691.212C614.345 691.212 630.365 651.5 630.365 614.496H623.822C623.822 641.121 609.606 669.777 569.894 669.777Z" fill="url(#paint67_linear_335_585)"/>
<path d="M528.827 614.496H522.283C522.283 641.121 508.294 669.777 468.582 669.777C467.679 669.777 466.551 669.777 465.648 669.777V690.987C466.551 690.987 467.679 691.212 468.582 691.212C513.032 691.212 528.827 651.5 528.827 614.496Z" fill="url(#paint68_linear_335_585)"/>
<path d="M695.122 629.39C695.122 628.262 695.122 627.36 695.348 626.457H673.912C673.912 627.36 673.912 628.262 673.912 629.39C673.912 673.841 713.399 689.635 750.629 689.635V683.092C723.778 683.092 695.122 669.102 695.122 629.39Z" fill="url(#paint69_linear_335_585)"/>
<path d="M695.122 528.078C695.122 526.95 695.122 526.047 695.348 525.145H673.912C673.912 526.047 673.912 526.95 673.912 528.078C673.912 572.528 713.399 588.323 750.629 588.323V581.779C723.778 581.779 695.122 567.564 695.122 528.078Z" fill="url(#paint70_linear_335_585)"/>
<path d="M819.9 585.389C819.9 586.292 819.9 587.42 819.9 588.323H841.11C841.336 587.42 841.336 586.292 841.336 585.389C841.336 540.939 801.624 525.145 764.619 525.145V531.688C791.47 531.688 819.9 545.677 819.9 585.389Z" fill="url(#paint71_linear_335_585)"/>
<path d="M764.619 626.457V633.001C791.47 633.001 819.9 646.99 819.9 686.702C819.9 687.83 819.9 688.733 819.9 689.635H841.336C841.336 688.733 841.336 687.83 841.336 686.702C841.336 642.252 801.624 626.457 764.619 626.457Z" fill="url(#paint72_linear_335_585)"/>
<path d="M780.865 868.788C779.962 868.788 779.06 868.788 777.932 868.562V889.998C779.06 889.998 779.962 889.998 780.865 889.998C825.541 889.998 841.335 850.511 841.335 813.281H834.792C834.792 840.132 820.577 868.788 780.865 868.788Z" fill="url(#paint73_linear_335_585)"/>
<path d="M679.553 868.788C678.65 868.788 677.747 868.788 676.619 868.562V889.998C677.522 889.998 678.65 889.998 679.553 889.998C724.003 889.998 740.023 850.511 740.023 813.281H733.48C733.48 840.132 719.265 868.788 679.553 868.788Z" fill="url(#paint74_linear_335_585)"/>
<path d="M737.09 744.014C737.992 744.014 738.895 744.014 740.023 744.014V722.578C738.895 722.578 737.992 722.578 737.09 722.578C692.414 722.578 676.619 762.29 676.619 799.294H683.163C683.163 772.444 697.378 744.014 737.09 744.014Z" fill="url(#paint75_linear_335_585)"/>
<path d="M777.932 799.294H784.475C784.475 772.444 798.69 744.014 838.402 744.014C839.305 744.014 840.433 744.014 841.335 744.014V722.578C840.433 722.578 839.305 722.578 838.402 722.578C793.952 722.578 777.932 762.29 777.932 799.294Z" fill="url(#paint76_linear_335_585)"/>
<path d="M611.862 784.404C611.862 785.307 611.636 786.209 611.636 787.337H633.072C633.072 786.209 633.072 785.307 633.072 784.404C633.072 739.954 593.586 723.934 556.355 723.934V730.477C583.206 730.477 611.862 744.692 611.862 784.404Z" fill="url(#paint77_linear_335_585)"/>
<path d="M611.862 885.714C611.862 886.616 611.636 887.744 611.636 888.647H633.072C633.072 887.744 633.072 886.616 633.072 885.714C633.072 841.263 593.586 825.469 556.355 825.469V832.012C583.206 832.012 611.862 846.002 611.862 885.714Z" fill="url(#paint78_linear_335_585)"/>
<path d="M487.084 828.402C487.084 827.274 487.084 826.371 487.084 825.469H465.648C465.648 826.371 465.648 827.274 465.648 828.402C465.648 872.852 505.36 888.647 542.365 888.647V882.104C515.514 882.104 487.084 867.888 487.084 828.402Z" fill="url(#paint79_linear_335_585)"/>
<path d="M542.365 787.337V780.794C515.514 780.794 487.084 766.579 487.084 726.867C487.084 725.964 487.084 725.062 487.084 723.934H465.648C465.648 725.062 465.648 725.964 465.648 726.867C465.648 771.543 505.36 787.337 542.365 787.337Z" fill="url(#paint80_linear_335_585)"/>
</g>
</g>
<defs>
<linearGradient id="paint0_linear_335_585" x1="-10.2195" y1="5.05469" x2="-10.2195" y2="81.771" gradientUnits="userSpaceOnUse">
<stop stop-color="#462C2B"/>
<stop offset="1" stop-color="white" stop-opacity="0"/>
</linearGradient>
<linearGradient id="paint1_linear_335_585" x1="399.651" y1="5.05469" x2="399.651" y2="81.771" gradientUnits="userSpaceOnUse">
<stop stop-color="#462C2B"/>
<stop offset="1" stop-color="white" stop-opacity="0"/>
</linearGradient>
<linearGradient id="paint2_linear_335_585" x1="298.341" y1="5.05469" x2="298.341" y2="81.771" gradientUnits="userSpaceOnUse">
<stop stop-color="#462C2B"/>
<stop offset="1" stop-color="white" stop-opacity="0"/>
</linearGradient>
<linearGradient id="paint3_linear_335_585" x1="184.733" y1="17.0117" x2="184.733" y2="80.1899" gradientUnits="userSpaceOnUse">
<stop stop-color="#462C2B"/>
<stop offset="1" stop-color="white" stop-opacity="0"/>
</linearGradient>
<linearGradient id="paint4_linear_335_585" x1="94.0262" y1="17.0117" x2="94.0262" y2="80.1899" gradientUnits="userSpaceOnUse">
<stop stop-color="#462C2B"/>
<stop offset="1" stop-color="white" stop-opacity="0"/>
</linearGradient>
<linearGradient id="paint5_linear_335_585" x1="809.634" y1="5.05469" x2="809.634" y2="81.771" gradientUnits="userSpaceOnUse">
<stop stop-color="#462C2B"/>
<stop offset="1" stop-color="white" stop-opacity="0"/>
</linearGradient>
<linearGradient id="paint6_linear_335_585" x1="708.321" y1="5.05469" x2="708.321" y2="81.771" gradientUnits="userSpaceOnUse">
<stop stop-color="#462C2B"/>
<stop offset="1" stop-color="white" stop-opacity="0"/>
</linearGradient>
<linearGradient id="paint7_linear_335_585" x1="594.714" y1="17.0117" x2="594.714" y2="80.1899" gradientUnits="userSpaceOnUse">
<stop stop-color="#462C2B"/>
<stop offset="1" stop-color="white" stop-opacity="0"/>
</linearGradient>
<linearGradient id="paint8_linear_335_585" x1="504.007" y1="17.0117" x2="504.007" y2="80.1899" gradientUnits="userSpaceOnUse">
<stop stop-color="#462C2B"/>
<stop offset="1" stop-color="white" stop-opacity="0"/>
</linearGradient>
<linearGradient id="paint9_linear_335_585" x1="-16.9894" y1="120.805" x2="-16.9894" y2="184.208" gradientUnits="userSpaceOnUse">
<stop stop-color="#462C2B"/>
<stop offset="1" stop-color="white" stop-opacity="0"/>
</linearGradient>
<linearGradient id="paint10_linear_335_585" x1="-16.9894" y1="222.113" x2="-16.9894" y2="285.517" gradientUnits="userSpaceOnUse">
<stop stop-color="#462C2B"/>
<stop offset="1" stop-color="white" stop-opacity="0"/>
</linearGradient>
<linearGradient id="paint11_linear_335_585" x1="-10.2195" y1="409.172" x2="-10.2195" y2="485.888" gradientUnits="userSpaceOnUse">
<stop stop-color="#462C2B"/>
<stop offset="1" stop-color="white" stop-opacity="0"/>
</linearGradient>
<linearGradient id="paint12_linear_335_585" x1="-10.2195" y1="318.465" x2="-10.2195" y2="395.181" gradientUnits="userSpaceOnUse">
<stop stop-color="#462C2B"/>
<stop offset="1" stop-color="white" stop-opacity="0"/>
</linearGradient>
<linearGradient id="paint13_linear_335_585" x1="87.3699" y1="119.449" x2="87.3699" y2="196.166" gradientUnits="userSpaceOnUse">
<stop stop-color="#462C2B"/>
<stop offset="1" stop-color="white" stop-opacity="0"/>
</linearGradient>
<linearGradient id="paint14_linear_335_585" x1="188.682" y1="119.449" x2="188.682" y2="196.166" gradientUnits="userSpaceOnUse">
<stop stop-color="#462C2B"/>
<stop offset="1" stop-color="white" stop-opacity="0"/>
</linearGradient>
<linearGradient id="paint15_linear_335_585" x1="188.682" y1="210.16" x2="188.682" y2="286.876" gradientUnits="userSpaceOnUse">
<stop stop-color="#462C2B"/>
<stop offset="1" stop-color="white" stop-opacity="0"/>
</linearGradient>
<linearGradient id="paint16_linear_335_585" x1="87.3699" y1="210.16" x2="87.3699" y2="286.876" gradientUnits="userSpaceOnUse">
<stop stop-color="#462C2B"/>
<stop offset="1" stop-color="white" stop-opacity="0"/>
</linearGradient>
<linearGradient id="paint17_linear_335_585" x1="302.288" y1="222.113" x2="302.288" y2="285.517" gradientUnits="userSpaceOnUse">
<stop stop-color="#462C2B"/>
<stop offset="1" stop-color="white" stop-opacity="0"/>
</linearGradient>
<linearGradient id="paint18_linear_335_585" x1="302.288" y1="120.805" x2="302.288" y2="184.208" gradientUnits="userSpaceOnUse">
<stop stop-color="#462C2B"/>
<stop offset="1" stop-color="white" stop-opacity="0"/>
</linearGradient>
<linearGradient id="paint19_linear_335_585" x1="392.993" y1="120.805" x2="392.993" y2="184.208" gradientUnits="userSpaceOnUse">
<stop stop-color="#462C2B"/>
<stop offset="1" stop-color="white" stop-opacity="0"/>
</linearGradient>
<linearGradient id="paint20_linear_335_585" x1="392.993" y1="222.113" x2="392.993" y2="285.517" gradientUnits="userSpaceOnUse">
<stop stop-color="#462C2B"/>
<stop offset="1" stop-color="white" stop-opacity="0"/>
</linearGradient>
<linearGradient id="paint21_linear_335_585" x1="399.651" y1="409.172" x2="399.651" y2="485.888" gradientUnits="userSpaceOnUse">
<stop stop-color="#462C2B"/>
<stop offset="1" stop-color="white" stop-opacity="0"/>
</linearGradient>
<linearGradient id="paint22_linear_335_585" x1="298.341" y1="409.172" x2="298.341" y2="485.888" gradientUnits="userSpaceOnUse">
<stop stop-color="#462C2B"/>
<stop offset="1" stop-color="white" stop-opacity="0"/>
</linearGradient>
<linearGradient id="paint23_linear_335_585" x1="298.341" y1="318.465" x2="298.341" y2="395.181" gradientUnits="userSpaceOnUse">
<stop stop-color="#462C2B"/>
<stop offset="1" stop-color="white" stop-opacity="0"/>
</linearGradient>
<linearGradient id="paint24_linear_335_585" x1="399.651" y1="318.465" x2="399.651" y2="395.181" gradientUnits="userSpaceOnUse">
<stop stop-color="#462C2B"/>
<stop offset="1" stop-color="white" stop-opacity="0"/>
</linearGradient>
<linearGradient id="paint25_linear_335_585" x1="184.733" y1="319.816" x2="184.733" y2="382.995" gradientUnits="userSpaceOnUse">
<stop stop-color="#462C2B"/>
<stop offset="1" stop-color="white" stop-opacity="0"/>
</linearGradient>
<linearGradient id="paint26_linear_335_585" x1="184.733" y1="421.129" x2="184.733" y2="484.533" gradientUnits="userSpaceOnUse">
<stop stop-color="#462C2B"/>
<stop offset="1" stop-color="white" stop-opacity="0"/>
</linearGradient>
<linearGradient id="paint27_linear_335_585" x1="94.0262" y1="421.129" x2="94.0262" y2="484.533" gradientUnits="userSpaceOnUse">
<stop stop-color="#462C2B"/>
<stop offset="1" stop-color="white" stop-opacity="0"/>
</linearGradient>
<linearGradient id="paint28_linear_335_585" x1="94.0262" y1="319.816" x2="94.0262" y2="382.995" gradientUnits="userSpaceOnUse">
<stop stop-color="#462C2B"/>
<stop offset="1" stop-color="white" stop-opacity="0"/>
</linearGradient>
<linearGradient id="paint29_linear_335_585" x1="497.238" y1="119.449" x2="497.238" y2="196.166" gradientUnits="userSpaceOnUse">
<stop stop-color="#462C2B"/>
<stop offset="1" stop-color="white" stop-opacity="0"/>
</linearGradient>
<linearGradient id="paint30_linear_335_585" x1="598.663" y1="119.449" x2="598.663" y2="196.166" gradientUnits="userSpaceOnUse">
<stop stop-color="#462C2B"/>
<stop offset="1" stop-color="white" stop-opacity="0"/>
</linearGradient>
<linearGradient id="paint31_linear_335_585" x1="598.663" y1="210.16" x2="598.663" y2="286.876" gradientUnits="userSpaceOnUse">
<stop stop-color="#462C2B"/>
<stop offset="1" stop-color="white" stop-opacity="0"/>
</linearGradient>
<linearGradient id="paint32_linear_335_585" x1="497.238" y1="210.16" x2="497.238" y2="286.876" gradientUnits="userSpaceOnUse">
<stop stop-color="#462C2B"/>
<stop offset="1" stop-color="white" stop-opacity="0"/>
</linearGradient>
<linearGradient id="paint33_linear_335_585" x1="712.27" y1="222.113" x2="712.27" y2="285.517" gradientUnits="userSpaceOnUse">
<stop stop-color="#462C2B"/>
<stop offset="1" stop-color="white" stop-opacity="0"/>
</linearGradient>
<linearGradient id="paint34_linear_335_585" x1="712.27" y1="120.805" x2="712.27" y2="184.208" gradientUnits="userSpaceOnUse">
<stop stop-color="#462C2B"/>
<stop offset="1" stop-color="white" stop-opacity="0"/>
</linearGradient>
<linearGradient id="paint35_linear_335_585" x1="802.977" y1="120.805" x2="802.977" y2="184.208" gradientUnits="userSpaceOnUse">
<stop stop-color="#462C2B"/>
<stop offset="1" stop-color="white" stop-opacity="0"/>
</linearGradient>
<linearGradient id="paint36_linear_335_585" x1="802.977" y1="222.113" x2="802.977" y2="285.517" gradientUnits="userSpaceOnUse">
<stop stop-color="#462C2B"/>
<stop offset="1" stop-color="white" stop-opacity="0"/>
</linearGradient>
<linearGradient id="paint37_linear_335_585" x1="809.634" y1="409.172" x2="809.634" y2="485.888" gradientUnits="userSpaceOnUse">
<stop stop-color="#462C2B"/>
<stop offset="1" stop-color="white" stop-opacity="0"/>
</linearGradient>
<linearGradient id="paint38_linear_335_585" x1="708.321" y1="409.172" x2="708.321" y2="485.888" gradientUnits="userSpaceOnUse">
<stop stop-color="#462C2B"/>
<stop offset="1" stop-color="white" stop-opacity="0"/>
</linearGradient>
<linearGradient id="paint39_linear_335_585" x1="708.321" y1="318.465" x2="708.321" y2="395.181" gradientUnits="userSpaceOnUse">
<stop stop-color="#462C2B"/>
<stop offset="1" stop-color="white" stop-opacity="0"/>
</linearGradient>
<linearGradient id="paint40_linear_335_585" x1="809.634" y1="318.465" x2="809.634" y2="395.181" gradientUnits="userSpaceOnUse">
<stop stop-color="#462C2B"/>
<stop offset="1" stop-color="white" stop-opacity="0"/>
</linearGradient>
<linearGradient id="paint41_linear_335_585" x1="594.714" y1="319.816" x2="594.714" y2="382.995" gradientUnits="userSpaceOnUse">
<stop stop-color="#462C2B"/>
<stop offset="1" stop-color="white" stop-opacity="0"/>
</linearGradient>
<linearGradient id="paint42_linear_335_585" x1="594.714" y1="421.129" x2="594.714" y2="484.533" gradientUnits="userSpaceOnUse">
<stop stop-color="#462C2B"/>
<stop offset="1" stop-color="white" stop-opacity="0"/>
</linearGradient>
<linearGradient id="paint43_linear_335_585" x1="504.007" y1="421.129" x2="504.007" y2="484.533" gradientUnits="userSpaceOnUse">
<stop stop-color="#462C2B"/>
<stop offset="1" stop-color="white" stop-opacity="0"/>
</linearGradient>
<linearGradient id="paint44_linear_335_585" x1="504.007" y1="319.816" x2="504.007" y2="382.995" gradientUnits="userSpaceOnUse">
<stop stop-color="#462C2B"/>
<stop offset="1" stop-color="white" stop-opacity="0"/>
</linearGradient>
<linearGradient id="paint45_linear_335_585" x1="-16.9894" y1="525.145" x2="-16.9894" y2="588.323" gradientUnits="userSpaceOnUse">
<stop stop-color="#462C2B"/>
<stop offset="1" stop-color="white" stop-opacity="0"/>
</linearGradient>
<linearGradient id="paint46_linear_335_585" x1="-16.9894" y1="626.457" x2="-16.9894" y2="689.635" gradientUnits="userSpaceOnUse">
<stop stop-color="#462C2B"/>
<stop offset="1" stop-color="white" stop-opacity="0"/>
</linearGradient>
<linearGradient id="paint47_linear_335_585" x1="-10.2195" y1="813.281" x2="-10.2195" y2="889.998" gradientUnits="userSpaceOnUse">
<stop stop-color="#462C2B"/>
<stop offset="1" stop-color="white" stop-opacity="0"/>
</linearGradient>
<linearGradient id="paint48_linear_335_585" x1="-10.2195" y1="722.578" x2="-10.2195" y2="799.294" gradientUnits="userSpaceOnUse">
<stop stop-color="#462C2B"/>
<stop offset="1" stop-color="white" stop-opacity="0"/>
</linearGradient>
<linearGradient id="paint49_linear_335_585" x1="87.3699" y1="523.566" x2="87.3699" y2="600.283" gradientUnits="userSpaceOnUse">
<stop stop-color="#462C2B"/>
<stop offset="1" stop-color="white" stop-opacity="0"/>
</linearGradient>
<linearGradient id="paint50_linear_335_585" x1="188.682" y1="523.566" x2="188.682" y2="600.283" gradientUnits="userSpaceOnUse">
<stop stop-color="#462C2B"/>
<stop offset="1" stop-color="white" stop-opacity="0"/>
</linearGradient>
<linearGradient id="paint51_linear_335_585" x1="188.682" y1="614.496" x2="188.682" y2="691.212" gradientUnits="userSpaceOnUse">
<stop stop-color="#462C2B"/>
<stop offset="1" stop-color="white" stop-opacity="0"/>
</linearGradient>
<linearGradient id="paint52_linear_335_585" x1="87.3699" y1="614.496" x2="87.3699" y2="691.212" gradientUnits="userSpaceOnUse">
<stop stop-color="#462C2B"/>
<stop offset="1" stop-color="white" stop-opacity="0"/>
</linearGradient>
<linearGradient id="paint53_linear_335_585" x1="302.288" y1="626.457" x2="302.288" y2="689.635" gradientUnits="userSpaceOnUse">
<stop stop-color="#462C2B"/>
<stop offset="1" stop-color="white" stop-opacity="0"/>
</linearGradient>
<linearGradient id="paint54_linear_335_585" x1="302.288" y1="525.145" x2="302.288" y2="588.323" gradientUnits="userSpaceOnUse">
<stop stop-color="#462C2B"/>
<stop offset="1" stop-color="white" stop-opacity="0"/>
</linearGradient>
<linearGradient id="paint55_linear_335_585" x1="392.993" y1="525.145" x2="392.993" y2="588.323" gradientUnits="userSpaceOnUse">
<stop stop-color="#462C2B"/>
<stop offset="1" stop-color="white" stop-opacity="0"/>
</linearGradient>
<linearGradient id="paint56_linear_335_585" x1="392.993" y1="626.457" x2="392.993" y2="689.635" gradientUnits="userSpaceOnUse">
<stop stop-color="#462C2B"/>
<stop offset="1" stop-color="white" stop-opacity="0"/>
</linearGradient>
<linearGradient id="paint57_linear_335_585" x1="399.651" y1="813.281" x2="399.651" y2="889.998" gradientUnits="userSpaceOnUse">
<stop stop-color="#462C2B"/>
<stop offset="1" stop-color="white" stop-opacity="0"/>
</linearGradient>
<linearGradient id="paint58_linear_335_585" x1="298.341" y1="813.281" x2="298.341" y2="889.998" gradientUnits="userSpaceOnUse">
<stop stop-color="#462C2B"/>
<stop offset="1" stop-color="white" stop-opacity="0"/>
</linearGradient>
<linearGradient id="paint59_linear_335_585" x1="298.341" y1="722.578" x2="298.341" y2="799.294" gradientUnits="userSpaceOnUse">
<stop stop-color="#462C2B"/>
<stop offset="1" stop-color="white" stop-opacity="0"/>
</linearGradient>
<linearGradient id="paint60_linear_335_585" x1="399.651" y1="722.578" x2="399.651" y2="799.294" gradientUnits="userSpaceOnUse">
<stop stop-color="#462C2B"/>
<stop offset="1" stop-color="white" stop-opacity="0"/>
</linearGradient>
<linearGradient id="paint61_linear_335_585" x1="184.733" y1="723.934" x2="184.733" y2="787.337" gradientUnits="userSpaceOnUse">
<stop stop-color="#462C2B"/>
<stop offset="1" stop-color="white" stop-opacity="0"/>
</linearGradient>
<linearGradient id="paint62_linear_335_585" x1="184.733" y1="825.469" x2="184.733" y2="888.647" gradientUnits="userSpaceOnUse">
<stop stop-color="#462C2B"/>
<stop offset="1" stop-color="white" stop-opacity="0"/>
</linearGradient>
<linearGradient id="paint63_linear_335_585" x1="94.0262" y1="825.469" x2="94.0262" y2="888.647" gradientUnits="userSpaceOnUse">
<stop stop-color="#462C2B"/>
<stop offset="1" stop-color="white" stop-opacity="0"/>
</linearGradient>
<linearGradient id="paint64_linear_335_585" x1="94.0262" y1="723.934" x2="94.0262" y2="787.337" gradientUnits="userSpaceOnUse">
<stop stop-color="#462C2B"/>
<stop offset="1" stop-color="white" stop-opacity="0"/>
</linearGradient>
<linearGradient id="paint65_linear_335_585" x1="497.238" y1="523.566" x2="497.238" y2="600.283" gradientUnits="userSpaceOnUse">
<stop stop-color="#462C2B"/>
<stop offset="1" stop-color="white" stop-opacity="0"/>
</linearGradient>
<linearGradient id="paint66_linear_335_585" x1="598.663" y1="523.566" x2="598.663" y2="600.283" gradientUnits="userSpaceOnUse">
<stop stop-color="#462C2B"/>
<stop offset="1" stop-color="white" stop-opacity="0"/>
</linearGradient>
<linearGradient id="paint67_linear_335_585" x1="598.663" y1="614.496" x2="598.663" y2="691.212" gradientUnits="userSpaceOnUse">
<stop stop-color="#462C2B"/>
<stop offset="1" stop-color="white" stop-opacity="0"/>
</linearGradient>
<linearGradient id="paint68_linear_335_585" x1="497.238" y1="614.496" x2="497.238" y2="691.212" gradientUnits="userSpaceOnUse">
<stop stop-color="#462C2B"/>
<stop offset="1" stop-color="white" stop-opacity="0"/>
</linearGradient>
<linearGradient id="paint69_linear_335_585" x1="712.27" y1="626.457" x2="712.27" y2="689.635" gradientUnits="userSpaceOnUse">
<stop stop-color="#462C2B"/>
<stop offset="1" stop-color="white" stop-opacity="0"/>
</linearGradient>
<linearGradient id="paint70_linear_335_585" x1="712.27" y1="525.145" x2="712.27" y2="588.323" gradientUnits="userSpaceOnUse">
<stop stop-color="#462C2B"/>
<stop offset="1" stop-color="white" stop-opacity="0"/>
</linearGradient>
<linearGradient id="paint71_linear_335_585" x1="802.977" y1="525.145" x2="802.977" y2="588.323" gradientUnits="userSpaceOnUse">
<stop stop-color="#462C2B"/>
<stop offset="1" stop-color="white" stop-opacity="0"/>
</linearGradient>
<linearGradient id="paint72_linear_335_585" x1="802.977" y1="626.457" x2="802.977" y2="689.635" gradientUnits="userSpaceOnUse">
<stop stop-color="#462C2B"/>
<stop offset="1" stop-color="white" stop-opacity="0"/>
</linearGradient>
<linearGradient id="paint73_linear_335_585" x1="809.634" y1="813.281" x2="809.634" y2="889.998" gradientUnits="userSpaceOnUse">
<stop stop-color="#462C2B"/>
<stop offset="1" stop-color="white" stop-opacity="0"/>
</linearGradient>
<linearGradient id="paint74_linear_335_585" x1="708.321" y1="813.281" x2="708.321" y2="889.998" gradientUnits="userSpaceOnUse">
<stop stop-color="#462C2B"/>
<stop offset="1" stop-color="white" stop-opacity="0"/>
</linearGradient>
<linearGradient id="paint75_linear_335_585" x1="708.321" y1="722.578" x2="708.321" y2="799.294" gradientUnits="userSpaceOnUse">
<stop stop-color="#462C2B"/>
<stop offset="1" stop-color="white" stop-opacity="0"/>
</linearGradient>
<linearGradient id="paint76_linear_335_585" x1="809.634" y1="722.578" x2="809.634" y2="799.294" gradientUnits="userSpaceOnUse">
<stop stop-color="#462C2B"/>
<stop offset="1" stop-color="white" stop-opacity="0"/>
</linearGradient>
<linearGradient id="paint77_linear_335_585" x1="594.714" y1="723.934" x2="594.714" y2="787.337" gradientUnits="userSpaceOnUse">
<stop stop-color="#462C2B"/>
<stop offset="1" stop-color="white" stop-opacity="0"/>
</linearGradient>
<linearGradient id="paint78_linear_335_585" x1="594.714" y1="825.469" x2="594.714" y2="888.647" gradientUnits="userSpaceOnUse">
<stop stop-color="#462C2B"/>
<stop offset="1" stop-color="white" stop-opacity="0"/>
</linearGradient>
<linearGradient id="paint79_linear_335_585" x1="504.007" y1="825.469" x2="504.007" y2="888.647" gradientUnits="userSpaceOnUse">
<stop stop-color="#462C2B"/>
<stop offset="1" stop-color="white" stop-opacity="0"/>
</linearGradient>
<linearGradient id="paint80_linear_335_585" x1="504.007" y1="723.934" x2="504.007" y2="787.337" gradientUnits="userSpaceOnUse">
<stop stop-color="#462C2B"/>
<stop offset="1" stop-color="white" stop-opacity="0"/>
</linearGradient>
<clipPath id="clip0_335_585">
<rect x="-706" y="-689" width="1579" height="1579" rx="789.5" fill="white"/>
</clipPath>
</defs>
</svg>
