<svg width="700" height="1060" viewBox="0 0 700 1060" fill="none" xmlns="http://www.w3.org/2000/svg">
<path d="M632.817 0.5L674.18 74.8311C673.524 94.732 671.136 123.186 662.949 148.18V148.183C659.276 159.637 655.611 168.034 650.884 175.126L650.879 175.133C644.848 184.504 633.805 201.547 599.22 221.501C564.612 241.468 506.424 264.354 406.094 285.354C324.565 302.485 259.444 344.779 214.71 406.763C169.979 468.742 145.652 550.38 145.652 646.178C145.652 782.303 194.696 874.648 266.739 932.95C338.765 991.239 433.724 1015.46 525.5 1015.46C635.364 1015.46 727.945 985.55 793.448 928.934H793.449C867.636 864.717 905.348 769.498 905.348 646.178C905.348 549.627 882.105 469.232 837.67 407.845C793.422 346.717 728.188 304.476 644.062 283.89C644.272 283.733 644.478 283.577 644.678 283.422C645.046 283.136 645.399 282.862 645.768 282.613L646.154 282.367L646.164 282.36C663.008 271.129 677.916 257.751 690.888 243.082C805.213 267.123 895.084 315.834 956.386 384.516C1017.73 453.25 1050.5 542.021 1050.5 646.178C1050.5 775.534 1001.46 878.839 911.358 949.817C821.239 1020.81 689.986 1059.5 525.5 1059.5C398.569 1059.5 267.3 1032.33 167.781 967.089C68.288 901.861 0.5 798.559 0.5 646.178C0.500011 469.7 97.1411 335.833 272.562 269.42C292.234 261.961 323.928 253.467 350.832 246.835C364.28 243.52 376.523 240.672 385.459 238.652C389.927 237.643 393.567 236.841 396.117 236.291C397.392 236.016 398.394 235.804 399.09 235.661C399.438 235.59 399.708 235.536 399.896 235.5C399.991 235.482 400.063 235.469 400.112 235.461C400.135 235.457 400.15 235.455 400.157 235.454H400.18L400.226 235.445C410.596 233.501 420.799 231.762 430.965 229.815L430.966 229.816L456.948 225.269L458.292 225.034L457.115 224.345L448.237 219.147C416.278 199.925 405.504 183.531 399.688 174.483L399.684 174.477L399.283 173.867C395.161 167.508 391.612 159.282 388.052 148.183L388.051 148.18L387.67 147.003C379.789 122.296 377.469 94.4178 377.035 74.833L418.399 0.5H632.817ZM440.402 38.5205L420.049 75.333L420.034 75.3604L420.022 75.3896L419.589 76.4717L419.554 76.5615V77.7637C419.878 84.6862 420.096 90.0018 420.285 93.8975C420.474 97.7838 420.637 100.308 420.859 101.643C424.229 128.683 433.847 150.545 450.709 168.144C467.565 185.736 491.627 199.032 523.822 209.008L524.881 209.433L525.052 209.501L525.226 209.442L526.523 209.009C548.303 202.289 572.085 192.793 591.484 176.299C610.897 159.793 625.899 136.299 630.141 101.643C630.58 99.005 631.012 91.6134 631.444 77.7959L631.653 76.7559L631.689 76.5762L631.601 76.415L610.598 38.5195L610.455 38.2617H440.545L440.402 38.5205Z" fill="#D9C0AB" fill-opacity="0.5" stroke="#D9C0AB"/>
</svg>
