<svg width="1530" height="1872" viewBox="0 0 1530 1872" fill="none"
    xmlns="http://www.w3.org/2000/svg">
    <defs>
        <filter id="glow" x="-50%" y="-50%" width="200%" height="200%">
            <feGaussianBlur stdDeviation="8" result="coloredBlur"/>
            <feMerge>
                <feMergeNode in="coloredBlur"/>
                <feMergeNode in="SourceGraphic"/>
            </feMerge>
        </filter>
    </defs>

    <!-- All your original paths grouped together -->
    <g fill="#803738" filter="url(#glow)">

        <path d="M581.225 712.123C579.06 712.123 576.791 712.027 574.381 711.792L573.644 711.731C570.458 711.465 564.53 710.976 557.938 705.901C551.198 700.722 549.173 694.684 548.202 691.781C545.019 682.653 544.361 675.632 543.724 668.839L543.332 664.771L546.993 662.887C553.042 659.754 559.297 656.51 568.054 654.413C571.651 653.503 577.819 651.946 585.825 654.805C593.676 657.617 597.294 662.347 599.236 664.886L599.675 665.451C605.253 672.529 608.224 678.988 611.094 685.232C611.803 686.771 612.508 688.306 613.252 689.846C613.986 691.368 614.683 692.885 615.381 694.403C616.842 697.568 618.302 700.751 620.143 704.027L622.301 707.876L617.899 708.138C614.148 708.361 610.681 708.854 607.228 709.339C605.57 709.573 603.919 709.807 602.239 710.011C600.542 710.219 598.869 710.457 597.193 710.694C592.216 711.4 587.116 712.123 581.225 712.123ZM549.191 667.969L549.223 668.325C549.856 675.083 550.453 681.467 553.208 689.35L553.438 690.026C554.298 692.591 555.902 697.37 561.304 701.521C566.609 705.603 571.299 705.991 574.1 706.226L574.909 706.297C583.235 707.088 589.637 706.186 596.416 705.225C598.128 704.984 599.837 704.743 601.57 704.531C603.214 704.329 604.832 704.099 606.454 703.869C608.72 703.549 610.989 703.233 613.338 702.981C612.28 700.87 611.32 698.791 610.364 696.712C609.68 695.223 608.997 693.738 608.274 692.249C607.515 690.673 606.796 689.109 606.072 687.537C603.213 681.315 600.509 675.435 595.333 668.871L594.848 668.241C593.14 666.008 590.281 662.267 583.962 660.005C577.549 657.71 572.658 658.944 570.04 659.612L569.342 659.785C561.239 661.727 555.553 664.672 549.533 667.791L549.191 667.969Z" fill="#803738"/>
        <path d="M492.026 874.032L487.771 872.852C484.149 871.845 480.707 871.184 477.28 870.522C475.64 870.205 474.004 869.893 472.356 869.54C470.677 869.184 469.011 868.864 467.343 868.544C460.6 867.249 453.626 865.908 445.422 862.178L444.761 861.887C441.833 860.602 436.385 858.215 431.784 851.267C427.094 844.181 427.141 837.812 427.159 834.751C427.116 825.08 428.774 818.221 430.378 811.586L431.327 807.626L435.388 807.032C442.131 806.029 449.109 805 458.075 805.852C461.765 806.161 468.113 806.687 474.752 811.995C481.258 817.192 483.147 822.835 484.161 825.863L484.398 826.558C487.372 835.053 488.085 842.113 488.772 848.939C488.941 850.637 489.11 852.331 489.319 854.043C489.516 855.719 489.686 857.377 489.851 859.038C490.204 862.509 490.553 865.994 491.229 869.691L492.026 874.032ZM435.826 812.549L435.747 812.883C434.15 819.487 432.643 825.723 432.686 834.074L432.682 834.789C432.664 837.494 432.628 842.536 436.39 848.215C440.091 853.808 444.403 855.696 446.978 856.825L447.709 857.149C455.316 860.605 461.663 861.825 468.385 863.119C470.089 863.447 471.787 863.774 473.499 864.137C475.117 864.479 476.721 864.788 478.326 865.097C480.574 865.532 482.829 865.968 485.13 866.492C484.814 864.151 484.583 861.867 484.354 859.59C484.192 857.961 484.026 856.339 483.829 854.695C483.62 852.951 483.447 851.224 483.271 849.49C482.587 842.686 481.94 836.255 479.182 828.382L478.923 827.616C478.032 824.951 476.535 820.491 471.303 816.309C465.976 812.05 460.956 811.637 458.258 811.414L457.549 811.353C449.252 810.566 442.911 811.497 436.197 812.493L435.826 812.549Z" fill="#803738"/>
        <path d="M314.849 988.883L311.209 986.387C308.12 984.265 305.088 982.528 302.07 980.794C300.613 979.956 299.161 979.122 297.704 978.251C296.237 977.37 294.766 976.528 293.299 975.686C287.336 972.27 281.175 968.734 274.622 962.541L274.09 962.044C271.734 959.882 267.357 955.855 265.267 947.791C263.131 939.569 265.242 933.56 266.256 930.668C269.349 921.515 273.14 915.57 276.808 909.823L279.002 906.363L283.048 907.125C289.748 908.37 296.675 909.654 304.876 913.376C308.271 914.868 314.101 917.429 318.654 924.597C323.121 931.628 323.074 937.577 323.052 940.774L323.048 941.504C323.106 950.51 321.484 957.419 319.915 964.101C319.527 965.759 319.139 967.41 318.779 969.093C318.423 970.744 318.045 972.366 317.664 973.992C316.866 977.391 316.064 980.8 315.502 984.523L314.849 988.883ZM281.66 912.485L281.466 912.794C277.816 918.516 274.371 923.918 271.705 931.823L271.468 932.503C270.572 935.056 268.9 939.81 270.612 946.404C272.295 952.892 275.758 956.075 277.83 957.981L278.42 958.528C284.491 964.268 290.105 967.487 296.046 970.893C297.546 971.752 299.042 972.612 300.542 973.511C301.969 974.367 303.394 975.184 304.821 976.003C306.796 977.139 308.777 978.28 310.777 979.517C311.241 977.197 311.762 974.963 312.284 972.734C312.658 971.141 313.032 969.551 313.377 967.936C313.747 966.221 314.144 964.53 314.539 962.84C316.1 956.179 317.578 949.889 317.524 941.541L317.528 940.732C317.55 937.92 317.585 933.215 313.992 927.562C310.339 921.811 305.728 919.786 303.249 918.696L302.595 918.405C295.002 914.963 288.708 913.794 282.041 912.557L281.66 912.485Z" fill="#803738"/>
        <path d="M109.978 1039.99L107.349 1036.45C105.111 1033.43 102.807 1030.8 100.511 1028.18C99.4074 1026.92 98.3065 1025.66 97.2175 1024.36C96.1095 1023.05 94.9944 1021.78 93.8764 1020.5C89.3514 1015.33 84.6694 1009.99 80.4904 1002.01L80.1524 1001.38C78.6244 998.57 75.7864 993.337 76.4264 985.022C77.0774 976.548 81.0264 971.553 82.9224 969.151C88.8274 961.494 94.3484 957.099 99.6854 952.851L102.871 950.301L106.45 952.336C112.385 955.684 118.52 959.148 125.065 965.334C127.798 967.855 132.478 972.171 134.456 980.421C136.395 988.517 134.421 994.132 133.363 997.145L133.122 997.836C130.245 1006.38 126.461 1012.4 122.807 1018.22C121.904 1019.65 121.005 1021.08 120.12 1022.55C119.25 1024 118.362 1025.41 117.474 1026.82C115.618 1029.78 113.755 1032.74 112.017 1036.07L109.978 1039.99ZM103.396 956.957L103.123 957.173C97.8115 961.402 92.7945 965.398 87.7015 972.012L87.2584 972.577C85.5794 974.703 82.4574 978.655 81.9354 985.449C81.4174 992.138 83.6614 996.274 85.0074 998.749L85.3814 999.447C89.2584 1006.85 93.5205 1011.71 98.0305 1016.86C99.1745 1018.17 100.31 1019.47 101.44 1020.81C102.508 1022.07 103.587 1023.31 104.67 1024.54C106.173 1026.26 107.68 1027.99 109.173 1029.81C110.36 1027.77 111.579 1025.83 112.795 1023.89C113.666 1022.5 114.535 1021.12 115.388 1019.7C116.29 1018.2 117.207 1016.74 118.128 1015.28C121.775 1009.48 125.217 1004 127.885 996.08L128.152 995.318C129.083 992.663 130.644 988.226 129.083 981.712C127.497 975.095 123.797 971.681 121.804 969.847L121.272 969.351C115.215 963.629 109.641 960.482 103.735 957.148L103.396 956.957Z" fill="#803738"/>
        <path d="M640.152 335.253C631.751 335.253 626.5 331.768 623.967 330.088C615.871 324.859 611.052 319.738 606.387 314.785L603.531 311.767L605.272 308.009C608.12 301.826 611.066 295.435 616.684 288.405C618.961 285.481 622.87 280.457 630.944 277.798C638.864 275.202 644.621 276.701 647.715 277.514L648.413 277.691C657.16 279.848 663.464 283.118 669.561 286.283C671.068 287.063 672.575 287.844 674.114 288.606C675.617 289.351 677.089 290.113 678.564 290.875C681.671 292.487 684.789 294.105 688.26 295.565L692.327 297.274L689.015 300.187C686.196 302.665 683.764 305.182 681.34 307.685C680.175 308.886 679.009 310.088 677.812 311.282C676.597 312.491 675.42 313.71 674.244 314.925C669.468 319.867 664.53 324.97 656.916 329.801L656.319 330.189C653.644 331.941 648.662 335.203 640.325 335.253C640.267 335.253 640.209 335.253 640.152 335.253ZM610.121 310.693L610.408 310.999C615.051 315.927 619.432 320.58 626.423 325.094L627.02 325.486C629.275 326.983 633.742 329.835 640.291 329.73C646.998 329.69 650.937 327.108 653.289 325.569L653.954 325.137C661.014 320.659 665.51 316.009 670.272 311.088C671.473 309.844 672.674 308.603 673.911 307.37C675.087 306.197 676.228 305.021 677.367 303.845C678.957 302.202 680.55 300.558 682.248 298.918C680.108 297.9 678.062 296.839 676.019 295.782C674.577 295.034 673.135 294.286 671.66 293.556C670.092 292.779 668.557 291.984 667.017 291.186C660.939 288.036 655.199 285.058 647.088 283.058L646.318 282.86C643.596 282.148 639.038 280.95 632.669 283.051C626.195 285.18 623.102 289.154 621.441 291.291L620.998 291.851C615.801 298.357 613.122 304.169 610.287 310.323L610.121 310.693Z" fill="#803738"/>
        <path d="M639.018 528.98C636.454 528.98 633.45 528.599 630.055 527.455C622.013 524.743 618.132 519.697 616.269 517.269C610.295 509.674 607.396 503.257 604.592 497.049L602.887 493.295L605.71 490.349C610.422 485.414 615.291 480.307 622.905 475.469C626.002 473.444 631.094 470.003 639.841 470.067C648.171 470.175 653.13 473.473 655.792 475.243L656.397 475.642C663.975 480.522 668.877 485.665 673.617 490.636C674.786 491.866 675.954 493.089 677.159 494.309C678.346 495.507 679.501 496.715 680.655 497.923C683.061 500.448 685.474 502.98 688.28 505.482L691.575 508.421L687.493 510.097C684.022 511.525 680.9 513.118 677.793 514.701C676.304 515.46 674.815 516.215 673.297 516.956C671.75 517.707 670.24 518.477 668.726 519.247C662.608 522.365 656.282 525.587 647.521 527.684L646.823 527.856C645.057 528.308 642.42 528.98 639.018 528.98ZM609.465 494.417L609.627 494.773C612.418 500.952 615.054 506.786 620.204 513.332L620.65 513.904C622.298 516.051 625.369 520.047 631.818 522.219C638.173 524.362 642.733 523.201 645.463 522.507L646.233 522.312C654.361 520.37 660.119 517.435 666.219 514.328C667.761 513.541 669.304 512.753 670.88 511.987C672.369 511.264 673.826 510.523 675.286 509.779C677.325 508.743 679.368 507.703 681.505 506.704C679.821 505.053 678.235 503.395 676.657 501.74C675.527 500.553 674.398 499.37 673.233 498.194C672.003 496.953 670.813 495.701 669.619 494.45C664.893 489.494 660.43 484.811 653.406 480.284L652.737 479.845C650.395 478.288 646.472 475.68 639.771 475.593C632.729 475.583 628.73 478.265 626.464 479.747L625.874 480.132C618.825 484.61 614.398 489.248 609.708 494.161L609.465 494.417Z" fill="#803738"/>
        <path d="M469.463 624.412L463.104 623.855C459.241 623.56 453.286 623.104 446.625 617.986C444.147 616.076 442.058 613.857 440.414 611.386L437.508 607.016L442.759 607.096C445.722 607.142 448.719 607.696 451.664 608.75C459.519 611.562 463.137 616.292 465.079 618.831L469.463 624.412ZM451.264 614.525C452.577 615.41 453.843 616.075 455.04 616.586C453.965 615.852 452.717 615.147 451.264 614.525Z" fill="#803738"/>
        <path d="M374.578 745.471L368.73 742.874C365.177 741.338 359.685 738.975 355.049 731.97C353.326 729.363 352.067 726.582 351.319 723.712L349.992 718.637L354.931 720.417C357.725 721.424 360.379 722.924 362.818 724.873C369.32 730.07 371.208 735.713 372.223 738.741L374.578 745.471ZM360.574 730.218C361.523 731.469 362.494 732.505 363.458 733.372C362.681 732.337 361.739 731.272 360.574 730.218Z" fill="#803738"/>
        <path d="M245.51 829.158L240.824 824.799C237.954 822.192 233.534 818.174 231.427 810.046C230.642 807.021 230.359 803.986 230.578 801.026L230.966 795.789L235.062 799.076C237.379 800.936 239.4 803.215 241.075 805.855C245.539 812.883 245.492 818.831 245.47 822.029L245.466 822.759L245.51 829.158ZM237.216 810.172C237.705 811.672 238.291 812.973 238.924 814.106C238.525 812.869 237.975 811.553 237.216 810.172Z" fill="#803738"/>
        <path d="M96.2608 866.407L93.2468 860.757C91.3808 857.355 88.5028 852.119 89.1468 843.75C89.3878 840.631 90.1028 837.668 91.2718 834.945L93.3398 830.129L96.1458 834.556C97.7278 837.059 98.9039 839.872 99.6339 842.918C101.573 851.014 99.5979 856.628 98.5409 859.642L96.2608 866.407ZM94.5848 845.756C94.5598 847.328 94.6929 848.741 94.9199 850.014C94.9449 848.72 94.8508 847.303 94.5848 845.756Z" fill="#803738"/>
        <path d="M498.311 334.241C495.254 334.241 492.301 333.773 489.532 332.853L484.551 331.191L488.741 328.027C491.111 326.239 493.819 324.837 496.786 323.858C504.699 321.251 510.46 322.761 513.557 323.571L520.462 325.285L515.092 328.752C511.859 330.892 506.878 334.195 498.479 334.241C498.426 334.241 498.369 334.241 498.311 334.241ZM504.26 327.967C502.965 328.05 501.555 328.259 500.031 328.658C501.601 328.551 503.008 328.303 504.26 327.967Z" fill="#803738"/>
        <path d="M505.101 481.949C502.519 481.949 499.566 481.561 496.229 480.438C493.269 479.442 490.571 478.021 488.212 476.216L484.047 473.03L489.032 471.397C491.848 470.476 494.862 470.095 497.998 470.066C506.328 470.174 511.287 473.472 513.948 475.242L519.929 479.108L513.718 480.644C511.539 481.208 508.676 481.949 505.101 481.949ZM499.498 475.658C501.023 476.068 502.432 476.291 503.731 476.381C502.476 476.036 501.07 475.777 499.498 475.658Z" fill="#803738"/>
        <path d="M1249.09 1239.64C1246.92 1239.64 1244.65 1239.54 1242.23 1239.31L1241.52 1239.25C1238.33 1238.98 1232.4 1238.5 1225.8 1233.42C1219.07 1228.24 1217.04 1222.21 1216.06 1219.31C1212.88 1210.18 1212.22 1203.16 1211.59 1196.37C1211.43 1194.75 1211.28 1193.12 1211.1 1191.48C1210.9 1189.73 1210.74 1188.01 1210.58 1186.28C1209.94 1179.46 1209.34 1173.03 1206.63 1165.14L1206.38 1164.38C1205.51 1161.7 1204.05 1157.23 1198.84 1153.01C1193.55 1148.71 1188.52 1148.26 1185.83 1148.02L1185.13 1147.95C1176.83 1147.1 1170.49 1147.99 1163.78 1148.94C1162.12 1149.18 1160.47 1149.41 1158.79 1149.61C1157.09 1149.82 1155.42 1150.06 1153.74 1150.29C1146.94 1151.26 1139.9 1152.26 1130.93 1151.39L1130.21 1151.33C1127.02 1151.07 1121.09 1150.58 1114.49 1145.5C1107.75 1140.32 1105.72 1134.28 1104.75 1131.38C1101.57 1122.27 1100.91 1115.26 1100.28 1108.48C1100.12 1106.84 1099.97 1105.21 1099.78 1103.56C1099.59 1101.82 1099.43 1100.1 1099.27 1098.38C1098.63 1091.56 1098.03 1085.12 1095.32 1077.22L1095.08 1076.46C1094.2 1073.79 1092.74 1069.31 1087.53 1065.09C1082.24 1060.8 1077.23 1060.34 1074.53 1060.1L1073.81 1060.03C1065.52 1059.17 1059.18 1060.07 1052.46 1061.02C1050.81 1061.26 1049.16 1061.49 1047.48 1061.69C1045.78 1061.9 1044.1 1062.14 1042.43 1062.38C1035.62 1063.34 1028.58 1064.33 1019.62 1063.47L1018.9 1063.41C1015.71 1063.15 1009.78 1062.66 1003.18 1057.58C996.438 1052.4 994.414 1046.36 993.443 1043.46C990.26 1034.34 989.603 1027.31 988.963 1020.52C988.812 1018.9 988.659 1017.28 988.476 1015.64C988.282 1013.91 988.12 1012.19 987.958 1010.46C987.322 1003.65 986.721 997.207 984.017 989.295L983.761 988.525C982.887 985.853 981.424 981.383 976.224 977.163C970.937 972.876 965.916 972.423 963.218 972.179L962.502 972.11C954.205 971.254 947.853 972.157 941.131 973.103C939.484 973.337 937.841 973.567 936.176 973.772C934.474 973.98 932.801 974.218 931.125 974.456C924.317 975.419 917.282 976.423 908.309 975.549L907.594 975.488C904.404 975.229 898.472 974.74 891.865 969.662C885.129 964.48 883.104 958.444 882.133 955.542C878.95 946.417 878.293 939.397 877.652 932.607C877.501 930.985 877.35 929.363 877.167 927.727C876.973 925.99 876.812 924.275 876.65 922.552C876.014 915.733 875.412 909.288 872.704 901.379L872.453 900.613C871.579 897.941 870.118 893.471 864.914 889.251C859.619 884.953 854.599 884.504 851.902 884.259L851.198 884.194C842.897 883.345 836.559 884.237 829.848 885.183C828.194 885.417 826.539 885.646 824.864 885.852C823.166 886.061 821.489 886.298 819.809 886.535C813.008 887.503 805.97 888.499 797.003 887.633L796.284 887.572C793.094 887.313 787.164 886.824 780.557 881.746C773.831 876.57 771.799 870.535 770.824 867.636C767.638 858.501 766.98 851.485 766.346 844.701C766.191 843.072 766.04 841.446 765.857 839.806C765.663 838.069 765.501 836.354 765.339 834.631C764.703 827.812 764.103 821.367 761.395 813.461L761.146 812.702C760.272 810.03 758.812 805.552 753.604 801.326C748.318 797.039 743.301 796.586 740.604 796.341L739.883 796.273C731.586 795.416 725.235 796.316 718.513 797.265C716.865 797.499 715.222 797.729 713.557 797.934C711.845 798.143 710.162 798.384 708.476 798.621C701.682 799.578 694.665 800.574 685.688 799.71L684.974 799.649C681.784 799.39 675.853 798.901 669.25 793.823C662.521 788.644 660.491 782.609 659.517 779.71C656.331 770.582 655.676 763.565 655.039 756.778C654.884 755.149 654.734 753.523 654.551 751.883C654.353 750.135 654.191 748.409 654.029 746.678C653.393 739.866 652.793 733.436 650.088 725.538L649.105 722.661L651.99 721.737C660.309 719.684 666.053 716.702 672.135 713.548C673.667 712.753 675.195 711.959 676.76 711.185C678.249 710.448 679.705 709.693 681.162 708.937C687.208 705.808 693.462 702.568 702.22 700.467C705.823 699.561 711.995 697.997 719.987 700.863C727.831 703.669 731.45 708.394 733.396 710.933L733.839 711.508C739.417 718.586 742.387 725.042 745.253 731.286C745.961 732.825 746.669 734.361 747.414 735.904C748.148 737.426 748.846 738.943 749.547 740.461C752.38 746.622 755.06 752.438 760.261 758.951L760.708 759.515C762.37 761.652 765.466 765.626 771.932 767.751C778.295 769.841 782.854 768.653 785.573 767.942L786.35 767.74C794.463 765.74 800.207 762.759 806.289 759.608C807.825 758.81 809.358 758.015 810.922 757.241C812.407 756.507 813.855 755.756 815.312 755C821.363 751.867 827.616 748.627 836.377 746.523C839.985 745.613 846.161 744.052 854.145 746.919C861.981 749.72 865.598 754.442 867.544 756.978L867.994 757.557C873.572 764.638 876.54 771.091 879.406 777.331C880.115 778.87 880.823 780.409 881.572 781.956C882.302 783.473 882.999 784.988 883.698 786.506C886.535 792.667 889.214 798.485 894.418 805.003L894.861 805.564C896.523 807.7 899.617 811.678 906.094 813.803C912.459 815.904 917.016 814.71 919.734 813.997L920.507 813.795C928.617 811.796 934.358 808.822 940.432 805.667C941.972 804.869 943.507 804.074 945.079 803.297C946.564 802.563 948.014 801.811 949.47 801.056C955.519 797.923 961.775 794.682 970.536 792.579C974.129 791.669 980.303 790.111 988.302 792.975C996.139 795.777 999.757 800.499 1001.7 803.034L1002.15 803.613C1007.73 810.691 1010.69 817.139 1013.56 823.38C1014.27 824.923 1014.98 826.466 1015.73 828.012C1016.46 829.53 1017.16 831.044 1017.85 832.562C1020.69 838.723 1023.37 844.542 1028.58 851.059L1029.02 851.616C1030.68 853.752 1033.77 857.73 1040.25 859.86C1046.62 861.96 1051.17 860.766 1053.89 860.054L1054.67 859.853C1062.78 857.853 1068.52 854.879 1074.59 851.725C1076.13 850.927 1077.66 850.132 1079.24 849.355C1080.71 848.621 1082.16 847.873 1083.61 847.122C1089.66 843.986 1095.92 840.738 1104.69 838.638C1108.28 837.728 1114.45 836.164 1122.46 839.034C1130.3 841.836 1133.92 846.558 1135.86 849.093L1136.31 849.673C1141.89 856.751 1144.85 863.199 1147.72 869.439C1148.43 870.982 1149.14 872.525 1149.89 874.072C1150.62 875.593 1151.32 877.11 1152.02 878.628C1154.85 884.789 1157.53 890.605 1162.73 897.118L1163.18 897.682C1164.85 899.819 1167.94 903.792 1174.41 905.918C1180.77 908.018 1185.33 906.824 1188.05 906.112L1188.83 905.911C1196.93 903.911 1202.67 900.937 1208.75 897.787C1210.29 896.988 1211.82 896.19 1213.39 895.413C1214.87 894.679 1216.32 893.931 1217.77 893.18C1223.82 890.044 1230.08 886.796 1238.85 884.696C1242.44 883.786 1248.61 882.229 1256.62 885.089C1264.47 887.901 1268.09 892.631 1270.03 895.17L1270.47 895.735C1276.05 902.813 1279.02 909.272 1281.89 915.516C1282.6 917.055 1283.3 918.591 1284.05 920.131C1284.78 921.648 1285.47 923.159 1286.17 924.673C1289.01 930.837 1291.68 936.66 1296.89 943.177L1297.34 943.741C1299 945.878 1302.1 949.852 1308.57 951.977C1314.94 954.081 1319.49 952.876 1322.21 952.171L1322.98 951.969C1331.09 949.969 1336.83 946.995 1342.9 943.845C1344.44 943.047 1345.98 942.248 1347.55 941.471C1349.03 940.737 1350.47 939.99 1351.92 939.238C1357.98 936.102 1364.24 932.854 1373.01 930.754C1376.6 929.844 1382.77 928.286 1390.78 931.146C1398.63 933.958 1402.25 938.688 1404.19 941.227L1404.63 941.792C1410.21 948.87 1413.18 955.329 1416.05 961.573C1416.76 963.113 1417.46 964.648 1418.21 966.188L1413.23 968.591C1412.47 967.015 1411.75 965.451 1411.03 963.879C1408.17 957.657 1405.46 951.777 1400.29 945.214L1399.8 944.584C1398.09 942.351 1395.24 938.61 1388.92 936.348C1382.5 934.054 1377.61 935.291 1374.99 935.956L1374.3 936.129C1366.18 938.071 1360.49 941.024 1354.46 944.145C1352.99 944.911 1351.51 945.677 1350 946.422C1348.46 947.184 1346.96 947.969 1345.45 948.749C1339.35 951.91 1333.05 955.18 1324.31 957.337L1323.61 957.517C1320.51 958.319 1314.76 959.823 1306.84 957.229C1298.78 954.574 1294.86 949.554 1292.98 947.137C1286.95 939.581 1284 933.175 1281.15 926.982C1280.47 925.5 1279.79 924.018 1279.07 922.533C1278.31 920.957 1277.59 919.393 1276.87 917.821C1274.01 911.599 1271.31 905.718 1266.13 899.155L1265.64 898.526C1263.94 896.293 1261.08 892.552 1254.76 890.29C1248.35 887.996 1243.46 889.229 1240.84 889.898L1240.14 890.07C1232.02 892.012 1226.33 894.965 1220.31 898.087C1218.83 898.853 1217.35 899.619 1215.85 900.364C1214.3 901.126 1212.8 901.91 1211.29 902.691C1205.19 905.852 1198.89 909.122 1190.15 911.279L1189.45 911.459C1186.35 912.265 1180.59 913.776 1172.68 911.172C1164.62 908.517 1160.7 903.497 1158.82 901.08C1152.8 893.531 1149.85 887.129 1147 880.943C1146.32 879.454 1145.63 877.969 1144.91 876.476C1144.15 874.898 1143.43 873.322 1142.7 871.747C1139.84 865.529 1137.15 859.655 1131.97 853.096L1131.48 852.456C1129.77 850.226 1126.91 846.493 1120.6 844.238C1114.18 841.94 1109.3 843.173 1106.67 843.842L1105.98 844.014C1097.87 845.956 1092.18 848.908 1086.15 852.031C1084.67 852.797 1083.2 853.563 1081.69 854.308C1080.15 855.07 1078.65 855.85 1077.14 856.635C1071.04 859.796 1064.74 863.065 1055.99 865.223L1055.29 865.403C1052.2 866.209 1046.44 867.716 1038.53 865.115C1030.45 862.457 1026.54 857.43 1024.66 855.013C1018.64 847.467 1015.69 841.065 1012.84 834.876C1012.16 833.39 1011.48 831.908 1010.76 830.42C1009.99 828.841 1009.27 827.266 1008.55 825.691C1005.69 819.473 1002.99 813.6 997.819 807.04L997.323 806.4C995.615 804.17 992.752 800.437 986.444 798.181C980.031 795.883 975.144 797.117 972.518 797.785L971.828 797.958C963.721 799.903 958.036 802.849 952.015 805.968C950.529 806.738 949.05 807.504 947.536 808.251C945.993 809.013 944.49 809.794 942.979 810.578C936.887 813.739 930.582 817.009 921.835 819.167L921.137 819.347C918.041 820.149 912.282 821.667 904.37 819.055C896.296 816.405 892.383 811.376 890.505 808.959C884.481 801.41 881.531 795.008 878.683 788.818C877.999 787.333 877.318 785.851 876.598 784.362C875.839 782.786 875.115 781.215 874.392 779.639C871.529 773.421 868.829 767.545 863.661 760.98L863.164 760.34C861.455 758.111 858.593 754.378 852.284 752.122C845.879 749.835 840.999 751.061 838.374 751.723L837.664 751.899C829.561 753.845 823.875 756.791 817.854 759.909C816.368 760.679 814.887 761.445 813.376 762.193C811.84 762.955 810.337 763.732 808.834 764.512C802.734 767.677 796.43 770.947 787.676 773.108L786.974 773.288C783.881 774.094 778.131 775.601 770.208 773.004C762.144 770.349 758.23 765.325 756.349 762.912C750.325 755.363 747.379 748.961 744.531 742.775C743.844 741.286 743.161 739.801 742.438 738.308C741.679 736.733 740.96 735.165 740.237 733.593C737.374 727.371 734.673 721.49 729.501 714.927L729.012 714.294C727.3 712.06 724.437 708.323 718.126 706.065C711.72 703.777 706.836 705.004 704.214 705.666L703.505 705.842C695.406 707.784 689.723 710.73 683.706 713.844C682.217 714.617 680.732 715.387 679.211 716.135C677.682 716.894 676.182 717.675 674.679 718.451C669.209 721.293 663.57 724.216 656.151 726.349C658.374 733.761 658.962 740.055 659.531 746.166C659.693 747.86 659.848 749.554 660.042 751.266C660.233 752.942 660.387 754.603 660.542 756.265C661.175 763.019 661.771 769.396 664.522 777.269L664.756 777.949C665.615 780.517 667.223 785.293 672.617 789.443C677.933 793.529 682.623 793.913 685.424 794.144L686.219 794.216C694.527 795.011 700.929 794.108 707.705 793.151C709.424 792.906 711.143 792.666 712.887 792.453C714.52 792.252 716.128 792.025 717.742 791.795C724.496 790.846 731.488 789.86 740.45 790.778C744.15 791.116 750.496 791.688 757.089 797.04C763.563 802.29 765.408 807.951 766.401 810.991L766.626 811.675C769.543 820.202 770.205 827.276 770.845 834.117C771 835.804 771.159 837.487 771.349 839.188C771.54 840.864 771.694 842.522 771.849 844.183C772.482 850.937 773.078 857.317 775.829 865.191L776.063 865.874C776.926 868.442 778.531 873.218 783.926 877.364C789.241 881.45 793.934 881.835 796.736 882.065L797.531 882.137C805.854 882.924 812.255 882.033 819.038 881.065C820.751 880.824 822.46 880.583 824.197 880.371C825.837 880.17 827.459 879.939 829.077 879.713C835.824 878.76 842.789 877.767 851.763 878.699C855.446 879.03 861.794 879.601 868.397 884.961C874.867 890.205 876.712 895.862 877.705 898.901L877.935 899.588C880.852 908.123 881.514 915.197 882.154 922.042C882.309 923.725 882.467 925.408 882.657 927.109C882.844 928.782 883.003 930.436 883.157 932.09C883.791 938.848 884.391 945.232 887.142 953.112L887.374 953.788C888.234 956.353 889.833 961.129 895.235 965.283C900.55 969.369 905.245 969.753 908.046 969.983L908.84 970.055C917.166 970.846 923.568 969.944 930.351 968.987C932.064 968.746 933.772 968.505 935.506 968.293C937.138 968.091 938.746 967.864 940.361 967.635C947.115 966.686 954.111 965.7 963.069 966.617C966.767 966.955 973.112 967.53 979.708 972.875C986.171 978.119 988.02 983.772 989.016 986.808L989.245 987.509C992.161 996.04 992.824 1003.12 993.464 1009.95C993.619 1011.64 993.777 1013.33 993.968 1015.03C994.155 1016.7 994.312 1018.35 994.466 1020.01C995.099 1026.77 995.701 1033.15 998.453 1041.03L998.682 1041.71C999.542 1044.27 1001.15 1049.05 1006.55 1053.2C1011.86 1057.29 1016.55 1057.67 1019.36 1057.91L1020.15 1057.98C1028.47 1058.77 1034.87 1057.87 1041.65 1056.91C1043.37 1056.66 1045.08 1056.42 1046.82 1056.21C1048.46 1056.01 1050.07 1055.78 1051.69 1055.55C1058.44 1054.6 1065.41 1053.62 1074.39 1054.54C1078.08 1054.88 1084.42 1055.45 1091.02 1060.8C1097.49 1066.05 1099.34 1071.71 1100.33 1074.75L1100.56 1075.43C1103.48 1083.96 1104.13 1091.03 1104.77 1097.87C1104.93 1099.56 1105.09 1101.24 1105.28 1102.95C1105.47 1104.63 1105.62 1106.29 1105.78 1107.96C1106.41 1114.71 1107.01 1121.09 1109.76 1128.95L1109.99 1129.63C1110.85 1132.19 1112.46 1136.97 1117.86 1141.12C1123.17 1145.21 1127.86 1145.6 1130.67 1145.83L1131.46 1145.9C1139.79 1146.68 1146.19 1145.79 1152.97 1144.83C1154.68 1144.58 1156.39 1144.34 1158.13 1144.13C1159.77 1143.93 1161.39 1143.7 1163.01 1143.47C1169.75 1142.52 1176.72 1141.53 1185.7 1142.46C1189.38 1142.79 1195.72 1143.36 1202.33 1148.72C1208.8 1153.96 1210.65 1159.62 1211.64 1162.66L1211.87 1163.35C1214.78 1171.87 1215.44 1178.93 1216.08 1185.76C1216.24 1187.46 1216.4 1189.15 1216.59 1190.86C1216.78 1192.54 1216.94 1194.2 1217.09 1195.86C1217.72 1202.61 1218.32 1208.99 1221.07 1216.87L1221.3 1217.55C1222.16 1220.11 1223.77 1224.89 1229.17 1229.04C1234.48 1233.13 1239.17 1233.51 1241.97 1233.74L1242.77 1233.81C1251.08 1234.62 1257.48 1233.71 1264.26 1232.75C1265.97 1232.5 1267.69 1232.26 1269.44 1232.05L1270.11 1237.53C1268.4 1237.74 1266.72 1237.98 1265.03 1238.22C1260.06 1238.92 1254.97 1239.64 1249.09 1239.64Z" fill="#803738"/>
        <path d="M932.743 1585.33C931.064 1584.98 929.402 1584.66 927.737 1584.34C920.989 1583.04 914.016 1581.7 905.809 1577.97L905.148 1577.68C902.22 1576.39 896.772 1574 892.171 1567.06C887.481 1559.97 887.528 1553.6 887.546 1550.54C887.503 1540.89 889.158 1534.04 890.757 1527.42C891.142 1525.82 891.523 1524.24 891.883 1522.62C892.264 1520.91 892.67 1519.22 893.081 1517.54C894.692 1510.89 896.214 1504.6 896.22 1496.25L896.227 1495.45C896.271 1492.64 896.342 1487.93 892.789 1482.25C889.178 1476.47 884.582 1474.41 882.111 1473.31L881.453 1473.01C873.878 1469.51 867.584 1468.3 860.92 1467.01C859.283 1466.7 857.654 1466.38 856.011 1466.03C854.335 1465.68 852.673 1465.36 851.011 1465.04C844.264 1463.74 837.287 1462.4 829.08 1458.67L828.422 1458.38C825.49 1457.1 820.038 1454.71 815.438 1447.76C810.759 1440.68 810.795 1434.32 810.816 1431.26C810.77 1421.59 812.424 1414.74 814.021 1408.12C814.409 1406.52 814.791 1404.94 815.15 1403.32C815.531 1401.61 815.937 1399.93 816.348 1398.24C817.959 1391.59 819.481 1385.31 819.488 1376.95L819.495 1376.15C819.538 1373.34 819.611 1368.64 816.057 1362.95C812.446 1357.17 807.85 1355.12 805.379 1354.01L804.721 1353.71C797.157 1350.21 790.867 1349 784.206 1347.71C782.566 1347.4 780.93 1347.08 779.279 1346.73C777.6 1346.38 775.934 1346.06 774.269 1345.74C767.522 1344.44 760.552 1343.1 752.348 1339.37L751.687 1339.08C748.755 1337.79 743.307 1335.41 738.711 1328.46C734.021 1321.38 734.064 1315.01 734.085 1311.95C734.039 1302.29 735.693 1295.44 737.293 1288.82C737.678 1287.23 738.059 1285.64 738.418 1284.02C738.799 1282.32 739.202 1280.65 739.608 1278.97C741.223 1272.31 742.748 1266.02 742.755 1257.65L742.762 1256.86C742.805 1254.04 742.877 1249.34 739.327 1243.65C735.716 1237.88 731.116 1235.82 728.642 1234.71L727.991 1234.42C720.423 1230.92 714.133 1229.71 707.472 1228.42C705.832 1228.1 704.196 1227.79 702.545 1227.44C700.866 1227.08 699.2 1226.76 697.535 1226.44C690.792 1225.15 683.818 1223.8 675.614 1220.08L674.953 1219.78C672.022 1218.5 666.569 1216.11 661.973 1209.16C657.287 1202.08 657.333 1195.71 657.352 1192.65C657.305 1182.98 658.963 1176.13 660.567 1169.5C660.948 1167.92 661.333 1166.33 661.689 1164.73C662.071 1163.02 662.477 1161.34 662.883 1159.65C664.495 1153 666.019 1146.71 666.027 1138.36L666.034 1137.55C666.073 1134.74 666.142 1130.03 662.596 1124.35C658.978 1118.57 654.374 1116.52 651.9 1115.41L651.264 1115.13C643.693 1111.62 637.403 1110.41 630.746 1109.13C629.106 1108.81 627.469 1108.49 625.818 1108.14C624.139 1107.79 622.477 1107.47 620.812 1107.15C614.065 1105.85 607.088 1104.51 598.884 1100.77L598.218 1100.48C595.291 1099.2 589.838 1096.81 585.242 1089.87C580.556 1082.78 580.602 1076.41 580.621 1073.35C580.574 1063.69 582.232 1056.83 583.836 1050.2C584.217 1048.62 584.602 1047.04 584.958 1045.43C585.339 1043.72 585.746 1042.03 586.156 1040.35C587.768 1033.69 589.289 1027.41 589.296 1019.06L589.303 1018.27C589.346 1015.45 589.418 1010.74 585.865 1005.06C582.254 999.28 577.657 997.223 575.187 996.118L574.528 995.82C566.958 992.317 560.664 991.105 553.999 989.821C552.363 989.508 550.73 989.192 549.086 988.843C547.399 988.487 545.731 988.167 544.058 987.843C537.322 986.544 530.352 985.203 522.152 981.477L521.49 981.185C518.563 979.901 513.114 977.513 508.514 970.568C503.824 963.479 503.871 957.114 503.889 954.053C503.846 944.386 505.5 937.531 507.104 930.899C507.489 929.317 507.87 927.734 508.227 926.126C508.608 924.418 509.014 922.735 509.425 921.052C511.036 914.399 512.558 908.115 512.564 899.761L512.568 896.74L515.578 896.783C524.12 897.556 530.508 896.596 537.272 895.585C538.991 895.33 540.71 895.074 542.451 894.848C544.092 894.636 545.706 894.398 547.321 894.157C554.064 893.15 561.031 892.125 570.008 892.978C573.697 893.287 580.046 893.812 586.685 899.12C593.191 904.317 595.08 909.96 596.094 912.989L596.331 913.683C599.305 922.178 600.018 929.238 600.704 936.064C600.873 937.761 601.042 939.455 601.251 941.167C601.448 942.843 601.618 944.501 601.787 946.163C602.467 952.91 603.111 959.283 605.916 967.13L606.149 967.802C607.026 970.363 608.663 975.132 614.097 979.25C619.445 983.3 624.142 983.652 626.947 983.861L627.731 983.922C636.064 984.659 642.444 983.714 649.206 982.707C650.925 982.451 652.644 982.196 654.385 981.97C656.025 981.758 657.64 981.521 659.255 981.279C665.995 980.272 672.969 979.248 681.941 980.1C685.631 980.409 691.979 980.935 698.618 986.243C705.124 991.44 707.012 997.082 708.026 1000.11L708.264 1000.81C711.238 1009.3 711.951 1016.36 712.637 1023.19C712.806 1024.88 712.975 1026.58 713.184 1028.29C713.382 1029.97 713.551 1031.62 713.72 1033.28C714.4 1040.03 715.044 1046.41 717.848 1054.25L718.082 1054.93C718.959 1057.49 720.596 1062.26 726.03 1066.37C731.378 1070.42 736.075 1070.77 738.88 1070.98L739.664 1071.04C747.994 1071.78 754.374 1070.83 761.139 1069.83C762.858 1069.57 764.577 1069.32 766.318 1069.09C767.958 1068.88 769.573 1068.64 771.187 1068.4C777.931 1067.39 784.901 1066.37 793.874 1067.22C797.564 1067.53 803.912 1068.06 810.551 1073.36C817.057 1078.56 818.945 1084.2 819.959 1087.23L820.196 1087.93C823.171 1096.42 823.882 1103.48 824.57 1110.31C824.739 1112.01 824.908 1113.7 825.117 1115.41C825.315 1117.09 825.484 1118.75 825.653 1120.41C826.333 1127.15 826.977 1133.53 829.782 1141.37L830.016 1142.05C830.893 1144.61 832.53 1149.38 837.964 1153.49C843.312 1157.54 848.009 1157.9 850.814 1158.11L851.598 1158.17C859.935 1158.91 866.312 1157.95 873.073 1156.95C874.792 1156.7 876.511 1156.44 878.252 1156.21C879.892 1156 881.507 1155.76 883.122 1155.52C889.869 1154.52 896.843 1153.49 905.809 1154.34C909.499 1154.65 915.847 1155.18 922.486 1160.49C928.988 1165.69 930.88 1171.33 931.898 1174.36L932.132 1175.05C935.106 1183.54 935.815 1190.6 936.506 1197.43C936.675 1199.13 936.844 1200.82 937.053 1202.53C937.25 1204.21 937.42 1205.87 937.588 1207.53C938.268 1214.28 938.912 1220.65 941.717 1228.5L941.95 1229.17C942.828 1231.73 944.464 1236.5 949.898 1240.62C955.246 1244.67 959.943 1245.02 962.749 1245.23L963.533 1245.29C971.867 1246.03 978.247 1245.08 985.008 1244.07C986.727 1243.82 988.446 1243.56 990.188 1243.34C991.828 1243.13 993.443 1242.89 995.058 1242.65C1001.81 1241.64 1008.78 1240.61 1017.75 1241.47C1021.44 1241.78 1027.78 1242.3 1034.42 1247.61C1040.92 1252.81 1042.82 1258.45 1043.84 1261.48L1044.07 1262.17C1047.04 1270.67 1047.76 1277.73 1048.44 1284.55C1048.61 1286.25 1048.78 1287.94 1048.99 1289.66C1049.19 1291.33 1049.36 1292.99 1049.52 1294.65C1050.2 1301.4 1050.85 1307.77 1053.65 1315.62L1053.89 1316.29C1054.76 1318.85 1056.4 1323.62 1061.84 1327.74C1067.18 1331.79 1071.88 1332.14 1074.69 1332.35L1075.47 1332.41C1083.81 1333.16 1090.18 1332.2 1096.94 1331.2C1098.66 1330.94 1100.38 1330.69 1102.12 1330.46C1103.76 1330.25 1105.38 1330.01 1106.99 1329.77C1113.74 1328.77 1120.71 1327.74 1129.68 1328.59C1133.37 1328.9 1139.72 1329.42 1146.36 1334.73C1152.86 1339.93 1154.75 1345.57 1155.77 1348.6L1156 1349.29C1158.98 1357.79 1159.69 1364.85 1160.38 1371.68C1160.54 1373.37 1160.71 1375.07 1160.92 1376.78L1155.43 1377.43C1155.23 1375.69 1155.05 1373.96 1154.88 1372.23C1154.19 1365.43 1153.55 1358.99 1150.79 1351.12L1150.53 1350.36C1149.64 1347.69 1148.14 1343.23 1142.91 1339.05C1137.58 1334.79 1132.56 1334.38 1129.86 1334.15L1129.15 1334.09C1120.84 1333.29 1114.51 1334.24 1107.8 1335.23C1106.15 1335.48 1104.51 1335.72 1102.83 1335.94C1101.12 1336.16 1099.44 1336.41 1097.76 1336.66C1090.97 1337.67 1083.93 1338.71 1074.98 1337.91L1074.27 1337.86C1071.08 1337.62 1065.15 1337.18 1058.5 1332.14C1051.72 1327.01 1049.65 1320.98 1048.66 1318.09C1045.42 1309 1044.71 1301.99 1044.02 1295.21C1043.86 1293.58 1043.7 1291.95 1043.5 1290.31C1043.29 1288.57 1043.12 1286.84 1042.94 1285.11C1042.26 1278.3 1041.61 1271.87 1038.85 1264L1038.59 1263.24C1037.7 1260.57 1036.21 1256.11 1030.97 1251.93C1025.65 1247.67 1020.63 1247.25 1017.93 1247.03L1017.22 1246.97C1008.9 1246.17 1002.57 1247.12 995.87 1248.11C994.219 1248.35 992.572 1248.6 990.9 1248.82C989.188 1249.04 987.509 1249.29 985.822 1249.54C979.031 1250.55 971.997 1251.59 963.049 1250.79L962.337 1250.74C959.151 1250.5 953.212 1250.06 946.563 1245.02C939.787 1239.89 937.719 1233.86 936.727 1230.97C933.486 1221.88 932.777 1214.86 932.091 1208.09C931.929 1206.46 931.763 1204.83 931.566 1203.19C931.358 1201.45 931.184 1199.72 931.008 1197.99C930.325 1191.18 929.677 1184.75 926.919 1176.88L926.66 1176.12C925.768 1173.45 924.271 1168.99 919.039 1164.8C913.712 1160.55 908.692 1160.13 905.994 1159.91L905.285 1159.85C896.97 1159.05 890.64 1159.99 883.936 1160.99C882.285 1161.23 880.638 1161.48 878.966 1161.7C877.253 1161.92 875.574 1162.17 873.887 1162.42C867.097 1163.43 860.059 1164.47 851.114 1163.67L850.402 1163.61C847.216 1163.38 841.278 1162.94 834.628 1157.9C827.852 1152.76 825.784 1146.74 824.792 1143.85C821.551 1134.76 820.843 1127.74 820.156 1120.96C819.994 1119.34 819.829 1117.71 819.631 1116.07C819.423 1114.32 819.249 1112.6 819.073 1110.86C818.39 1104.06 817.742 1097.63 814.984 1089.76L814.725 1088.99C813.833 1086.33 812.337 1081.87 807.104 1077.68C801.778 1073.42 796.757 1073.01 794.059 1072.79L793.35 1072.73C785.056 1071.94 778.712 1072.87 772.001 1073.87C770.35 1074.11 768.703 1074.36 767.031 1074.58C765.319 1074.8 763.639 1075.05 761.952 1075.29C755.165 1076.31 748.127 1077.35 739.179 1076.55L738.467 1076.49C735.28 1076.26 729.342 1075.82 722.693 1070.78C715.917 1065.64 713.849 1059.62 712.856 1056.72C709.616 1047.63 708.907 1040.62 708.22 1033.84C708.058 1032.22 707.893 1030.59 707.695 1028.95C707.487 1027.2 707.314 1025.48 707.137 1023.74C706.454 1016.94 705.807 1010.51 703.048 1002.63L702.789 1001.87C701.897 999.203 700.401 994.744 695.168 990.561C689.842 986.303 684.821 985.889 682.123 985.666L681.414 985.605C673.121 984.821 666.776 985.749 660.065 986.744C658.414 986.989 656.767 987.233 655.095 987.453C653.383 987.672 651.704 987.924 650.017 988.173C643.227 989.191 636.188 990.234 627.244 989.428L626.532 989.371C623.346 989.134 617.407 988.695 610.758 983.656C603.982 978.52 601.914 972.496 600.921 969.601C597.681 960.512 596.972 953.5 596.285 946.72C596.124 945.094 595.958 943.468 595.76 941.825C595.552 940.081 595.379 938.354 595.203 936.621C594.52 929.816 593.872 923.386 591.114 915.512L590.855 914.746C589.963 912.081 588.467 907.621 583.234 903.439C577.907 899.181 572.887 898.767 570.189 898.544L569.48 898.483C561.183 897.696 554.846 898.627 548.131 899.623C546.48 899.868 544.833 900.112 543.161 900.332C541.449 900.551 539.77 900.803 538.083 901.052C531.994 901.962 525.722 902.9 518.025 902.497C517.712 910.294 516.231 916.416 514.788 922.357C514.389 924.008 513.99 925.655 513.619 927.331C513.252 928.971 512.863 930.586 512.471 932.201C510.878 938.801 509.371 945.034 509.414 953.381L509.41 954.096C509.392 956.801 509.356 961.84 513.118 967.522C516.819 973.111 521.127 974.999 523.702 976.128L524.436 976.452C532.036 979.904 538.384 981.127 545.102 982.422C546.806 982.75 548.512 983.077 550.227 983.444C551.838 983.786 553.438 984.091 555.039 984.401C561.736 985.692 568.659 987.023 576.845 990.81C580.233 992.327 586.045 994.932 590.544 1002.13C594.96 1009.2 594.874 1015.15 594.824 1018.35L594.817 1019.07C594.81 1028.08 593.138 1034.98 591.522 1041.65C591.123 1043.3 590.721 1044.95 590.35 1046.63C589.983 1048.27 589.591 1049.89 589.203 1051.5C587.606 1058.1 586.099 1064.33 586.146 1072.68L586.142 1073.39C586.124 1076.1 586.088 1081.14 589.85 1086.82C593.544 1092.41 597.856 1094.3 600.431 1095.42L601.168 1095.75C608.775 1099.21 615.126 1100.43 621.852 1101.72C623.554 1102.05 625.248 1102.38 626.959 1102.74C628.577 1103.08 630.182 1103.39 631.789 1103.7C638.478 1104.99 645.399 1106.33 653.574 1110.11C656.948 1111.62 662.766 1114.22 667.276 1121.43C671.685 1128.49 671.603 1134.44 671.556 1137.63L671.549 1138.37C671.542 1147.38 669.87 1154.28 668.251 1160.96C667.852 1162.61 667.453 1164.25 667.082 1165.93C666.715 1167.57 666.327 1169.18 665.935 1170.8C664.338 1177.4 662.831 1183.63 662.878 1191.98L662.875 1192.69C662.857 1195.4 662.82 1200.44 666.579 1206.12C670.28 1211.71 674.592 1213.6 677.167 1214.73L677.901 1215.05C685.504 1218.51 691.852 1219.73 698.577 1221.02C700.279 1221.35 701.976 1221.68 703.688 1222.04C705.306 1222.38 706.911 1222.69 708.518 1223C715.207 1224.29 722.131 1225.63 730.306 1229.41C733.691 1230.93 739.506 1233.53 744.009 1240.73C748.426 1247.8 748.336 1253.75 748.285 1256.94L748.278 1257.67C748.271 1266.69 746.595 1273.6 744.976 1280.28C744.577 1281.92 744.181 1283.56 743.811 1285.23C743.444 1286.87 743.052 1288.5 742.66 1290.12C741.067 1296.72 739.563 1302.94 739.61 1311.27L739.606 1311.99C739.588 1314.7 739.552 1319.74 743.311 1325.42C747.011 1331.01 751.324 1332.9 753.899 1334.03L754.633 1334.35C762.236 1337.81 768.584 1339.02 775.309 1340.32C777.011 1340.65 778.708 1340.97 780.42 1341.34C782.038 1341.68 783.643 1341.99 785.25 1342.3C791.94 1343.59 798.863 1344.92 807.038 1348.71C810.426 1350.22 816.238 1352.83 820.737 1360.03C825.157 1367.1 825.067 1373.05 825.016 1376.24L825.009 1376.97C825.002 1385.97 823.329 1392.88 821.711 1399.55C821.312 1401.2 820.912 1402.85 820.542 1404.53C820.175 1406.17 819.783 1407.8 819.391 1409.42C817.798 1416.02 816.295 1422.24 816.337 1430.58V1431.3C816.319 1434.01 816.287 1439.04 820.041 1444.72C823.742 1450.31 828.054 1452.19 830.629 1453.32L831.363 1453.65C838.973 1457.11 845.325 1458.33 852.05 1459.62C853.747 1459.95 855.441 1460.27 857.149 1460.64C858.761 1460.98 860.357 1461.28 861.958 1461.59C868.654 1462.88 875.578 1464.22 883.767 1468C887.155 1469.52 892.967 1472.13 897.466 1479.33C901.886 1486.39 901.796 1492.35 901.745 1495.54L901.738 1496.26C901.731 1505.27 900.059 1512.17 898.444 1518.84C898.045 1520.49 897.642 1522.15 897.271 1523.83C896.904 1525.47 896.512 1527.09 896.12 1528.72C894.527 1535.31 893.023 1541.53 893.067 1549.87L893.063 1550.59C893.045 1553.29 893.009 1558.33 896.767 1564.01C900.472 1569.61 904.78 1571.49 907.359 1572.62L908.089 1572.95C915.696 1576.4 922.048 1577.62 928.773 1578.92C930.47 1579.24 932.168 1579.57 933.88 1579.93L932.743 1585.33Z" fill="#803738"/>
        <path d="M500.727 1804.75C499.26 1803.87 497.793 1803.02 496.325 1802.18C490.362 1798.76 484.201 1795.23 477.648 1789.03L477.123 1788.54C474.768 1786.38 470.383 1782.36 468.294 1774.29C466.161 1766.07 468.265 1760.07 469.276 1757.18C472.376 1748.01 476.17 1742.06 479.839 1736.32C480.716 1734.94 481.59 1733.57 482.45 1732.17C483.367 1730.67 484.298 1729.21 485.233 1727.74C488.916 1721.97 492.393 1716.53 495.113 1708.63L495.383 1707.87C496.336 1705.22 497.926 1700.8 496.415 1694.27C494.873 1687.63 491.19 1684.19 489.211 1682.35L488.693 1681.86C482.672 1676.09 477.116 1672.9 471.232 1669.52C469.786 1668.69 468.34 1667.86 466.891 1667C465.424 1666.11 463.953 1665.27 462.486 1664.43C456.523 1661.01 450.362 1657.48 443.809 1651.29L443.269 1650.79C440.921 1648.62 436.543 1644.59 434.454 1636.54C432.322 1628.31 434.433 1622.3 435.447 1619.41C438.53 1610.27 442.316 1604.34 445.981 1598.59C446.862 1597.21 447.743 1595.83 448.61 1594.41C449.523 1592.92 450.448 1591.47 451.38 1590.02C455.066 1584.24 458.551 1578.79 461.274 1570.89L461.54 1570.13C462.493 1567.49 464.09 1563.06 462.576 1556.53C461.037 1549.89 457.354 1546.45 455.376 1544.6L454.855 1544.11C448.834 1538.34 443.278 1535.15 437.394 1531.78C435.948 1530.95 434.502 1530.11 433.053 1529.25C431.582 1528.37 430.111 1527.52 428.64 1526.68C422.684 1523.26 416.523 1519.73 409.974 1513.54L409.441 1513.04C407.085 1510.88 402.709 1506.85 400.619 1498.79C398.486 1490.58 400.59 1484.57 401.601 1481.68C404.698 1472.52 408.488 1466.58 412.153 1460.83C413.034 1459.45 413.912 1458.08 414.775 1456.67C415.692 1455.17 416.623 1453.71 417.558 1452.24C421.241 1446.47 424.719 1441.03 427.438 1433.13L427.704 1432.38C428.657 1429.74 430.254 1425.31 428.74 1418.78C427.197 1412.13 423.514 1408.7 421.536 1406.85L421.018 1406.36C414.997 1400.59 409.441 1397.4 403.557 1394.03C402.111 1393.2 400.665 1392.36 399.216 1391.5C397.748 1390.62 396.277 1389.77 394.81 1388.93C388.847 1385.52 382.686 1381.98 376.133 1375.79L375.604 1375.29C373.248 1373.13 368.871 1369.1 366.778 1361.04C364.646 1352.81 366.757 1346.8 367.771 1343.91C370.86 1334.77 374.648 1328.84 378.309 1323.09C379.19 1321.71 380.071 1320.33 380.934 1318.92C381.847 1317.43 382.772 1315.97 383.704 1314.52C387.391 1308.74 390.875 1303.29 393.598 1295.39L393.864 1294.64C394.817 1291.99 396.414 1287.56 394.9 1281.03C393.361 1274.39 389.678 1270.95 387.7 1269.1L387.179 1268.61C381.158 1262.85 375.602 1259.66 369.718 1256.28C368.272 1255.45 366.826 1254.62 365.377 1253.75C363.906 1252.87 362.435 1252.02 360.964 1251.18C355.008 1247.76 348.848 1244.23 342.298 1238.04L341.766 1237.54C339.41 1235.38 335.033 1231.36 332.943 1223.29C330.81 1215.08 332.914 1209.07 333.925 1206.18C337.022 1197.02 340.813 1191.08 344.481 1185.33C345.358 1183.95 346.236 1182.58 347.099 1181.17C348.012 1179.68 348.944 1178.22 349.875 1176.76C353.558 1170.99 357.04 1165.54 359.762 1157.64L360.028 1156.89C360.981 1154.24 362.578 1149.81 361.064 1143.28C359.524 1136.65 355.845 1133.21 353.867 1131.36L353.338 1130.86C347.314 1125.09 341.754 1121.9 335.87 1118.52C334.424 1117.69 332.986 1116.87 331.543 1116C330.061 1115.12 328.59 1114.27 327.112 1113.43C321.16 1110.01 315.003 1106.48 308.461 1100.29L307.936 1099.8C305.581 1097.64 301.196 1093.61 299.103 1085.54C296.97 1077.32 299.081 1071.31 300.095 1068.42C303.185 1059.28 306.972 1053.33 310.633 1047.59C311.514 1046.21 312.395 1044.83 313.258 1043.42C314.172 1041.93 315.099 1040.47 316.031 1039.02C319.718 1033.24 323.202 1027.8 325.925 1019.89L326.91 1017.03L329.744 1018.05C337.581 1021.55 343.94 1022.72 350.676 1023.97C352.378 1024.28 354.075 1024.59 355.787 1024.95C357.413 1025.28 359.023 1025.58 360.639 1025.87C367.332 1027.12 374.259 1028.4 382.455 1032.13C385.854 1033.62 391.687 1036.18 396.237 1043.35C400.7 1050.38 400.654 1056.33 400.631 1059.52L400.628 1060.25C400.685 1069.26 399.064 1076.17 397.495 1082.85C397.106 1084.51 396.718 1086.16 396.359 1087.84C396.002 1089.5 395.622 1091.12 395.24 1092.75C393.697 1099.35 392.237 1105.58 392.342 1113.92L392.345 1114.64C392.345 1117.34 392.345 1122.38 396.147 1128.04C399.884 1133.6 404.21 1135.46 406.796 1136.57L407.53 1136.89C415.162 1140.3 421.524 1141.47 428.256 1142.72C429.958 1143.03 431.655 1143.34 433.367 1143.69C434.993 1144.02 436.604 1144.32 438.219 1144.63C444.912 1145.87 451.839 1147.15 460.035 1150.87C463.43 1152.36 469.264 1154.92 473.817 1162.09C478.287 1169.14 478.237 1175.09 478.212 1178.29L478.208 1179.01C478.265 1188.01 476.644 1194.92 475.075 1201.61C474.686 1203.26 474.298 1204.91 473.938 1206.59C473.582 1208.25 473.204 1209.87 472.823 1211.49C471.276 1218.1 469.816 1224.33 469.921 1232.67L469.925 1233.38C469.925 1236.09 469.925 1241.13 473.723 1246.79C477.463 1252.35 481.786 1254.2 484.372 1255.32L485.109 1255.63C492.741 1259.04 499.103 1260.22 505.835 1261.46C507.536 1261.78 509.234 1262.09 510.946 1262.44C512.572 1262.77 514.183 1263.07 515.798 1263.37C522.491 1264.61 529.418 1265.9 537.615 1269.62C541.021 1271.12 546.851 1273.68 551.397 1280.84C555.867 1287.88 555.817 1293.84 555.792 1297.04L555.788 1297.75C555.845 1306.75 554.224 1313.67 552.655 1320.35C552.267 1322.01 551.878 1323.66 551.518 1325.34C551.162 1326.99 550.784 1328.61 550.403 1330.24C548.857 1336.84 547.396 1343.08 547.501 1351.42L547.505 1352.14C547.505 1354.85 547.509 1359.89 551.303 1365.54C555.043 1371.1 559.366 1372.95 561.952 1374.07L562.689 1374.39C570.31 1377.78 576.665 1378.96 583.39 1380.21C585.099 1380.52 586.803 1380.84 588.526 1381.19C590.144 1381.52 591.745 1381.82 593.353 1382.12C600.057 1383.36 606.988 1384.64 615.198 1388.37C618.589 1389.86 624.423 1392.42 628.976 1399.59C633.443 1406.63 633.396 1412.57 633.375 1415.77L633.371 1416.49C633.425 1425.51 631.799 1432.43 630.231 1439.12C629.843 1440.77 629.458 1442.41 629.098 1444.09C628.742 1445.74 628.364 1447.36 627.983 1448.99C626.437 1455.59 624.976 1461.83 625.081 1470.16L625.085 1470.89C625.085 1473.6 625.089 1478.63 628.886 1484.28C632.623 1489.84 636.949 1491.7 639.532 1492.81L640.269 1493.13C647.89 1496.53 654.245 1497.71 660.974 1498.95C662.683 1499.27 664.391 1499.59 666.11 1499.94C667.725 1500.27 669.329 1500.56 670.937 1500.86C677.638 1502.1 684.568 1503.39 692.779 1507.12C696.175 1508.61 702.004 1511.17 706.557 1518.34C711.024 1525.37 710.977 1531.32 710.956 1534.51L710.952 1535.24C711.006 1544.26 709.38 1551.18 707.812 1557.87C707.424 1559.52 707.039 1561.16 706.679 1562.83C706.323 1564.48 705.945 1566.11 705.565 1567.73C704.018 1574.34 702.558 1580.58 702.662 1588.91L702.666 1589.63C702.67 1592.34 702.673 1597.38 706.468 1603.03C710.208 1608.59 714.531 1610.45 717.117 1611.56L717.851 1611.88C725.472 1615.28 731.827 1616.45 738.557 1617.7C740.265 1618.02 741.973 1618.33 743.692 1618.68C745.307 1619.01 746.911 1619.31 748.519 1619.61C755.22 1620.85 762.15 1622.13 770.361 1625.86C773.757 1627.36 779.587 1629.92 784.139 1637.08C788.606 1644.12 788.559 1650.06 788.538 1653.26L788.534 1653.99C788.588 1663.01 786.962 1669.93 785.394 1676.62C785.006 1678.27 784.621 1679.91 784.261 1681.58L778.859 1680.42C779.226 1678.71 779.622 1677.04 780.014 1675.36C781.582 1668.68 783.06 1662.39 783.009 1654.02L783.013 1653.22C783.034 1650.41 783.07 1645.7 779.477 1640.05C775.823 1634.3 771.213 1632.27 768.734 1631.18L768.08 1630.89C760.48 1627.44 754.179 1626.28 747.511 1625.04C745.871 1624.74 744.235 1624.43 742.583 1624.09C740.896 1623.75 739.224 1623.44 737.552 1623.13C730.801 1621.88 723.824 1620.59 715.599 1616.92L714.933 1616.63C711.999 1615.37 706.532 1613.02 701.885 1606.11C697.149 1599.07 697.145 1592.7 697.141 1589.64C697.022 1579.97 698.63 1573.11 700.184 1566.47C700.558 1564.88 700.932 1563.29 701.277 1561.68C701.644 1559.97 702.039 1558.29 702.432 1556.61C704 1549.94 705.478 1543.64 705.428 1535.28L705.432 1534.48C705.453 1531.66 705.486 1526.96 701.896 1521.3C698.242 1515.55 693.631 1513.53 691.153 1512.44L690.498 1512.14C682.899 1508.7 676.597 1507.53 669.93 1506.29C668.29 1505.99 666.653 1505.69 665.002 1505.35C663.315 1505 661.643 1504.69 659.971 1504.38C653.22 1503.13 646.243 1501.84 638.018 1498.18L637.353 1497.89C634.415 1496.63 628.944 1494.28 624.301 1487.36C619.569 1480.32 619.565 1473.95 619.561 1470.89C619.442 1461.23 621.05 1454.36 622.604 1447.73C622.978 1446.13 623.352 1444.54 623.697 1442.93C624.064 1441.22 624.459 1439.54 624.851 1437.86C626.419 1431.19 627.898 1424.89 627.847 1416.53L627.851 1415.73C627.872 1412.92 627.905 1408.21 624.316 1402.55C620.662 1396.8 616.047 1394.78 613.569 1393.69L612.914 1393.4C605.319 1389.95 599.017 1388.78 592.346 1387.55C590.706 1387.24 589.069 1386.94 587.418 1386.6C585.731 1386.26 584.059 1385.95 582.383 1385.64C575.636 1384.39 568.659 1383.1 560.437 1379.43L559.772 1379.14C556.834 1377.88 551.363 1375.53 546.72 1368.61C541.987 1361.58 541.984 1355.21 541.98 1352.15C541.861 1342.48 543.469 1335.62 545.023 1328.98C545.397 1327.39 545.771 1325.8 546.116 1324.18C546.483 1322.47 546.878 1320.78 547.278 1319.09C548.839 1312.42 550.317 1306.13 550.263 1297.78L550.267 1296.99C550.288 1294.18 550.328 1289.47 546.735 1283.8C543.088 1278.06 538.474 1276.03 535.996 1274.94L535.33 1274.65C527.748 1271.21 521.451 1270.04 514.787 1268.8C513.139 1268.5 511.496 1268.19 509.838 1267.85C508.162 1267.51 506.497 1267.2 504.832 1266.89C498.078 1265.64 491.09 1264.35 482.857 1260.68L482.196 1260.39C479.257 1259.13 473.787 1256.79 469.14 1249.87C464.4 1242.81 464.4 1236.45 464.4 1233.38C464.281 1223.73 465.889 1216.87 467.442 1210.23C467.816 1208.64 468.19 1207.05 468.536 1205.44C468.903 1203.72 469.298 1202.03 469.698 1200.34C471.259 1193.68 472.737 1187.39 472.683 1179.04L472.687 1178.24C472.708 1175.43 472.748 1170.72 469.155 1165.06C465.501 1159.3 460.886 1157.28 458.405 1156.19L457.754 1155.9C450.169 1152.46 443.871 1151.3 437.207 1150.06C435.559 1149.75 433.916 1149.45 432.258 1149.11C430.581 1148.76 428.917 1148.46 427.252 1148.15C420.498 1146.9 413.51 1145.61 405.277 1141.93L404.616 1141.65C401.677 1140.39 396.207 1138.04 391.56 1131.12C386.819 1124.07 386.819 1117.7 386.819 1114.64C386.7 1104.99 388.308 1098.12 389.862 1091.49C390.236 1089.9 390.607 1088.31 390.956 1086.69C391.326 1084.97 391.722 1083.28 392.117 1081.59C393.678 1074.93 395.156 1068.64 395.102 1060.29L395.105 1059.48C395.127 1056.67 395.163 1051.97 391.573 1046.31C387.923 1040.56 383.309 1038.54 380.827 1037.45L380.172 1037.16C372.587 1033.71 366.289 1032.55 359.625 1031.31C357.978 1031.01 356.335 1030.7 354.677 1030.36C353.001 1030.02 351.336 1029.71 349.671 1029.4C343.61 1028.28 337.367 1027.13 330.203 1024.25C327.391 1031.5 323.989 1036.83 320.683 1041.99C319.773 1043.42 318.864 1044.85 317.968 1046.31C317.087 1047.75 316.188 1049.15 315.288 1050.56C311.645 1056.28 308.199 1061.68 305.538 1069.58L305.304 1070.26C304.405 1072.81 302.736 1077.56 304.444 1084.16C306.132 1090.65 309.598 1093.83 311.67 1095.74L312.253 1096.28C318.32 1102.01 323.924 1105.23 329.858 1108.63C331.365 1109.5 332.872 1110.36 334.379 1111.27C335.789 1112.11 337.202 1112.92 338.616 1113.73C344.532 1117.13 350.646 1120.64 357.16 1126.88C359.871 1129.42 364.522 1133.76 366.442 1142.03C368.327 1150.16 366.306 1155.76 365.223 1158.77L364.982 1159.44C362.048 1167.96 358.224 1173.95 354.527 1179.74C353.613 1181.16 352.703 1182.59 351.808 1184.06C350.927 1185.5 350.031 1186.9 349.136 1188.3C345.486 1194.02 342.041 1199.42 339.375 1207.33L339.138 1208.01C338.242 1210.57 336.578 1215.32 338.286 1221.91C339.969 1228.39 343.432 1231.58 345.504 1233.48L346.093 1234.03C352.161 1239.77 357.771 1242.99 363.709 1246.39C365.212 1247.25 366.713 1248.11 368.216 1249.01C369.632 1249.86 371.05 1250.68 372.467 1251.49C378.376 1254.88 384.49 1258.39 390.996 1264.63C393.704 1267.16 398.362 1271.51 400.279 1279.78C402.163 1287.9 400.146 1293.5 399.06 1296.51L398.818 1297.19C395.884 1305.72 392.057 1311.7 388.356 1317.5C387.446 1318.92 386.537 1320.35 385.645 1321.8C384.763 1323.24 383.865 1324.65 382.965 1326.06C379.322 1331.78 375.876 1337.18 373.215 1345.07L372.981 1345.74C372.082 1348.3 370.413 1353.06 372.122 1359.66C373.809 1366.14 377.273 1369.33 379.34 1371.23L379.93 1371.78C386.001 1377.52 391.615 1380.74 397.557 1384.14C399.057 1385 400.553 1385.86 402.052 1386.76C403.473 1387.61 404.89 1388.42 406.306 1389.24C412.216 1392.63 418.33 1396.14 424.836 1402.37C427.541 1404.91 432.198 1409.25 434.118 1417.53C436.003 1425.65 433.985 1431.25 432.899 1434.26L432.658 1434.94C429.723 1443.45 425.907 1449.44 422.213 1455.22C421.296 1456.65 420.383 1458.09 419.483 1459.56C418.602 1461 417.706 1462.4 416.807 1463.81C413.16 1469.53 409.715 1474.93 407.05 1482.83L406.813 1483.51C405.917 1486.07 404.252 1490.82 405.961 1497.41C407.644 1503.9 411.107 1507.08 413.18 1508.98L413.769 1509.53C419.837 1515.27 425.447 1518.49 431.385 1521.89C432.888 1522.75 434.388 1523.61 435.892 1524.51C437.309 1525.36 438.726 1526.18 440.143 1526.99C446.052 1530.38 452.166 1533.89 458.672 1540.13C461.38 1542.66 466.038 1547.01 467.955 1555.29C469.839 1563.4 467.822 1569 466.736 1572.01L466.494 1572.69C463.56 1581.22 459.733 1587.21 456.032 1593C455.122 1594.42 454.213 1595.85 453.321 1597.3C452.436 1598.75 451.537 1600.16 450.638 1601.57C446.991 1607.28 443.549 1612.68 440.892 1620.57L440.658 1621.25C439.759 1623.8 438.09 1628.56 439.798 1635.15C441.481 1641.64 444.945 1644.82 447.013 1646.73L447.607 1647.28C453.678 1653.02 459.292 1656.24 465.233 1659.64C466.733 1660.5 468.229 1661.36 469.729 1662.26C471.15 1663.11 472.567 1663.92 473.983 1664.74C479.893 1668.13 486.007 1671.64 492.513 1677.88C495.217 1680.41 499.875 1684.75 501.795 1693.03C503.676 1701.14 501.662 1706.74 500.583 1709.74L500.335 1710.43C497.4 1718.96 493.584 1724.94 489.89 1730.72C488.973 1732.15 488.06 1733.59 487.16 1735.06C486.283 1736.49 485.387 1737.89 484.491 1739.29C480.841 1745.01 477.391 1750.42 474.726 1758.33L474.489 1759.01C473.593 1761.57 471.928 1766.32 473.637 1772.91C475.32 1779.4 478.787 1782.58 480.858 1784.48L481.441 1785.03C487.519 1790.77 493.13 1793.99 499.071 1797.4C500.571 1798.26 502.067 1799.12 503.566 1800.01L500.727 1804.75Z" fill="#803738"/>
        <path d="M20.8825 1872C19.7785 1870.69 18.6635 1869.41 17.5455 1868.14C13.0205 1862.97 8.34253 1857.63 4.15553 1849.64L3.8105 1849C2.2895 1846.19 -0.544491 1840.96 0.0915091 1832.65C0.742509 1824.18 4.69254 1819.19 6.58754 1816.78C12.4855 1809.13 18.0025 1804.74 23.3405 1800.49C24.6175 1799.48 25.8905 1798.46 27.1635 1797.41C28.5125 1796.3 29.8615 1795.22 31.2165 1794.15C36.5755 1789.88 41.6395 1785.86 46.7785 1779.27L47.2826 1778.63C49.0416 1776.44 51.9835 1772.77 52.6695 1766.11C53.3705 1759.33 51.0045 1754.88 49.7315 1752.49L49.3975 1751.86C45.5745 1744.44 41.3515 1739.62 36.8815 1734.51C35.7835 1733.26 34.6905 1732.01 33.6085 1730.72C32.5005 1729.41 31.3825 1728.13 30.2635 1726.86C25.7395 1721.69 21.0605 1716.35 16.8775 1708.37L16.5325 1707.73C15.0105 1704.92 12.1776 1699.69 12.8136 1691.38C13.4686 1682.92 17.4095 1677.92 19.3045 1675.52C25.2025 1667.86 30.7166 1663.47 36.0466 1659.23C37.3266 1658.21 38.6075 1657.19 39.8835 1656.14C41.2325 1655.02 42.5845 1653.95 43.9405 1652.87C49.2995 1648.61 54.3636 1644.58 59.4996 1637.99L59.9956 1637.37C61.7576 1635.18 64.7025 1631.51 65.3935 1624.84C66.0915 1618.07 63.7286 1613.61 62.4586 1611.23L62.1206 1610.59C58.3016 1603.18 54.0856 1598.36 49.6196 1593.26C48.5186 1592 47.4176 1590.74 46.3286 1589.45C45.2206 1588.14 44.1016 1586.86 42.9796 1585.58C38.4586 1580.41 33.7795 1575.08 29.6005 1567.1L29.2625 1566.47C27.7375 1563.66 24.8996 1558.42 25.5366 1550.11C26.1876 1541.64 30.1366 1536.64 32.0326 1534.24C37.9276 1526.59 43.4405 1522.2 48.7745 1517.95C50.0545 1516.93 51.3315 1515.92 52.6085 1514.86C53.9575 1513.75 55.3095 1512.67 56.6655 1511.59C62.0245 1507.33 67.0845 1503.31 72.2205 1496.72L72.7205 1496.1C74.4795 1493.9 77.4286 1490.23 78.1156 1483.56C78.8166 1476.78 76.4476 1472.33 75.1776 1469.94L74.8465 1469.32C71.0235 1461.9 66.8045 1457.08 62.3375 1451.98C61.2375 1450.72 60.1405 1449.47 59.0535 1448.18C57.9455 1446.86 56.8235 1445.58 55.7045 1444.3C51.1805 1439.14 46.5045 1433.8 42.3215 1425.83L41.9725 1425.18C40.4505 1422.37 37.6205 1417.13 38.2575 1408.84C38.9085 1400.38 42.8496 1395.38 44.7456 1392.98C50.6476 1385.32 56.1616 1380.92 61.4956 1376.68C62.7756 1375.66 64.0525 1374.64 65.3295 1373.59C66.6785 1372.48 68.0345 1371.4 69.3895 1370.32C74.7485 1366.06 79.8095 1362.03 84.9455 1355.45L85.4486 1354.82C87.2076 1352.63 90.1495 1348.95 90.8405 1342.29C91.5385 1335.52 89.1755 1331.07 87.9055 1328.68L87.5676 1328.04C83.7486 1320.63 79.5335 1315.82 75.0665 1310.71C73.9655 1309.45 72.8646 1308.2 71.7756 1306.9C70.6676 1305.59 69.5525 1304.31 68.4305 1303.04C63.9055 1297.87 59.2276 1292.53 55.0476 1284.55L54.7026 1283.91C53.1816 1281.1 50.3435 1275.87 50.9835 1267.56C51.6385 1259.09 55.5835 1254.09 57.4835 1251.69C63.3745 1244.04 68.8875 1239.65 74.2175 1235.41C75.4985 1234.39 76.7785 1233.37 78.0555 1232.32C79.4045 1231.2 80.7565 1230.13 82.1125 1229.05C87.4715 1224.79 92.5326 1220.76 97.6676 1214.18L98.1635 1213.55C99.9265 1211.36 102.874 1207.69 103.561 1201.02C104.262 1194.23 101.892 1189.79 100.623 1187.4L100.293 1186.77C96.4696 1179.36 92.2505 1174.54 87.7835 1169.43C86.6835 1168.18 85.5866 1166.92 84.4996 1165.63C83.3956 1164.33 82.2835 1163.06 81.1695 1161.78C76.6415 1156.62 71.9555 1151.27 67.7685 1143.28L67.4235 1142.64C65.9015 1139.83 63.0685 1134.6 63.7045 1126.29C64.3585 1117.82 68.3046 1112.82 70.2036 1110.42C76.1016 1102.76 81.6225 1098.37 86.9565 1094.12C88.2335 1093.11 89.5066 1092.09 90.7766 1091.05C92.1256 1089.93 93.4815 1088.85 94.8365 1087.77C100.196 1083.52 105.257 1079.49 110.393 1072.91L112.198 1070.59L114.539 1072.35C120.88 1078.26 126.515 1081.43 132.482 1084.8C133.989 1085.65 135.49 1086.5 136.997 1087.38C138.414 1088.22 139.83 1089.02 141.251 1089.82C147.189 1093.17 153.332 1096.64 159.892 1102.83C162.625 1105.35 167.304 1109.67 169.283 1117.92C171.222 1126.04 169.243 1131.65 168.179 1134.67L167.945 1135.34C165.072 1143.88 161.287 1149.9 157.633 1155.71C156.731 1157.15 155.832 1158.58 154.948 1160.05C154.074 1161.5 153.185 1162.91 152.293 1164.33C148.69 1170.07 145.288 1175.49 142.683 1183.41L142.453 1184.08C141.572 1186.64 139.939 1191.41 141.698 1198C143.427 1204.47 146.912 1207.63 148.998 1209.52L149.587 1210.06C155.701 1215.76 161.338 1218.94 167.305 1222.3C168.808 1223.15 170.312 1224 171.819 1224.88C173.244 1225.73 174.667 1226.53 176.092 1227.33C182.027 1230.69 188.162 1234.15 194.711 1240.34C197.434 1242.84 202.124 1247.16 204.102 1255.43C206.044 1263.54 204.066 1269.15 203.002 1272.17L202.768 1272.84C199.894 1281.39 196.11 1287.4 192.456 1293.22C191.553 1294.65 190.654 1296.08 189.769 1297.55C188.895 1299 188.008 1300.42 187.12 1301.83C183.512 1307.57 180.11 1313 177.506 1320.91L177.274 1321.58C176.393 1324.14 174.757 1328.91 176.516 1335.5C178.25 1341.97 181.735 1345.14 183.821 1347.02L184.41 1347.56C190.517 1353.26 196.146 1356.43 202.106 1359.79C203.62 1360.65 205.127 1361.5 206.642 1362.39C208.062 1363.23 209.483 1364.03 210.907 1364.84C216.841 1368.19 222.98 1371.65 229.533 1377.84C232.255 1380.35 236.945 1384.66 238.924 1392.93C240.862 1401.02 238.888 1406.64 237.83 1409.65L237.589 1410.34C234.719 1418.87 230.947 1424.88 227.295 1430.69C226.389 1432.13 225.483 1433.58 224.591 1435.05C223.724 1436.49 222.842 1437.9 221.957 1439.3C218.346 1445.05 214.933 1450.48 212.326 1458.41L212.097 1459.09C211.215 1461.65 209.578 1466.42 211.337 1473C213.067 1479.48 216.553 1482.64 218.639 1484.53L219.232 1485.07C225.343 1490.76 230.976 1493.94 236.935 1497.3C238.446 1498.16 239.952 1499.01 241.462 1499.89C242.883 1500.73 244.303 1501.53 245.728 1502.34C251.663 1505.69 257.803 1509.15 264.355 1515.35C267.088 1517.87 271.767 1522.18 273.746 1530.43C275.685 1538.53 273.71 1544.14 272.653 1547.16L272.41 1547.85C269.533 1556.4 265.754 1562.41 262.097 1568.22C261.194 1569.66 260.295 1571.09 259.41 1572.56C258.539 1574 257.655 1575.41 256.77 1576.82C253.163 1582.57 249.754 1588 247.142 1595.92L246.91 1596.61C246.033 1599.17 244.401 1603.94 246.16 1610.51C247.889 1616.98 251.375 1620.14 253.461 1622.03L254.055 1622.57C260.166 1628.27 265.801 1631.45 271.767 1634.82C273.274 1635.66 274.773 1636.51 276.28 1637.4C277.697 1638.24 279.114 1639.03 280.535 1639.84C286.473 1643.19 292.616 1646.66 299.173 1652.85C301.903 1655.36 306.585 1659.68 308.564 1667.94C310.506 1676.05 308.527 1681.67 307.462 1684.68L307.228 1685.36C304.355 1693.9 300.572 1699.91 296.918 1705.73C296.015 1707.16 295.116 1708.6 294.232 1710.06C293.357 1711.51 292.469 1712.93 291.577 1714.35C287.973 1720.09 284.57 1725.51 281.962 1733.42L281.737 1734.1C280.855 1736.66 279.219 1741.43 280.978 1748.01C282.712 1754.49 286.197 1757.65 288.283 1759.54L288.873 1760.08C294.987 1765.77 300.623 1768.95 306.59 1772.32C308.093 1773.17 309.596 1774.02 311.103 1774.9C312.527 1775.74 313.952 1776.55 315.377 1777.35C321.311 1780.7 327.447 1784.17 333.996 1790.36C336.718 1792.86 341.408 1797.18 343.387 1805.44C345.326 1813.54 343.351 1819.15 342.294 1822.17L342.052 1822.86C339.179 1831.4 335.399 1837.42 331.741 1843.23C330.839 1844.67 329.939 1846.1 329.055 1847.57L324.322 1844.72C325.225 1843.22 326.146 1841.76 327.066 1840.29C330.709 1834.5 334.151 1829.02 336.816 1821.1L337.082 1820.34C338.014 1817.68 339.575 1813.24 338.014 1806.73C336.428 1800.1 332.719 1796.69 330.724 1794.86L330.205 1794.37C324.142 1788.64 318.566 1785.5 312.66 1782.16C311.207 1781.34 309.755 1780.52 308.298 1779.66C306.823 1778.79 305.349 1777.96 303.874 1777.13C297.889 1773.76 291.699 1770.27 285.103 1764.12L284.571 1763.63C282.204 1761.49 277.795 1757.49 275.641 1749.44C273.451 1741.23 275.519 1735.2 276.512 1732.31C279.533 1723.15 283.277 1717.18 286.898 1711.41C287.772 1710.02 288.643 1708.64 289.499 1707.22C290.401 1705.72 291.321 1704.26 292.238 1702.79C295.886 1696.99 299.328 1691.52 301.993 1683.59L302.252 1682.85C303.188 1680.19 304.756 1675.75 303.191 1669.23C301.604 1662.6 297.9 1659.19 295.908 1657.36L295.383 1656.86C289.312 1651.13 283.729 1647.98 277.816 1644.65C276.37 1643.83 274.926 1643.01 273.476 1642.16C272.001 1641.29 270.53 1640.46 269.056 1639.63C263.068 1636.25 256.882 1632.76 250.285 1626.62L249.748 1626.13C247.381 1623.98 242.969 1619.98 240.821 1611.93C238.63 1603.74 240.692 1597.72 241.685 1594.82C244.717 1585.63 248.464 1579.66 252.09 1573.89C252.96 1572.5 253.823 1571.12 254.675 1569.71C255.578 1568.21 256.499 1566.75 257.419 1565.29C261.062 1559.49 264.508 1554.01 267.173 1546.09L267.439 1545.33C268.371 1542.67 269.932 1538.24 268.371 1531.72C266.785 1525.11 263.084 1521.69 261.091 1519.86L260.559 1519.36C254.499 1513.64 248.917 1510.49 243.011 1507.15C241.558 1506.33 240.108 1505.52 238.655 1504.66C237.177 1503.79 235.7 1502.95 234.222 1502.12C228.241 1498.75 222.055 1495.26 215.462 1489.11L214.927 1488.63C212.56 1486.48 208.147 1482.48 206 1474.43C203.807 1466.22 205.874 1460.2 206.871 1457.3C209.899 1448.12 213.65 1442.15 217.283 1436.37C218.146 1434.99 219.008 1433.62 219.857 1432.21C220.767 1430.7 221.692 1429.23 222.62 1427.75C226.256 1421.96 229.694 1416.49 232.352 1408.59L232.618 1407.83C233.55 1405.17 235.111 1400.73 233.55 1394.22C231.963 1387.59 228.255 1384.18 226.258 1382.34L225.741 1381.86C219.678 1376.14 214.096 1372.99 208.19 1369.65C206.737 1368.83 205.288 1368.01 203.835 1367.16C202.353 1366.28 200.87 1365.45 199.389 1364.61C193.412 1361.24 187.23 1357.75 180.641 1351.61L180.108 1351.12C177.741 1348.98 173.333 1344.98 171.179 1336.93C168.988 1328.71 171.057 1322.69 172.05 1319.79C175.071 1310.63 178.818 1304.67 182.44 1298.9C183.311 1297.51 184.18 1296.12 185.035 1294.7C185.938 1293.2 186.86 1291.74 187.777 1290.28C191.424 1284.48 194.865 1279.01 197.53 1271.08L197.79 1270.33C198.725 1267.68 200.292 1263.24 198.727 1256.72C197.141 1250.09 193.431 1246.67 191.438 1244.84L190.92 1244.36C184.856 1238.63 179.282 1235.48 173.376 1232.15C171.923 1231.33 170.47 1230.51 169.014 1229.65C167.539 1228.78 166.065 1227.95 164.59 1227.12C158.605 1223.74 152.415 1220.25 145.819 1214.11L145.287 1213.62C142.92 1211.47 138.511 1207.47 136.36 1199.43C134.167 1191.21 136.235 1185.19 137.227 1182.3C140.248 1173.13 143.991 1167.16 147.613 1161.4C148.487 1160.01 149.358 1158.62 150.214 1157.2C151.117 1155.7 152.038 1154.24 152.955 1152.78C156.602 1146.98 160.044 1141.5 162.709 1133.58L162.967 1132.83C163.905 1130.18 165.471 1125.74 163.91 1119.22C162.324 1112.6 158.623 1109.18 156.631 1107.35L156.097 1106.85C150.03 1101.13 144.449 1097.97 138.537 1094.63C137.087 1093.82 135.64 1093 134.191 1092.15C132.716 1091.28 131.246 1090.45 129.772 1089.62C124.402 1086.59 118.867 1083.47 113.027 1078.42C107.985 1084.38 103.058 1088.3 98.2766 1092.11C96.9466 1093.16 95.6185 1094.22 94.2955 1095.31C93.0005 1096.38 91.7026 1097.42 90.4006 1098.45C85.0886 1102.68 80.0715 1106.67 74.9815 1113.28L74.5395 1113.85C72.8625 1115.97 69.7375 1119.93 69.2165 1126.72C68.7025 1133.4 70.9425 1137.54 72.2805 1140.01L72.6616 1140.72C76.5456 1148.13 80.8106 1153 85.3286 1158.15C86.4656 1159.45 87.5976 1160.74 88.7246 1162.08C89.7926 1163.34 90.8676 1164.57 91.9436 1165.8C96.4316 1170.93 101.072 1176.23 105.204 1184.24C106.941 1187.51 109.933 1193.13 109.059 1201.59C108.203 1209.88 104.477 1214.53 102.474 1217.02L102.024 1217.58C96.4855 1224.69 90.9286 1229.11 85.5516 1233.38C84.2246 1234.44 82.8966 1235.49 81.5736 1236.58C80.2716 1237.66 78.9665 1238.7 77.6605 1239.74C72.3525 1243.96 67.3416 1247.95 62.2606 1254.56L61.8176 1255.12C60.1416 1257.24 57.0166 1261.2 56.4956 1268C55.9776 1274.68 58.2216 1278.81 59.5636 1281.29L59.9405 1281.99C63.8175 1289.39 68.0796 1294.25 72.5896 1299.4C73.7296 1300.71 74.8696 1302.01 75.9996 1303.35C77.0676 1304.62 78.1465 1305.85 79.2255 1307.08C83.7145 1312.21 88.3535 1317.51 92.4825 1325.52C94.2225 1328.8 97.2086 1334.42 96.3386 1342.87C95.4816 1351.15 91.7606 1355.79 89.7606 1358.28L89.3076 1358.85C83.7616 1365.96 78.2045 1370.37 72.8315 1374.65C71.5015 1375.71 70.1745 1376.76 68.8505 1377.86C67.5525 1378.93 66.2466 1379.97 64.9376 1381.01C59.6326 1385.24 54.6186 1389.22 49.5366 1395.83L49.0875 1396.4C47.4115 1398.53 44.2936 1402.48 43.7716 1409.27C43.2576 1415.94 45.4985 1420.08 46.8355 1422.55L47.2205 1423.27C51.0945 1430.66 55.3525 1435.52 59.8625 1440.67C61.0065 1441.97 62.1505 1443.28 63.2795 1444.62C64.3475 1445.88 65.4225 1447.11 66.4985 1448.35C70.9875 1453.47 75.6265 1458.78 79.7585 1466.79C81.4955 1470.05 84.4885 1475.68 83.6135 1484.14C82.7615 1492.42 79.0315 1497.07 77.0285 1499.56L76.5786 1500.13C71.0406 1507.23 65.4835 1511.65 60.1065 1515.92C58.7795 1516.98 57.4525 1518.03 56.1295 1519.13C54.8305 1520.2 53.5255 1521.24 52.2165 1522.28C46.9115 1526.51 41.8975 1530.49 36.8165 1537.1L36.3735 1537.67C34.6945 1539.79 31.5726 1543.74 31.0516 1550.54C30.5376 1557.23 32.7805 1561.37 34.1235 1563.84L34.4975 1564.54C38.3745 1571.93 42.6325 1576.8 47.1435 1581.94C48.2865 1583.25 49.4265 1584.55 50.5565 1585.89C51.6255 1587.16 52.7036 1588.39 53.7826 1589.62C58.2716 1594.75 62.9105 1600.05 67.0395 1608.06C68.7805 1611.34 71.7656 1616.96 70.8956 1625.41C70.0356 1633.7 66.3095 1638.34 64.3095 1640.83L63.8606 1641.4C58.3216 1648.5 52.7615 1652.92 47.3845 1657.2C46.0575 1658.25 44.7296 1659.31 43.4066 1660.4C42.1046 1661.48 40.7996 1662.52 39.4906 1663.56C34.1856 1667.78 29.1756 1671.77 24.0946 1678.37L23.6485 1678.95C21.9725 1681.07 18.8545 1685.02 18.3295 1691.81C17.8155 1698.49 20.0565 1702.63 21.3975 1705.1L21.7755 1705.81C25.6565 1713.21 29.9145 1718.07 34.4285 1723.22C35.5685 1724.53 36.7085 1725.83 37.8375 1727.17C38.8985 1728.43 39.9695 1729.65 41.0455 1730.88C45.5375 1736.01 50.1815 1741.32 54.3165 1749.33C56.0535 1752.61 59.0456 1758.23 58.1716 1766.68C57.3196 1774.96 53.5965 1779.6 51.5965 1782.09L51.1435 1782.67C45.5975 1789.78 40.0375 1794.2 34.6605 1798.47C33.3335 1799.53 32.0105 1800.58 30.6865 1801.67C29.3875 1802.75 28.0895 1803.78 26.7845 1804.82C21.4765 1809.04 16.4586 1813.04 11.3736 1819.65L10.9306 1820.21C9.25156 1822.34 6.12956 1826.29 5.60756 1833.08C5.09356 1839.76 7.33455 1843.9 8.67555 1846.38L9.05354 1847.08C12.9335 1854.49 17.1956 1859.35 21.7096 1864.5C22.8496 1865.8 23.9865 1867.1 25.1115 1868.44L20.8825 1872Z" fill="#803738"/>
        <path d="M1491.18 341.329C1482.79 341.329 1477.54 337.844 1475 336.164C1466.9 330.928 1462.07 325.795 1457.4 320.832C1456.28 319.638 1455.16 318.448 1454 317.264C1452.78 316.013 1451.6 314.754 1450.41 313.491C1445.72 308.503 1441.29 303.791 1434.3 299.21L1433.64 298.767C1431.31 297.195 1427.41 294.559 1420.71 294.426C1413.77 294.171 1409.65 297.016 1407.37 298.479L1406.77 298.864C1399.7 303.288 1395.24 307.895 1390.52 312.772C1389.36 313.966 1388.2 315.16 1387.01 316.347C1385.79 317.563 1384.62 318.782 1383.43 320.005C1378.66 324.939 1373.72 330.043 1366.11 334.866L1365.51 335.258C1362.84 337.01 1357.86 340.268 1349.52 340.318C1340.95 340.627 1335.72 336.844 1333.16 335.149C1325.06 329.913 1320.23 324.78 1315.56 319.817C1314.44 318.623 1313.32 317.433 1312.16 316.249C1310.94 314.997 1309.76 313.739 1308.57 312.48C1303.88 307.488 1299.46 302.776 1292.46 298.202L1291.79 297.753C1289.46 296.181 1285.56 293.549 1278.87 293.415C1271.98 293.257 1267.81 296.005 1265.53 297.465L1264.93 297.85C1257.87 302.27 1253.41 306.87 1248.7 311.743C1247.53 312.944 1246.37 314.142 1245.17 315.332C1243.96 316.548 1242.78 317.767 1241.59 318.99C1236.82 323.924 1231.88 329.028 1224.27 333.851L1223.67 334.243C1221 335.995 1216.02 339.257 1207.68 339.303C1207.62 339.303 1207.56 339.303 1207.5 339.303C1199.12 339.303 1193.87 335.825 1191.34 334.146C1183.21 328.899 1178.38 323.763 1173.71 318.796C1172.59 317.606 1171.48 316.419 1170.32 315.235C1169.1 313.984 1167.92 312.725 1166.73 311.466C1162.04 306.474 1157.62 301.762 1150.62 297.188L1149.95 296.739C1147.62 295.167 1143.72 292.535 1137.02 292.401C1130.02 292.372 1125.98 294.991 1123.7 296.448L1123.09 296.836C1116.02 301.256 1111.57 305.86 1106.85 310.733C1105.69 311.934 1104.53 313.132 1103.34 314.322C1102.12 315.534 1100.94 316.753 1099.76 317.972C1094.98 322.906 1090.05 328.01 1082.44 332.837L1081.84 333.229C1079.16 334.981 1074.18 338.243 1065.85 338.293C1057.58 338.513 1052.04 334.819 1049.49 333.125C1041.38 327.889 1036.55 322.756 1031.88 317.793C1030.76 316.599 1029.64 315.409 1028.48 314.225C1027.27 312.977 1026.08 311.718 1024.9 310.456C1020.21 305.468 1015.77 300.753 1008.78 296.171L1008.11 295.725C1005.78 294.153 1001.88 291.521 995.184 291.387C988.214 291.179 984.132 293.98 981.855 295.44L981.251 295.825C974.18 300.249 969.724 304.852 965.005 309.726C963.847 310.924 962.689 312.121 961.495 313.308C960.275 314.524 959.096 315.743 957.912 316.966C953.14 321.9 948.202 327.004 940.595 331.827L939.994 332.219C937.318 333.971 932.337 337.233 924 337.279C923.943 337.279 923.885 337.279 923.831 337.279C915.43 337.279 910.179 333.794 907.643 332.11C899.53 326.866 894.699 321.731 890.023 316.764C888.909 315.577 887.794 314.39 886.643 313.21C885.423 311.962 884.24 310.703 883.057 309.445C878.367 304.453 873.933 299.742 866.941 295.163L866.272 294.714C863.941 293.142 860.039 290.51 853.343 290.376C846.606 290.301 842.294 292.966 840.014 294.426L839.41 294.811C832.346 299.231 827.894 303.827 823.178 308.697C822.013 309.902 820.851 311.103 819.653 312.294C818.434 313.51 817.254 314.729 816.071 315.952C811.298 320.886 806.36 325.99 798.753 330.813L798.142 331.212C795.466 332.96 790.489 336.218 782.159 336.265C773.617 336.006 768.366 332.798 765.816 331.111C757.692 325.86 752.862 320.725 748.19 315.757C747.071 314.567 745.957 313.38 744.802 312.196C743.576 310.941 742.389 309.678 741.199 308.413C736.512 303.428 732.085 298.72 725.1 294.146L722.594 292.506L724.241 290.013C729.568 283.255 732.269 277.375 735.131 271.153C735.854 269.581 736.573 268.013 737.333 266.437C738.056 264.945 738.739 263.459 739.422 261.97C742.275 255.784 745.22 249.382 750.841 242.347C753.125 239.42 757.038 234.395 765.105 231.741C773.002 229.144 778.765 230.647 781.857 231.453L782.566 231.633C791.327 233.799 797.635 237.071 803.735 240.236C805.238 241.013 806.738 241.793 808.27 242.553C809.781 243.301 811.263 244.067 812.748 244.836C818.769 247.955 824.455 250.9 832.562 252.846L833.267 253.022C835.888 253.684 840.776 254.922 847.178 252.623C853.49 250.365 856.353 246.628 858.062 244.395L858.555 243.762C863.726 237.198 866.427 231.325 869.287 225.103C870.01 223.527 870.733 221.96 871.492 220.381C872.215 218.889 872.898 217.403 873.585 215.915C876.433 209.728 879.379 203.327 885 196.292C887.284 193.364 891.197 188.34 899.264 185.686C907.176 183.089 912.935 184.596 916.028 185.402L916.729 185.582C925.49 187.744 931.798 191.016 937.898 194.181C939.401 194.961 940.898 195.738 942.43 196.497C943.941 197.245 945.422 198.011 946.908 198.781C952.929 201.899 958.614 204.844 966.721 206.79L967.426 206.966C970.052 207.631 974.936 208.869 981.341 206.567C987.649 204.312 990.508 200.575 992.22 198.342L992.713 197.706C997.885 191.146 1000.58 185.273 1003.44 179.055C1004.16 177.479 1004.89 175.908 1005.65 174.329C1006.37 172.84 1007.05 171.355 1007.74 169.869C1010.59 163.68 1013.53 157.274 1019.16 150.239C1021.45 147.307 1025.36 142.283 1033.42 139.632C1041.33 137.025 1047.09 138.539 1050.19 139.345L1050.89 139.525C1059.63 141.682 1065.94 144.952 1072.03 148.113C1073.54 148.893 1075.04 149.678 1076.59 150.44C1078.1 151.188 1079.58 151.954 1081.07 152.724C1087.09 155.842 1092.77 158.788 1100.88 160.734L1101.57 160.906C1104.21 161.578 1109.09 162.812 1115.5 160.51C1121.81 158.251 1124.67 154.514 1126.38 152.281L1126.87 151.651C1132.04 145.084 1134.75 139.207 1137.61 132.989C1138.33 131.413 1139.05 129.845 1139.81 128.27C1140.53 126.789 1141.21 125.31 1141.89 123.832C1144.74 117.635 1147.69 111.226 1153.32 104.18C1155.6 101.249 1159.52 96.2278 1167.58 93.5738C1175.49 90.9668 1181.25 92.4768 1184.34 93.2858L1185.05 93.4658C1193.79 95.6238 1200.09 98.8938 1206.19 102.055C1207.7 102.835 1209.2 103.62 1210.75 104.382C1212.25 105.126 1213.73 105.892 1215.21 106.659C1221.23 109.781 1226.92 112.733 1235.04 114.675L1235.73 114.848C1238.36 115.521 1243.24 116.754 1249.66 114.453C1255.96 112.198 1258.83 108.461 1260.54 106.231L1261.03 105.591C1266.2 99.0308 1268.9 93.1548 1271.77 86.9358C1272.49 85.3598 1273.21 83.7888 1273.97 82.2138C1274.69 80.7358 1275.36 79.2608 1276.04 77.7868C1278.9 71.5858 1281.84 65.1738 1287.48 58.1248C1289.76 55.2008 1293.67 50.1768 1301.74 47.5188C1309.65 44.9108 1315.42 46.4208 1318.51 47.2308L1319.21 47.4108C1327.95 49.5688 1334.25 52.8378 1340.35 55.9988C1341.86 56.7798 1343.36 57.5628 1344.91 58.3258C1346.42 59.0738 1347.89 59.8398 1349.38 60.6058C1355.4 63.7278 1361.09 66.6768 1369.2 68.6188L1369.9 68.7908C1372.52 69.4598 1377.41 70.6898 1383.82 68.3988C1390.13 66.1368 1392.99 62.3998 1394.7 60.1658L1395.19 59.5368C1400.36 52.9728 1403.06 47.0958 1405.93 40.8778C1406.65 39.3018 1407.37 37.7308 1408.13 36.1558C1408.85 34.6628 1409.54 33.1778 1410.22 31.6888C1413.07 25.5028 1416.02 19.1008 1421.64 12.0668C1423.92 9.14279 1427.83 4.1188 1435.9 1.4598C1443.82 -1.1402 1449.58 0.362799 1452.67 1.1758L1453.37 1.3528C1462.12 3.5098 1468.42 6.77984 1474.52 9.94484C1476.02 10.7248 1477.53 11.5058 1479.07 12.2678L1476.62 17.2168C1475.05 16.4398 1473.51 15.6448 1471.97 14.8468C1465.9 11.6968 1460.16 8.71883 1452.05 6.71883L1451.28 6.52083C1448.56 5.80883 1444 4.61181 1437.63 6.71181C1431.15 8.84181 1428.06 12.8148 1426.4 14.9518L1425.96 15.5128C1420.76 22.0258 1418.08 27.8418 1415.24 34.0028C1414.54 35.5198 1413.84 37.0378 1413.11 38.5588C1412.36 40.1058 1411.65 41.6448 1410.94 43.1848C1408.08 49.4238 1405.11 55.8768 1399.53 62.9548L1399.09 63.5268C1397.15 66.0658 1393.53 70.7918 1385.68 73.6008C1377.68 76.4628 1371.5 74.8988 1368.54 74.1478C1359.15 71.8928 1352.89 68.6488 1346.84 65.5128C1345.39 64.7618 1343.94 64.0098 1342.46 63.2758C1340.88 62.4988 1339.35 61.6998 1337.81 60.9018C1331.73 57.7518 1325.99 54.7768 1317.89 52.7778L1317.11 52.5768C1314.4 51.8648 1309.84 50.6708 1303.47 52.7708C1297 54.8998 1293.9 58.8748 1292.24 61.0108L1291.8 61.5718C1286.59 68.0988 1283.9 73.9258 1281.07 80.0968C1280.37 81.6038 1279.68 83.1068 1278.95 84.6178C1278.2 86.1638 1277.49 87.7038 1276.79 89.2428C1273.92 95.4828 1270.95 101.935 1265.37 109.013L1264.93 109.596C1262.98 112.131 1259.36 116.853 1251.52 119.655C1243.52 122.518 1237.35 120.961 1234.38 120.205C1224.98 117.95 1218.72 114.702 1212.67 111.567C1211.22 110.815 1209.77 110.067 1208.3 109.333C1206.72 108.557 1205.19 107.758 1203.65 106.96C1197.58 103.809 1191.83 100.835 1183.73 98.8358L1182.95 98.6338C1180.23 97.9178 1175.67 96.7278 1169.31 98.8278C1162.84 100.953 1159.75 104.927 1158.08 107.064L1157.64 107.633C1152.42 114.153 1149.75 119.976 1146.91 126.141C1146.22 127.655 1145.52 129.162 1144.79 130.676C1144.04 132.219 1143.34 133.759 1142.63 135.297C1139.76 141.541 1136.79 147.993 1131.21 155.071L1130.77 155.643C1128.83 158.182 1125.21 162.908 1117.37 165.713C1109.36 168.576 1103.19 167.019 1100.22 166.263C1090.83 164.005 1084.58 160.765 1078.53 157.632C1077.07 156.876 1075.62 156.125 1074.14 155.391C1072.57 154.614 1071.03 153.815 1069.49 153.017C1063.42 149.867 1057.68 146.892 1049.57 144.893L1048.79 144.691C1046.07 143.976 1041.51 142.788 1035.15 144.882C1028.69 147.008 1025.59 150.982 1023.93 153.118L1023.48 153.69C1018.28 160.2 1015.6 166.019 1012.76 172.18C1012.06 173.697 1011.37 175.212 1010.63 176.733C1009.88 178.28 1009.18 179.823 1008.47 181.365C1005.6 187.602 1002.63 194.054 997.056 201.128L996.61 201.704C994.668 204.243 991.05 208.965 983.209 211.771C975.203 214.63 969.042 213.069 966.079 212.325C956.678 210.062 950.424 206.822 944.374 203.689C942.917 202.934 941.468 202.182 939.983 201.448C938.422 200.675 936.893 199.883 935.361 199.089C929.279 195.931 923.532 192.953 915.411 190.95L914.635 190.749C911.919 190.037 907.363 188.846 900.997 190.939C894.527 193.065 891.43 197.043 889.765 199.175L889.322 199.744C884.122 206.253 881.442 212.069 878.608 218.23C877.906 219.748 877.209 221.265 876.475 222.787C875.727 224.329 875.022 225.873 874.313 227.412C871.443 233.656 868.48 240.108 862.898 247.186L862.456 247.758C860.51 250.297 856.892 255.02 849.048 257.828C841.064 260.687 834.892 259.13 831.921 258.382C822.519 256.12 816.265 252.879 810.216 249.747C808.759 248.992 807.31 248.24 805.825 247.506C804.26 246.733 802.732 245.938 801.2 245.143C795.118 241.989 789.374 239.007 781.254 237.005L780.469 236.803C777.747 236.087 773.193 234.908 766.838 236.997C760.368 239.122 757.271 243.097 755.61 245.233L755.164 245.802C749.963 252.312 747.284 258.127 744.45 264.285C743.749 265.806 743.05 267.324 742.317 268.845C741.573 270.388 740.864 271.924 740.156 273.463C737.585 279.062 734.93 284.835 730.384 291.075C736.747 295.606 741.052 300.189 745.23 304.634C746.399 305.874 747.561 307.112 748.762 308.342C749.942 309.551 751.082 310.762 752.222 311.975C756.872 316.92 761.263 321.588 768.27 326.113L768.878 326.509C771.133 328.009 775.42 330.66 782.135 330.746C788.836 330.706 792.773 328.131 795.13 326.592L795.806 326.154C802.855 321.68 807.35 317.037 812.108 312.116C813.313 310.868 814.518 309.623 815.762 308.387C816.938 307.218 818.075 306.042 819.219 304.862C823.955 299.967 828.854 294.91 836.489 290.134C839.607 288.128 844.851 284.686 853.461 284.858C861.787 285.027 866.718 288.354 869.369 290.141L869.973 290.544C877.518 295.482 882.384 300.661 887.089 305.667C888.251 306.901 889.409 308.134 890.607 309.361C891.779 310.562 892.915 311.77 894.056 312.983C898.707 317.928 903.101 322.597 910.111 327.124L910.708 327.512C912.963 329.009 917.444 331.925 923.979 331.76C930.683 331.72 934.621 329.145 936.974 327.603L937.643 327.171C944.696 322.693 949.192 318.05 953.95 313.13C955.154 311.882 956.359 310.638 957.604 309.401C958.773 308.236 959.906 307.063 961.042 305.891C965.782 300.993 970.684 295.929 978.33 291.149C981.445 289.146 986.883 285.827 995.298 285.869C1003.63 286.038 1008.56 289.365 1011.21 291.152L1011.81 291.555C1019.35 296.497 1024.22 301.672 1028.93 306.678C1030.09 307.915 1031.25 309.149 1032.45 310.375C1033.62 311.58 1034.76 312.795 1035.91 314.011C1040.56 318.953 1044.95 323.617 1051.95 328.138L1052.55 328.526C1054.8 330.026 1059.29 332.968 1065.82 332.774C1072.52 332.734 1076.46 330.156 1078.81 328.613L1079.48 328.181C1086.54 323.703 1091.03 319.056 1095.79 314.136C1097 312.892 1098.2 311.647 1099.44 310.414C1100.61 309.245 1101.75 308.073 1102.89 306.896C1107.63 301.998 1112.53 296.938 1120.17 292.157C1123.29 290.154 1128.72 286.748 1137.14 286.881C1145.47 287.05 1150.4 290.377 1153.05 292.164L1153.65 292.567C1161.2 297.505 1166.06 302.681 1170.76 307.687C1171.93 308.921 1173.09 310.154 1174.28 311.385C1175.46 312.59 1176.6 313.802 1177.74 315.014C1182.39 319.959 1186.78 324.627 1193.79 329.152L1194.39 329.548C1196.65 331.044 1200.88 334.044 1207.65 333.785C1214.36 333.745 1218.3 331.17 1220.65 329.628L1221.32 329.196C1228.37 324.718 1232.87 320.075 1237.63 315.155C1238.83 313.907 1240.04 312.663 1241.28 311.426C1242.45 310.257 1243.59 309.081 1244.73 307.905C1249.47 303.01 1254.37 297.95 1262.01 293.174C1265.13 291.171 1270.31 287.718 1278.98 287.898C1287.31 288.067 1292.24 291.394 1294.89 293.181L1295.49 293.584C1303.04 298.522 1307.9 303.698 1312.6 308.704C1313.77 309.938 1314.93 311.171 1316.12 312.402C1317.3 313.607 1318.44 314.822 1319.59 316.038C1324.23 320.98 1328.63 325.644 1335.63 330.165L1336.22 330.553C1338.46 332.042 1342.62 334.801 1349.36 334.801C1349.4 334.801 1349.45 334.801 1349.5 334.801C1356.2 334.761 1360.14 332.182 1362.49 330.644L1363.16 330.212C1370.21 325.734 1374.71 321.091 1379.47 316.171C1380.67 314.923 1381.87 313.678 1383.12 312.442C1384.29 311.277 1385.42 310.108 1386.55 308.935C1391.3 304.036 1396.2 298.972 1403.85 294.189C1406.96 292.186 1412.23 288.687 1420.82 288.909C1429.15 289.078 1434.09 292.408 1436.73 294.196L1437.33 294.599C1444.87 299.537 1449.74 304.712 1454.44 309.715C1455.61 310.952 1456.76 312.186 1457.96 313.416C1459.14 314.621 1460.28 315.836 1461.43 317.052C1466.08 321.994 1470.47 326.658 1477.47 331.179L1478.07 331.567C1480.32 333.067 1484.44 335.912 1491.34 335.811C1498.04 335.771 1501.98 333.196 1504.33 331.657L1505.01 331.219C1512.06 326.741 1516.56 322.087 1521.33 317.164C1522.53 315.923 1523.72 314.685 1524.96 313.456L1528.86 317.369C1527.65 318.578 1526.48 319.789 1525.3 321.005C1520.52 325.943 1515.58 331.053 1507.97 335.884L1507.36 336.28C1504.68 338.032 1499.7 341.29 1491.37 341.337C1491.3 341.329 1491.24 341.329 1491.18 341.329Z" fill="#803738"/>
        <path d="M1441.98 811.06C1439.41 811.06 1436.4 810.679 1433.01 809.535C1424.96 806.827 1421.08 801.77 1419.22 799.343C1413.25 791.75 1410.35 785.331 1407.55 779.119C1406.87 777.627 1406.2 776.138 1405.49 774.641C1404.74 773.062 1404.03 771.491 1403.32 769.915C1400.5 763.672 1397.84 757.773 1392.71 751.17L1392.23 750.537C1390.54 748.293 1387.71 744.534 1381.41 742.228C1375.01 739.895 1370.12 741.092 1367.5 741.732L1366.79 741.901C1358.66 743.793 1352.94 746.703 1346.89 749.784C1345.41 750.536 1343.94 751.287 1342.43 752.025C1340.88 752.777 1339.37 753.547 1337.86 754.317C1331.74 757.435 1325.41 760.657 1316.65 762.754L1315.94 762.93C1312.84 763.714 1307.08 765.178 1299.19 762.52C1291.13 759.809 1287.25 754.755 1285.39 752.327C1279.43 744.739 1276.53 738.323 1273.72 732.115C1273.05 730.623 1272.37 729.13 1271.66 727.63C1270.91 726.052 1270.21 724.48 1269.5 722.908C1266.68 716.661 1264.02 710.759 1258.89 704.159L1258.41 703.519C1256.71 701.275 1253.87 697.516 1247.58 695.214C1241.18 692.877 1236.29 694.075 1233.67 694.718L1232.96 694.887C1224.84 696.775 1219.13 699.685 1213.08 702.763C1211.6 703.519 1210.12 704.274 1208.6 705.011C1207.05 705.763 1205.54 706.533 1204.03 707.302C1197.91 710.421 1191.59 713.643 1182.83 715.74L1182.12 715.916C1179.02 716.696 1173.26 718.167 1165.36 715.506C1157.31 712.795 1153.43 707.745 1151.57 705.313C1145.6 697.718 1142.7 691.294 1139.89 685.082C1139.22 683.593 1138.55 682.108 1137.84 680.615C1137.09 679.033 1136.38 677.457 1135.66 675.875C1132.85 669.635 1130.19 663.741 1125.07 657.145L1124.58 656.509C1122.89 654.265 1120.06 650.506 1113.76 648.2C1107.36 645.866 1102.47 647.064 1099.85 647.704L1099.14 647.873C1091.01 649.761 1085.3 652.671 1079.26 655.749C1077.77 656.505 1076.29 657.26 1074.78 657.997C1073.24 658.745 1071.73 659.515 1070.22 660.284C1064.1 663.403 1057.77 666.629 1049 668.725L1048.3 668.898C1045.21 669.685 1039.44 671.149 1031.53 668.491C1023.48 665.779 1019.61 660.73 1017.74 658.298C1011.77 650.706 1008.87 644.279 1006.06 638.064C1005.39 636.575 1004.72 635.09 1004.01 633.601C1003.26 632.015 1002.55 630.436 1001.84 628.854C999.021 622.617 996.363 616.723 991.242 610.13L990.757 609.493C989.063 607.249 986.229 603.491 979.932 601.185C973.537 598.847 968.646 600.045 966.02 600.689L965.311 600.858C957.187 602.746 951.475 605.655 945.43 608.734C943.944 609.49 942.463 610.245 940.949 610.982C939.409 611.73 937.902 612.499 936.392 613.269C930.27 616.388 923.94 619.614 915.176 621.71L914.475 621.887C911.378 622.667 905.606 624.142 897.708 621.48C889.655 618.764 885.782 613.715 883.919 611.287C877.949 603.694 875.05 597.275 872.245 591.064C871.569 589.572 870.896 588.082 870.188 586.586C869.436 585.003 868.724 583.425 868.012 581.842C865.195 575.606 862.538 569.711 857.416 563.115L856.931 562.478C855.237 560.234 852.402 556.476 846.105 554.17C839.711 551.836 834.819 553.034 832.194 553.674L831.485 553.843C823.371 555.731 817.663 558.637 811.621 561.712C810.132 562.471 808.643 563.226 807.126 563.967C805.583 564.715 804.072 565.484 802.558 566.258C796.441 569.377 790.111 572.599 781.349 574.695L780.648 574.871C777.548 575.656 771.772 577.123 763.885 574.465C755.829 571.749 751.952 566.696 750.089 564.269C744.122 556.68 741.224 550.26 738.418 544.05C737.742 542.557 737.069 541.068 736.361 539.572C735.613 537.993 734.905 536.425 734.196 534.853C731.38 528.606 728.718 522.708 723.589 516.101L721.723 513.699L724.154 511.89C731.351 507.25 735.814 502.567 740.54 497.612C741.734 496.36 742.924 495.108 744.154 493.868C745.319 492.692 746.449 491.509 747.578 490.325C752.283 485.398 757.148 480.302 764.751 475.468C767.851 473.443 773.016 470.124 781.687 470.066C790.017 470.178 794.976 473.472 797.638 475.242L798.242 475.641C805.82 480.521 810.722 485.664 815.462 490.635C816.631 491.865 817.8 493.088 819.004 494.308C820.191 495.506 821.342 496.71 822.493 497.919C827.175 502.825 831.599 507.457 838.638 511.931L839.242 512.32C841.508 513.801 845.734 516.524 852.535 516.467C859.246 516.38 863.163 513.773 865.507 512.216L866.165 511.781C873.193 507.253 877.656 502.57 882.381 497.615C883.575 496.363 884.766 495.111 885.996 493.871C887.161 492.695 888.29 491.512 889.42 490.328C894.125 485.401 898.99 480.305 906.593 475.471C909.697 473.446 914.879 470.127 923.53 470.069C931.859 470.181 936.819 473.475 939.48 475.245L940.084 475.644C947.662 480.524 952.564 485.667 957.304 490.638C958.473 491.868 959.642 493.091 960.847 494.311C962.034 495.509 963.185 496.713 964.335 497.922C969.017 502.828 973.441 507.46 980.48 511.934L981.084 512.323C983.35 513.804 987.716 516.527 994.377 516.47C1001.09 516.383 1005 513.776 1007.35 512.219L1008.01 511.784C1015.03 507.26 1019.49 502.581 1024.21 497.632C1025.41 496.373 1026.61 495.118 1027.84 493.874C1029 492.701 1030.13 491.525 1031.25 490.342C1035.96 485.411 1040.83 480.311 1048.44 475.474C1051.54 473.449 1056.76 470.047 1065.37 470.072C1073.71 470.184 1078.66 473.478 1081.32 475.248L1081.93 475.647C1089.51 480.527 1094.41 485.67 1099.15 490.641C1100.32 491.871 1101.48 493.094 1102.69 494.314C1103.88 495.512 1105.03 496.716 1106.18 497.925C1110.86 502.831 1115.29 507.463 1122.32 511.937L1122.93 512.326C1125.19 513.807 1129.5 516.404 1136.22 516.473C1142.93 516.386 1146.85 513.779 1149.19 512.222L1149.85 511.787C1156.88 507.263 1161.34 502.584 1166.06 497.635C1167.26 496.376 1168.45 495.121 1169.69 493.877C1170.85 492.704 1171.97 491.528 1173.1 490.345C1177.8 485.414 1182.67 480.314 1190.28 475.477C1193.38 473.452 1198.5 470.05 1207.22 470.075C1215.55 470.187 1220.51 473.481 1223.17 475.251L1223.77 475.65C1231.35 480.53 1236.25 485.673 1240.99 490.644C1242.16 491.874 1243.33 493.097 1244.53 494.317C1245.72 495.515 1246.87 496.719 1248.02 497.928C1252.7 502.834 1257.13 507.466 1264.17 511.94L1264.77 512.329C1267.04 513.81 1271.33 516.407 1278.07 516.476C1284.77 516.389 1288.69 513.785 1291.03 512.228L1291.7 511.789C1298.72 507.265 1303.18 502.589 1307.9 497.637C1309.1 496.382 1310.3 495.127 1311.53 493.879C1312.69 492.706 1313.81 491.53 1314.94 490.347C1319.65 485.416 1324.51 480.316 1332.13 475.479C1335.22 473.454 1340.49 470.052 1349.06 470.077C1357.39 470.189 1362.35 473.483 1365.01 475.253L1365.61 475.652C1373.19 480.532 1378.09 485.675 1382.83 490.646C1384 491.876 1385.17 493.099 1386.38 494.319C1387.57 495.52 1388.73 496.732 1389.88 497.944C1394.56 502.847 1398.98 507.475 1406.01 511.942L1406.62 512.335C1408.89 513.816 1413.21 516.589 1419.91 516.478C1426.62 516.391 1430.54 513.787 1432.88 512.23L1433.55 511.791C1440.57 507.263 1445.03 502.58 1449.76 497.625C1450.95 496.373 1452.14 495.121 1453.37 493.881C1454.54 492.708 1455.66 491.532 1456.78 490.349C1461.49 485.418 1466.36 480.318 1473.97 475.481C1477.07 473.456 1482.23 470.054 1490.9 470.079C1499.24 470.191 1504.19 473.485 1506.86 475.255L1507.46 475.654C1515.04 480.534 1519.94 485.677 1524.68 490.648C1525.85 491.878 1527.02 493.101 1528.22 494.321L1524.29 498.205C1523.06 496.964 1521.87 495.712 1520.68 494.461C1515.95 489.505 1511.49 484.822 1504.47 480.298L1503.8 479.856C1501.45 478.299 1497.54 475.691 1490.83 475.604C1483.69 475.633 1479.8 478.276 1477.53 479.758L1476.94 480.143C1469.89 484.621 1465.47 489.257 1460.78 494.166C1459.63 495.37 1458.48 496.572 1457.3 497.766C1456.1 498.986 1454.93 500.209 1453.76 501.438C1449.02 506.408 1444.12 511.551 1436.54 516.432L1435.93 516.831C1433.27 518.6 1428.31 521.899 1419.98 522.003C1411.67 522.017 1406.17 518.632 1403.6 516.964C1395.45 511.778 1390.59 506.685 1385.89 501.761C1384.75 500.571 1383.62 499.387 1382.45 498.208C1381.22 496.963 1380.03 495.712 1378.84 494.46C1374.11 489.504 1369.65 484.821 1362.62 480.297L1361.95 479.855C1359.61 478.298 1355.69 475.69 1348.99 475.603C1341.99 475.632 1337.95 478.275 1335.68 479.757L1335.09 480.142C1328.05 484.62 1323.62 489.256 1318.94 494.165C1317.79 495.369 1316.64 496.571 1315.46 497.765C1314.25 498.991 1313.07 500.221 1311.9 501.451C1307.16 506.418 1302.26 511.554 1294.69 516.431L1294.09 516.83C1291.43 518.599 1286.47 521.898 1278.14 522.002C1269.53 522.056 1264.31 518.631 1261.75 516.959C1253.6 511.769 1248.73 506.673 1244.03 501.742C1242.9 500.558 1241.77 499.379 1240.61 498.203C1239.38 496.962 1238.19 495.71 1236.99 494.459C1232.27 489.503 1227.8 484.82 1220.78 480.296L1220.11 479.854C1217.77 478.297 1213.85 475.689 1207.14 475.602C1200.05 475.631 1196.11 478.274 1193.84 479.756L1193.25 480.141C1186.2 484.619 1181.78 489.255 1177.09 494.164C1175.95 495.368 1174.8 496.57 1173.61 497.764C1172.4 498.987 1171.23 500.217 1170.05 501.45C1165.32 506.417 1160.42 511.553 1152.85 516.433L1152.25 516.825C1149.59 518.595 1144.63 521.893 1136.3 522.001C1127.77 522.055 1122.47 518.63 1119.91 516.958C1111.76 511.768 1106.89 506.672 1102.18 501.741C1101.05 500.557 1099.93 499.378 1098.76 498.202C1097.53 496.961 1096.34 495.709 1095.15 494.458C1090.42 489.502 1085.96 484.819 1078.93 480.295L1078.27 479.853C1075.92 478.296 1072 475.688 1065.3 475.601C1058.3 475.591 1054.26 478.273 1052 479.755L1051.41 480.14C1044.36 484.618 1039.93 489.254 1035.25 494.163C1034.1 495.367 1032.95 496.569 1031.77 497.763C1030.56 498.986 1029.38 500.216 1028.21 501.449C1023.47 506.416 1018.57 511.552 1011 516.432L1010.4 516.824C1007.74 518.594 1002.79 521.892 994.447 522C985.758 522.007 980.621 518.629 978.061 516.957C969.911 511.767 965.045 506.671 960.337 501.74C959.208 500.556 958.082 499.377 956.917 498.201C955.687 496.96 954.497 495.708 953.302 494.457C948.576 489.501 944.113 484.818 937.089 480.294L936.42 479.852C934.079 478.295 930.155 475.687 923.454 475.6C916.488 475.647 912.42 478.272 910.154 479.751L909.554 480.14C902.519 484.61 898.095 489.246 893.413 494.152C892.258 495.361 891.107 496.565 889.921 497.763C888.716 498.983 887.547 500.206 886.378 501.435C881.638 506.405 876.736 511.548 869.158 516.429L868.561 516.825C865.899 518.595 860.943 521.893 852.603 522.001C843.813 522.008 838.778 518.63 836.217 516.958C828.068 511.768 823.202 506.672 818.494 501.741C817.365 500.557 816.239 499.378 815.073 498.202C813.844 496.961 812.653 495.709 811.459 494.458C806.733 489.502 802.27 484.819 795.246 480.295L794.577 479.853C792.236 478.296 788.312 475.688 781.612 475.601C774.621 475.648 770.578 478.273 768.312 479.752L767.712 480.141C760.677 484.611 756.253 489.247 751.571 494.153C750.416 495.362 749.265 496.566 748.078 497.764C746.874 498.984 745.705 500.207 744.536 501.436C740.281 505.895 735.901 510.492 729.574 514.915C734.12 521.266 736.714 527.014 739.227 532.592C739.925 534.135 740.618 535.675 741.349 537.218C742.072 538.743 742.759 540.264 743.449 541.789C746.24 547.967 748.876 553.805 754.03 560.354L754.469 560.918C756.116 563.066 759.185 567.065 765.644 569.241C771.999 571.384 776.559 570.223 779.282 569.529L780.058 569.334C788.183 567.392 793.948 564.454 800.048 561.347C801.591 560.559 803.131 559.775 804.705 559.009C806.195 558.286 807.651 557.545 809.111 556.801C815.182 553.711 821.457 550.514 830.233 548.475C833.848 547.594 840.03 546.073 848 548.997C855.826 551.86 859.412 556.615 861.336 559.165L861.775 559.74C867.299 566.854 870.22 573.327 873.043 579.585C873.741 581.132 874.438 582.679 875.175 584.232C875.898 585.757 876.585 587.279 877.276 588.803C880.067 594.982 882.703 600.819 887.857 607.368L888.296 607.936C889.943 610.084 893.011 614.079 899.467 616.255C905.825 618.402 910.386 617.237 913.108 616.543L913.885 616.349C922.013 614.407 927.778 611.468 933.878 608.358C935.421 607.574 936.957 606.79 938.529 606.024C940.014 605.304 941.464 604.563 942.92 603.823C948.995 600.729 955.277 597.529 964.06 595.49C967.674 594.609 973.861 593.087 981.827 596.011C989.653 598.874 993.239 603.629 995.163 606.179L995.602 606.754C1001.13 613.864 1004.05 620.338 1006.87 626.596C1007.57 628.146 1008.27 629.693 1009 631.246C1009.72 632.767 1010.41 634.281 1011.1 635.803C1013.89 641.985 1016.53 647.83 1021.68 654.382L1022.12 654.951C1023.77 657.098 1026.84 661.093 1033.29 663.266C1039.65 665.406 1044.22 664.244 1046.94 663.557L1047.71 663.363C1055.84 661.421 1061.61 658.482 1067.71 655.371C1069.25 654.587 1070.78 653.803 1072.36 653.037C1073.84 652.318 1075.29 651.577 1076.75 650.836C1082.82 647.742 1089.1 644.542 1097.89 642.503C1101.5 641.626 1107.68 640.104 1115.65 643.024C1123.48 645.887 1127.07 650.642 1128.99 653.192L1129.43 653.767C1134.95 660.881 1137.87 667.355 1140.7 673.616C1141.4 675.163 1142.09 676.71 1142.83 678.259C1143.55 679.781 1144.23 681.298 1144.92 682.82C1147.71 689.002 1150.35 694.839 1155.51 701.396L1155.95 701.965C1157.6 704.112 1160.66 708.108 1167.12 710.28C1173.46 712.42 1178.02 711.265 1180.75 710.571L1181.54 710.377C1189.66 708.435 1195.42 705.5 1201.52 702.393C1203.06 701.605 1204.6 700.818 1206.18 700.051C1207.67 699.332 1209.12 698.591 1210.57 697.85C1216.65 694.757 1222.93 691.556 1231.71 689.516C1235.32 688.639 1241.5 687.117 1249.48 690.037C1257.29 692.9 1260.88 697.647 1262.81 700.197L1263.25 700.776C1268.78 707.901 1271.7 714.378 1274.53 720.644C1275.22 722.187 1275.92 723.727 1276.65 725.273C1277.38 726.801 1278.06 728.327 1278.76 729.851C1281.55 736.026 1284.18 741.86 1289.34 748.409L1289.77 748.974C1291.42 751.121 1294.49 755.121 1300.95 757.293C1307.29 759.433 1311.85 758.275 1314.58 757.584L1315.36 757.39C1323.49 755.448 1329.25 752.513 1335.35 749.406C1336.89 748.619 1338.43 747.83 1340.01 747.064C1341.49 746.345 1342.93 745.608 1344.38 744.87C1350.46 741.774 1356.75 738.572 1365.54 736.529C1369.15 735.648 1375.34 734.131 1383.3 737.05C1391.13 739.917 1394.71 744.664 1396.64 747.218L1397.08 747.79C1402.61 754.911 1405.53 761.388 1408.35 767.649C1409.05 769.196 1409.74 770.735 1410.48 772.281C1411.2 773.806 1411.89 775.327 1412.58 776.853C1415.37 783.031 1418 788.869 1423.16 795.418L1423.6 795.986C1425.25 798.137 1428.32 802.133 1434.77 804.305C1441.12 806.445 1445.68 805.287 1448.4 804.597L1449.19 804.403C1457.31 802.457 1463.08 799.519 1469.18 796.411C1470.72 795.624 1472.26 794.839 1473.83 794.073L1476.25 799.044C1474.7 799.792 1473.2 800.561 1471.69 801.331C1465.57 804.449 1459.24 807.675 1450.47 809.776L1449.76 809.952C1448 810.391 1445.37 811.06 1441.98 811.06Z" fill="#803738"/>
    </g>

    <!-- Animation -->
    <animateTransform attributeName="transform" type="scale" values="0.95;1.03;0.95" dur="4s" repeatCount="indefinite" additive="sum" origin="765 936" />

    <style>
    g {
      animation: breathe 4s ease-in-out infinite;
    }
    @keyframes breathe {
      0%, 100% { filter: url(#glow); opacity: 0.95; }
      50% { filter: url(#glow); opacity: 1; }
    }
    </style>
</svg>